<?xml version="1.0" encoding="utf-8"?>
<!-- Generator: Adobe Illustrator 19.2.0, SVG Export Plug-In . SVG Version: 6.00 Build 0)  -->
<svg version="1.1" id="Warstwa_1" xmlns="http://www.w3.org/2000/svg" xmlns:xlink="http://www.w3.org/1999/xlink" x="0px" y="0px"
	 viewBox="0 0 2721.3 1020.5" style="enable-background:new 0 0 2721.3 1020.5;" xml:space="preserve">
<style type="text/css">
	.st0{fill:url(#SVGID_1_);}
	.st1{fill:url(#SVGID_2_);}
	.st2{fill:url(#SVGID_3_);}
	.st3{fill:url(#SVGID_4_);}
	.st4{fill:url(#SVGID_5_);}
	.st5{opacity:0.65;fill:url(#SVGID_6_);enable-background:new    ;}
	.st6{opacity:0.65;fill:url(#SVGID_7_);enable-background:new    ;}
	.st7{fill:url(#SVGID_8_);}
	.st8{fill:url(#SVGID_9_);}
	.st9{opacity:0.71;fill:url(#SVGID_10_);enable-background:new    ;}
	.st10{opacity:0.71;fill:url(#SVGID_11_);enable-background:new    ;}
	.st11{fill:url(#SVGID_12_);}
	.st12{fill:url(#SVGID_13_);}
	.st13{fill:url(#SVGID_14_);}
	.st14{fill:url(#SVGID_15_);}
	.st15{fill:url(#SVGID_16_);}
	.st16{fill:url(#SVGID_17_);}
	.st17{fill:url(#SVGID_18_);}
	.st18{fill:url(#SVGID_19_);}
	.st19{fill:url(#SVGID_20_);}
	.st20{fill:url(#SVGID_21_);}
	.st21{fill:url(#SVGID_22_);}
	.st22{fill:url(#SVGID_23_);}
	.st23{fill:url(#SVGID_24_);}
	.st24{opacity:0.65;fill:url(#SVGID_25_);enable-background:new    ;}
	.st25{opacity:0.65;fill:url(#SVGID_26_);enable-background:new    ;}
	.st26{opacity:0.65;fill:url(#SVGID_27_);enable-background:new    ;}
	.st27{fill:url(#SVGID_28_);}
	.st28{opacity:0.65;fill:url(#SVGID_29_);enable-background:new    ;}
	.st29{fill:#144A98;}
	.st30{fill:url(#SVGID_30_);}
	.st31{fill:url(#SVGID_31_);}
	.st32{fill:url(#SVGID_32_);}
	.st33{opacity:0.57;fill:url(#SVGID_33_);enable-background:new    ;}
	.st34{opacity:0.57;fill:url(#SVGID_34_);enable-background:new    ;}
	.st35{fill:url(#SVGID_35_);}
	.st36{fill:url(#SVGID_36_);}
	.st37{fill:url(#SVGID_37_);}
	.st38{fill:url(#SVGID_38_);}
	.st39{fill:url(#SVGID_39_);}
	.st40{fill:url(#SVGID_40_);}
	.st41{fill:url(#SVGID_41_);}
	.st42{fill:url(#SVGID_42_);}
	.st43{fill:url(#SVGID_43_);}
	.st44{opacity:0.57;fill:url(#SVGID_44_);enable-background:new    ;}
	.st45{fill:url(#SVGID_45_);}
	.st46{fill:url(#SVGID_46_);}
	.st47{opacity:0.57;fill:url(#SVGID_47_);enable-background:new    ;}
	.st48{opacity:0.57;fill:url(#SVGID_48_);enable-background:new    ;}
	.st49{fill:url(#SVGID_49_);}
	.st50{fill:url(#SVGID_50_);}
	.st51{fill:url(#SVGID_51_);}
	.st52{opacity:0.57;fill:url(#SVGID_52_);enable-background:new    ;}
	.st53{fill:url(#SVGID_53_);}
	.st54{fill:url(#SVGID_54_);}
	.st55{fill:url(#SVGID_55_);}
	.st56{opacity:0.57;fill:url(#SVGID_56_);enable-background:new    ;}
	.st57{fill:url(#SVGID_57_);}
	.st58{fill:url(#SVGID_58_);}
	.st59{fill:url(#SVGID_59_);}
	.st60{fill:url(#SVGID_60_);}
	.st61{fill:url(#SVGID_61_);}
	.st62{fill:url(#SVGID_62_);}
	.st63{fill:url(#SVGID_63_);}
	.st64{fill:url(#SVGID_64_);}
	.st65{fill:url(#SVGID_65_);}
	.st66{fill:url(#SVGID_66_);}
	.st67{fill:url(#SVGID_67_);}
	.st68{fill:url(#SVGID_68_);}
	.st69{opacity:0.74;fill:url(#SVGID_69_);enable-background:new    ;}
	.st70{opacity:0.74;fill:url(#SVGID_70_);enable-background:new    ;}
	.st71{fill:url(#SVGID_71_);}
	.st72{fill:url(#SVGID_72_);}
	.st73{fill:url(#SVGID_73_);}
	.st74{fill:url(#SVGID_74_);}
	.st75{fill:url(#SVGID_75_);}
	.st76{fill:url(#SVGID_76_);}
	.st77{fill:url(#SVGID_77_);}
	.st78{fill:url(#SVGID_78_);}
	.st79{fill:url(#SVGID_79_);}
	.st80{opacity:0.57;fill:url(#SVGID_80_);enable-background:new    ;}
	.st81{opacity:0.57;fill:url(#SVGID_81_);enable-background:new    ;}
	.st82{fill:url(#SVGID_82_);}
	.st83{opacity:0.57;fill:url(#SVGID_83_);enable-background:new    ;}
	.st84{opacity:0.65;fill:url(#SVGID_84_);enable-background:new    ;}
	.st85{fill:url(#SVGID_85_);}
	.st86{fill:url(#SVGID_86_);}
	.st87{fill:url(#SVGID_87_);}
</style>
<title>Zasób 62</title>
<g id="Warstwa_2">
	<g id="_6">
		
			<linearGradient id="SVGID_1_" gradientUnits="userSpaceOnUse" x1="-602.9631" y1="447.257" x2="-865.1146" y2="-243.6864" gradientTransform="matrix(-1 0 0 -1 -22.0901 455.4133)">
			<stop  offset="0" style="stop-color:#F9979C"/>
			<stop  offset="1" style="stop-color:#FBD4BA"/>
		</linearGradient>
		<path class="st0" d="M800.8,453.4v189.3c0,0,23.6-2,42.9,3.1c0,0,21.3,2,33,9.1h-24.4c-7.1-2.3-14.7-2.3-21.8,0H774l-5.3-188.6
			c0,0,8.4-24.4,9.9-22.5s22.3,6.8,22.3,6.8"/>
		
			<linearGradient id="SVGID_2_" gradientUnits="userSpaceOnUse" x1="577.2206" y1="-312.2248" x2="812.4854" y2="-581.846" gradientTransform="matrix(1 0 0 -1 0 455.4133)">
			<stop  offset="0" style="stop-color:#1C59B0"/>
			<stop  offset="1" style="stop-color:#002861"/>
		</linearGradient>
		<path class="st1" d="M770.6,949.5c0,0,7.5,0,14.6,10.9c1.8,2.7,3.5,5.5,5.5,8.1l11.9,16.4l-3.2,2.7l-16.6-17.2
			c0,0-6.1,2.8-1.5,15.7c0.8,2.1,1.8,4.2,2.9,6.1l0.3,0.6c1.3,3.1,0.4,6.7-2.2,8.9l-20.5,16.8c0,0-6.1,5.7-4.4-1.8
			c1.5-4.9,3.3-9.7,5.5-14.4l3.6-21.2l-9.5-31L770.6,949.5z"/>
		
			<linearGradient id="SVGID_3_" gradientUnits="userSpaceOnUse" x1="-805.9917" y1="-414.358" x2="-774.4946" y2="-583.0376" gradientTransform="matrix(-1 0 0 -1 -22.0901 455.4133)">
			<stop  offset="0" style="stop-color:#F9979C"/>
			<stop  offset="1" style="stop-color:#FBD4BA"/>
		</linearGradient>
		<path class="st2" d="M756.2,961.4c0,0,8.3,31.2,6.5,41c4.3-1.1,7.6-4.5,8.7-8.8c0.8-2.7,0.9-5.6,0.3-8.4
			c-1.3-6.6-4.7-23.5-9.6-34.6L756.2,961.4z"/>
		
			<linearGradient id="SVGID_4_" gradientUnits="userSpaceOnUse" x1="535.4008" y1="-348.7228" x2="770.6433" y2="-618.3442" gradientTransform="matrix(1 0 0 -1 0 455.4133)">
			<stop  offset="0" style="stop-color:#1C59B0"/>
			<stop  offset="1" style="stop-color:#002861"/>
		</linearGradient>
		<path class="st3" d="M730.5,972.8c0,0,5.8,4.8,4.4,17.6c-0.4,3.2-0.7,6.5-0.9,9.7l-1.2,20.3h-4.2l-1.9-23.7c0,0-6.4-1.7-11.1,11.1
			c-0.7,2.2-1.3,4.4-1.6,6.6l-0.1,0.6c-1,3.3-4,5.5-7.5,5.5h-26.6c0,0-8.3,0.6-2.2-4.2c4.2-2.9,8.7-5.4,13.3-7.6l16.2-14.1
			l12.4-30.1L730.5,972.8z"/>
		
			<linearGradient id="SVGID_5_" gradientUnits="userSpaceOnUse" x1="-834.9778" y1="-357.2608" x2="-663.261" y2="-648.8703" gradientTransform="matrix(-1 0 0 -1 -22.0901 455.4133)">
			<stop  offset="0" style="stop-color:#F9979C"/>
			<stop  offset="1" style="stop-color:#FBD4BA"/>
		</linearGradient>
		<path class="st4" d="M711.8,972.8c0,0-13.3,29.3-21,35.8c4,1.9,8.7,1.4,12.3-1.3c2.3-1.6,4.3-3.8,5.6-6.3
			c3.3-6,11.3-21.2,14.6-32.8L711.8,972.8z"/>
		
			<linearGradient id="SVGID_6_" gradientUnits="userSpaceOnUse" x1="840.7863" y1="-615.3426" x2="643.0256" y2="-384.8656" gradientTransform="matrix(1 0 0 -1 0 455.4133)">
			<stop  offset="0" style="stop-color:#FFFFFF;stop-opacity:0"/>
			<stop  offset="0.14" style="stop-color:#F2F8FF;stop-opacity:3.000000e-02"/>
			<stop  offset="0.35" style="stop-color:#CFE6FF;stop-opacity:0.11"/>
			<stop  offset="0.6" style="stop-color:#95C8FF;stop-opacity:0.24"/>
			<stop  offset="0.88" style="stop-color:#459FFF;stop-opacity:0.41"/>
			<stop  offset="1" style="stop-color:#1E8BFF;stop-opacity:0.5"/>
		</linearGradient>
		<path class="st5" d="M770.9,949.5c0,0,7.5,0,14.6,10.9c1.8,2.7,3.5,5.5,5.5,8.1l12,16.4l-3.3,2.7L783,970.4c0,0-6,2.8-1.5,15.7
			c0.8,2.1,1.8,4.2,2.9,6.1l0.3,0.6c1.3,3.1,0.4,6.7-2.2,8.9l-20.5,16.8c0,0-6.1,5.7-4.4-1.8c1.5-4.9,3.3-9.7,5.5-14.4l3.6-21.2
			l-9.5-31L770.9,949.5z"/>
		
			<linearGradient id="SVGID_7_" gradientUnits="userSpaceOnUse" x1="769.7001" y1="-618.0986" x2="571.9394" y2="-387.6438" gradientTransform="matrix(1 0 0 -1 0 455.4133)">
			<stop  offset="0" style="stop-color:#FFFFFF;stop-opacity:0"/>
			<stop  offset="0.14" style="stop-color:#F2F8FF;stop-opacity:3.000000e-02"/>
			<stop  offset="0.35" style="stop-color:#CFE6FF;stop-opacity:0.11"/>
			<stop  offset="0.6" style="stop-color:#95C8FF;stop-opacity:0.24"/>
			<stop  offset="0.88" style="stop-color:#459FFF;stop-opacity:0.41"/>
			<stop  offset="1" style="stop-color:#1E8BFF;stop-opacity:0.5"/>
		</linearGradient>
		<path class="st6" d="M730.8,972.8c0,0,5.8,4.8,4.4,17.6c-0.4,3.2-0.7,6.5-0.9,9.7l-1.2,20.3h-4.2l-1.9-23.8c0,0-6.5-1.7-11.1,11.1
			c-0.7,2.2-1.3,4.4-1.6,6.6c0,0.2-0.1,0.4-0.1,0.6c-1,3.3-4,5.5-7.4,5.5h-26.6c0,0-8.3,0.6-2.2-4.2c4.2-2.9,8.7-5.4,13.3-7.6
			l16.2-14.1l12.4-30.1L730.8,972.8z"/>
		
			<linearGradient id="SVGID_8_" gradientUnits="userSpaceOnUse" x1="650.2482" y1="-765.4757" x2="963.4913" y2="1589.7651" gradientTransform="matrix(1 0 0 -1 0 455.4133)">
			<stop  offset="0" style="stop-color:#1EA3D8"/>
			<stop  offset="1" style="stop-color:#04439E"/>
		</linearGradient>
		<path class="st7" d="M689,512.6l-21.6-18.3l-8.1,18.3c0,0-26.2,202.7-26.9,233.2c0,0,104.9,195.1,120.9,218.7l18.3-16.3
			c0,0-62.6-167.4-82.6-207c0,0,20.9-89.2,27.5-134.1L689,512.6z"/>
		
			<linearGradient id="SVGID_9_" gradientUnits="userSpaceOnUse" x1="653.5746" y1="-765.9133" x2="966.8177" y2="1589.3274" gradientTransform="matrix(1 0 0 -1 0 455.4133)">
			<stop  offset="0" style="stop-color:#1EA3D8"/>
			<stop  offset="1" style="stop-color:#04439E"/>
		</linearGradient>
		<path class="st8" d="M736.9,512.6c0,0,47,16.8,53.2,95.3c-1.8,60-10.7,119.6-26.6,177.6c0,0-20.7,151.7-31.4,187.5h-21.6
			c0,0,2.2-269.7,4.7-358.8c0,0-36.8-39-26.4-101.5l34.8-18.3L736.9,512.6z"/>
		
			<linearGradient id="SVGID_10_" gradientUnits="userSpaceOnUse" x1="641.527" y1="-279.7014" x2="794.4468" y2="-617.0605" gradientTransform="matrix(1 0 0 -1 0 455.4133)">
			<stop  offset="0" style="stop-color:#1EA3D8"/>
			<stop  offset="1" style="stop-color:#04439E"/>
		</linearGradient>
		<polygon class="st9" points="711.3,891.1 739.2,941.1 738.3,945.8 711.2,898.4 		"/>
		
			<linearGradient id="SVGID_11_" gradientUnits="userSpaceOnUse" x1="481.8402" y1="-213.3627" x2="1009.2021" y2="-569.5624" gradientTransform="matrix(1 0 0 -1 0 455.4133)">
			<stop  offset="0" style="stop-color:#1EA3D8"/>
			<stop  offset="1" style="stop-color:#04439E"/>
		</linearGradient>
		<path class="st10" d="M748.4,887.4l1.2-7.5c0,0-14.3-40.1-37.2-93.9v9.5C712.4,795.5,746.1,874.5,748.4,887.4z"/>
		
			<linearGradient id="SVGID_12_" gradientUnits="userSpaceOnUse" x1="684.4124" y1="445.1992" x2="797.4121" y2="-2359.0708" gradientTransform="matrix(1 0 0 -1 0 455.4133)">
			<stop  offset="0" style="stop-color:#FFFFFF;stop-opacity:0"/>
			<stop  offset="0.14" style="stop-color:#F2F8FF;stop-opacity:3.000000e-02"/>
			<stop  offset="0.35" style="stop-color:#CFE6FF;stop-opacity:0.11"/>
			<stop  offset="0.6" style="stop-color:#95C8FF;stop-opacity:0.24"/>
			<stop  offset="0.88" style="stop-color:#459FFF;stop-opacity:0.41"/>
			<stop  offset="1" style="stop-color:#1E8BFF;stop-opacity:0.5"/>
		</linearGradient>
		<path class="st11" d="M763.5,785.5c15.9-57.9,24.8-117.5,26.6-177.6c-6.1-78.5-53.2-95.3-53.2-95.3l-13.2-18.3L689,512.6
			l-21.6-18.3l-8.1,18.3c0,0-26.2,202.7-26.9,233.2c0,0,43.7,81.3,79,145.3c-0.5,47.8-0.8,81.9-0.8,81.9h21.6
			c2.1-6.9,4.4-18.2,7.1-31.9c6.5,11.3,11.4,19.7,14,23.5l18.3-16.3c0,0-9.9-26.6-23.1-60.9C756.5,837.2,763.5,785.5,763.5,785.5z
			 M689,741.3c0,0,18.8-80.1,26.3-126.7c-1.1,38.8-2.2,111.1-2.9,180.7C702.9,771.8,694.4,751.9,689,741.3z"/>
		
			<linearGradient id="SVGID_13_" gradientUnits="userSpaceOnUse" x1="585.2281" y1="-187.8502" x2="-141.313" y2="1016.4244" gradientTransform="matrix(1 0 0 -1 0 455.4133)">
			<stop  offset="0" style="stop-color:#1EA3D8"/>
			<stop  offset="1" style="stop-color:#04439E"/>
		</linearGradient>
		<path class="st12" d="M398.4,410.1c0,0-10.6-21.7,7.3-34.4c4-2.6,7.7-5.6,11.1-9c5-5.3,11.7-8.5,18.9-9.3c10.2-1,23.3,0.8,31.2,13
			c0,0,16.2,25.6,6.6,39.7l-19.4,16.6h-23.8l-16.6-1.9c0,0-3.5-2-5.6-2.8C406.1,421.2,398.4,410.1,398.4,410.1z"/>
		
			<linearGradient id="SVGID_14_" gradientUnits="userSpaceOnUse" x1="464.0324" y1="21.1924" x2="252.9059" y2="314.5973" gradientTransform="matrix(1 0 0 -1 0 455.4133)">
			<stop  offset="0" style="stop-color:#FFFFFF;stop-opacity:0"/>
			<stop  offset="0.14" style="stop-color:#F2F8FF;stop-opacity:3.000000e-02"/>
			<stop  offset="0.35" style="stop-color:#CFE6FF;stop-opacity:0.11"/>
			<stop  offset="0.6" style="stop-color:#95C8FF;stop-opacity:0.24"/>
			<stop  offset="0.88" style="stop-color:#459FFF;stop-opacity:0.41"/>
			<stop  offset="1" style="stop-color:#1E8BFF;stop-opacity:0.5"/>
		</linearGradient>
		<path class="st13" d="M398.2,410.1c0,0-10.6-21.7,7.3-34.4c4-2.6,7.7-5.6,11.1-9c5-5.3,11.7-8.5,18.9-9.3c10.2-1,23.3,0.8,31.2,13
			c0,0,16.2,25.6,6.6,39.7l-19.4,16.6h-23.8l-16.6-1.9c0,0-3.5-2-5.6-2.8C405.9,421.2,398.2,410.1,398.2,410.1z"/>
		
			<linearGradient id="SVGID_15_" gradientUnits="userSpaceOnUse" x1="439.3843" y1="-90.9744" x2="506.4572" y2="-612.2408" gradientTransform="matrix(1 0 0 -1 -2.557805e-02 455.4257)">
			<stop  offset="0" style="stop-color:#1E8BD8"/>
			<stop  offset="1" style="stop-color:#FFFFFF"/>
		</linearGradient>
		<polygon class="st14" points="519.5,995.9 508.2,999.1 447.7,784.2 458.9,781 		"/>
		
			<linearGradient id="SVGID_16_" gradientUnits="userSpaceOnUse" x1="359.3075" y1="-101.2676" x2="426.3802" y2="-622.5118" gradientTransform="matrix(1 0 0 -1 7.695959e-03 455.4038)">
			<stop  offset="0" style="stop-color:#1E8BD8"/>
			<stop  offset="1" style="stop-color:#FFFFFF"/>
		</linearGradient>
		<polygon class="st15" points="426.9,781 438.1,784.1 377.6,999.1 366.3,995.9 		"/>
		
			<linearGradient id="SVGID_17_" gradientUnits="userSpaceOnUse" x1="1204.6454" y1="-1358.1763" x2="262.7218" y2="-87.0285" gradientTransform="matrix(1 0 0 -1 0 455.4133)">
			<stop  offset="0" style="stop-color:#1E8BD8"/>
			<stop  offset="1" style="stop-color:#FFFFFF"/>
		</linearGradient>
		<rect x="343.5" y="761.6" class="st16" width="187.7" height="33"/>
		
			<linearGradient id="SVGID_18_" gradientUnits="userSpaceOnUse" x1="-172.4221" y1="-417.8365" x2="-318.3823" y2="-556.0606" gradientTransform="matrix(-1 0 0 -1 226.4998 455.4133)">
			<stop  offset="0" style="stop-color:#F9979C"/>
			<stop  offset="1" style="stop-color:#FBD4BA"/>
		</linearGradient>
		<polygon class="st17" points="528,976.5 525.7,982.1 493.7,982.1 496.4,976.5 508.2,971 		"/>
		
			<linearGradient id="SVGID_19_" gradientUnits="userSpaceOnUse" x1="182.3053" y1="60.0782" x2="909.3341" y2="-930.6316" gradientTransform="matrix(1 0 0 -1 0 455.4133)">
			<stop  offset="0" style="stop-color:#1E8BD8"/>
			<stop  offset="1" style="stop-color:#FFFFFF"/>
		</linearGradient>
		<rect x="372.2" y="716.8" class="st18" width="133.4" height="56.5"/>
		
			<linearGradient id="SVGID_20_" gradientUnits="userSpaceOnUse" x1="481.5094" y1="-417.8419" x2="335.5495" y2="-556.0661" gradientTransform="matrix(1 0 0 -1 0 455.4133)">
			<stop  offset="0" style="stop-color:#F9979C"/>
			<stop  offset="1" style="stop-color:#FBD4BA"/>
		</linearGradient>
		<polygon class="st19" points="352.4,976.5 354.7,982.1 386.7,982.1 384,976.5 372.2,971 		"/>
		
			<linearGradient id="SVGID_21_" gradientUnits="userSpaceOnUse" x1="259.2775" y1="-40.7247" x2="408.6288" y2="-763.6973" gradientTransform="matrix(1 0 0 -1 0 455.4133)">
			<stop  offset="0" style="stop-color:#1C59B0"/>
			<stop  offset="1" style="stop-color:#002861"/>
		</linearGradient>
		<path class="st20" d="M354.7,982.1L354.7,982.1c0,0-0.8,11.1-13,23.9c-4.7,3.5-6.9,9.5-5.6,15.2H389c0,0,11.4-1.1,6.6-17.4
			c-0.8-2.9-1.7-5.8-2.2-8.9c-1.3-4.7-3.6-9.1-6.6-13L354.7,982.1z"/>
		
			<linearGradient id="SVGID_22_" gradientUnits="userSpaceOnUse" x1="160.9776" y1="-649.2315" x2="704.1877" y2="-107.994" gradientTransform="matrix(1 0 0 -1 0 455.4133)">
			<stop  offset="0" style="stop-color:#1C59B0"/>
			<stop  offset="1" style="stop-color:#002861"/>
		</linearGradient>
		<path class="st21" d="M346.3,687.9c0,0-80,27.4-52.6,126.5c0,0,39.6,127.5,50.3,162.1h48.8c0,0-34.3-192.6-29.7-200.9
			c0,0,46.2-2.6,67.1-8.4c5.6-1.6,11.4-2.3,17.2-2.2c3-0.1,5.9,0.5,8.7,1.6c0,0,38.1,9.2,59.8,11.4c0,0-26.3,174.8-27,198.6h44.3
			c0,0,67.8-159,56.3-223.9c0,0-14.5-45-50.3-64.8l-80.8-14.5L346.3,687.9z"/>
		
			<linearGradient id="SVGID_23_" gradientUnits="userSpaceOnUse" x1="448.0194" y1="-465.3822" x2="465.2199" y2="-207.6417" gradientTransform="matrix(1 0 0 -1 0 455.4133)">
			<stop  offset="0" style="stop-color:#1C59B0"/>
			<stop  offset="1" style="stop-color:#002861"/>
		</linearGradient>
		<path class="st22" d="M539.1,687.9H346.3c0,0-7.3,3.1-10,4.7H533c0,0,27.5,8.6,53.6,53C586.7,745.6,570.6,702.9,539.1,687.9z"/>
		
			<linearGradient id="SVGID_24_" gradientUnits="userSpaceOnUse" x1="400.7611" y1="-11.5142" x2="550.1123" y2="-734.4646" gradientTransform="matrix(1 0 0 -1 0 455.4133)">
			<stop  offset="0" style="stop-color:#1C59B0"/>
			<stop  offset="1" style="stop-color:#002861"/>
		</linearGradient>
		<path class="st23" d="M525.7,982.1L525.7,982.1c0,0-2.4,7.6,7.6,18.9c1.8,2,3.8,3.9,5.9,5.7c4.2,3.6,6,9.2,4.8,14.6h-52.8
			c0,0-11.4-1.1-6.6-17.4c0.8-2.9,2.2-6.6,3.3-9.4c2.4-6.1,5.8-11.2,5.9-12.3H525.7z"/>
		
			<linearGradient id="SVGID_25_" gradientUnits="userSpaceOnUse" x1="587.3507" y1="-763.0416" x2="-107.8484" y2="-95.5937" gradientTransform="matrix(1 0 0 -1 0 455.4133)">
			<stop  offset="0" style="stop-color:#FFFFFF;stop-opacity:0"/>
			<stop  offset="0.14" style="stop-color:#F2F8FF;stop-opacity:3.000000e-02"/>
			<stop  offset="0.35" style="stop-color:#CFE6FF;stop-opacity:0.11"/>
			<stop  offset="0.6" style="stop-color:#95C8FF;stop-opacity:0.24"/>
			<stop  offset="0.88" style="stop-color:#459FFF;stop-opacity:0.41"/>
			<stop  offset="1" style="stop-color:#1E8BFF;stop-opacity:0.5"/>
		</linearGradient>
		<path class="st24" d="M354.7,982.1L354.7,982.1c0,0-0.8,11.1-13,23.9c-4.7,3.5-6.9,9.5-5.6,15.2H389c0,0,11.4-1.1,6.6-17.4
			c-0.8-2.9-1.7-5.8-2.2-8.9c-1.3-4.7-3.6-9.1-6.6-13L354.7,982.1z"/>
		
			<linearGradient id="SVGID_26_" gradientUnits="userSpaceOnUse" x1="657.2631" y1="-690.2485" x2="-37.936" y2="-22.7784" gradientTransform="matrix(1 0 0 -1 0 455.4133)">
			<stop  offset="0" style="stop-color:#FFFFFF;stop-opacity:0"/>
			<stop  offset="0.14" style="stop-color:#F2F8FF;stop-opacity:3.000000e-02"/>
			<stop  offset="0.35" style="stop-color:#CFE6FF;stop-opacity:0.11"/>
			<stop  offset="0.6" style="stop-color:#95C8FF;stop-opacity:0.24"/>
			<stop  offset="0.88" style="stop-color:#459FFF;stop-opacity:0.41"/>
			<stop  offset="1" style="stop-color:#1E8BFF;stop-opacity:0.5"/>
		</linearGradient>
		<path class="st25" d="M525.7,982.1L525.7,982.1c0,0-2.4,7.6,7.6,18.9c1.8,2,3.8,3.9,5.9,5.7c4.2,3.6,6,9.2,4.8,14.6h-52.8
			c0,0-11.4-1.1-6.6-17.4c0.8-2.9,2.2-6.6,3.3-9.4c2.4-6.1,5.8-11.2,5.9-12.3H525.7z"/>
		
			<linearGradient id="SVGID_27_" gradientUnits="userSpaceOnUse" x1="528.1182" y1="-125.1481" x2="75.454" y2="-1223.8038" gradientTransform="matrix(1 0 0 -1 0 455.4133)">
			<stop  offset="0" style="stop-color:#FFFFFF;stop-opacity:0"/>
			<stop  offset="0.14" style="stop-color:#F2F8FF;stop-opacity:3.000000e-02"/>
			<stop  offset="0.35" style="stop-color:#CFE6FF;stop-opacity:0.11"/>
			<stop  offset="0.6" style="stop-color:#95C8FF;stop-opacity:0.24"/>
			<stop  offset="0.88" style="stop-color:#459FFF;stop-opacity:0.41"/>
			<stop  offset="1" style="stop-color:#1E8BFF;stop-opacity:0.5"/>
		</linearGradient>
		<path class="st26" d="M346.3,687.9c0,0-80,27.4-52.6,126.5c0,0,39.6,127.5,50.3,162.1h48.8c0,0-34.3-192.6-29.7-200.9
			c0,0,46.2-2.6,67.1-8.4c5.6-1.6,11.4-2.3,17.2-2.2c3-0.1,5.9,0.5,8.7,1.6c0,0,38.1,9.2,59.8,11.4c0,0-26.3,174.8-27,198.6h44.3
			c0,0,67.8-159,56.3-223.9c0,0-14.5-45-50.3-64.8l-80.8-14.5L346.3,687.9z"/>
		
			<linearGradient id="SVGID_28_" gradientUnits="userSpaceOnUse" x1="657.8806" y1="243.0955" x2="870.0268" y2="-131.5903" gradientTransform="matrix(1 0 0 -1 0 455.4133)">
			<stop  offset="0" style="stop-color:#1C59B0"/>
			<stop  offset="1" style="stop-color:#002861"/>
		</linearGradient>
		<path class="st27" d="M787,399.3c0,0,18.9-25.3-2-50.7c-4.8-5.6-10.9-10-17.7-12.9c-9.6-4.1-27.4-15.7-31.8-45.7
			c-2.5-8.8-6.4-17.2-11.5-24.7c-11.3-15.8-32-21.7-49.9-14.1c-14,5.7-30.1,18.2-19.8,44.3l37.1,34.7c0,0,12.2,30.9,14.2,34.8
			c2,3.9,53.4,56.2,53.4,56.2L787,399.3z"/>
		
			<linearGradient id="SVGID_29_" gradientUnits="userSpaceOnUse" x1="632.7887" y1="49.7575" x2="981.0311" y2="341.8325" gradientTransform="matrix(1 0 0 -1 0 455.4133)">
			<stop  offset="0" style="stop-color:#FFFFFF;stop-opacity:0"/>
			<stop  offset="0.14" style="stop-color:#F2F8FF;stop-opacity:3.000000e-02"/>
			<stop  offset="0.35" style="stop-color:#CFE6FF;stop-opacity:0.11"/>
			<stop  offset="0.6" style="stop-color:#95C8FF;stop-opacity:0.24"/>
			<stop  offset="0.88" style="stop-color:#459FFF;stop-opacity:0.41"/>
			<stop  offset="1" style="stop-color:#1E8BFF;stop-opacity:0.5"/>
		</linearGradient>
		<path class="st28" d="M785,348.6c-4.8-5.6-10.9-10-17.7-12.9c-9.6-4.1-27.4-15.7-31.8-45.7c-2.5-8.8-6.4-17.2-11.5-24.7
			c-11.3-15.8-32-21.7-49.9-14.1c-14,5.7-30.1,18.2-19.8,44.3l23.3,21.7c-9.2-3.3-18.6-6.1-18.6-6.1c-0.8,10.6-4.4,20.7-10.7,29.3
			c-4.7,6.5-7.6,14.2-8.4,22.2c-0.8,10.3,0.7,23.6,11.1,33.2l59.6-13.7c0,0-1.9-7-4.4-16.1c6.3,8,52.7,55.3,52.7,55.3l28.2-21.9
			C787,399.4,805.9,374,785,348.6z"/>
		<path class="st29" d="M658.8,311.2c-0.8,10.6-4.4,20.7-10.7,29.3c-4.7,6.5-7.6,14.2-8.4,22.2c-0.8,10.3,0.7,23.6,11.1,33.2
			l59.6-13.7c0,0-14.2-52.5-15.7-56.6C693.3,321.5,658.8,311.2,658.8,311.2z"/>
		
			<linearGradient id="SVGID_30_" gradientUnits="userSpaceOnUse" x1="257.22" y1="206.5182" x2="245.4723" y2="-694.7094" gradientTransform="matrix(1 0 0 -1 0 455.4133)">
			<stop  offset="0" style="stop-color:#1E8BD8"/>
			<stop  offset="1" style="stop-color:#FFFFFF"/>
		</linearGradient>
		<rect x="243.6" y="673.4" class="st30" width="11.7" height="347.2"/>
		
			<linearGradient id="SVGID_31_" gradientUnits="userSpaceOnUse" x1="620.4566" y1="-528.3625" x2="176.9247" y2="2.8118" gradientTransform="matrix(1 0 0 -1 0 455.4133)">
			<stop  offset="0" style="stop-color:#F9979C"/>
			<stop  offset="1" style="stop-color:#FBD4BA"/>
		</linearGradient>
		<path class="st31" d="M301.3,587.5c0,0-20.8,28.5-21.8,36.1l64.5-19L301.3,587.5z"/>
		
			<linearGradient id="SVGID_32_" gradientUnits="userSpaceOnUse" x1="651.0716" y1="152.8441" x2="513.8892" y2="-353.9482" gradientTransform="matrix(1 0 0 -1 0 455.4133)">
			<stop  offset="0" style="stop-color:#F9979C"/>
			<stop  offset="1" style="stop-color:#FBD4BA"/>
		</linearGradient>
		<path class="st32" d="M573.8,595.5c0,0,15.2,29.9,15.7,32.5l-45.2-28.4L573.8,595.5z"/>
		
			<linearGradient id="SVGID_33_" gradientUnits="userSpaceOnUse" x1="331.5705" y1="72.8369" x2="317.85" y2="-79.5732" gradientTransform="matrix(1 0 0 -1 0 455.4133)">
			<stop  offset="0" style="stop-color:#B4402C"/>
			<stop  offset="1" style="stop-color:#D58578"/>
		</linearGradient>
		<path class="st33" d="M298.1,592c7,5.9,14.7,11.1,22.9,15.4l5.5-5.9l-25.2-13.9L298.1,592z"/>
		
			<linearGradient id="SVGID_34_" gradientUnits="userSpaceOnUse" x1="713.7509" y1="23.1913" x2="576.5685" y2="-129.2188" gradientTransform="matrix(1 0 0 -1 0 455.4133)">
			<stop  offset="0" style="stop-color:#B4402C"/>
			<stop  offset="1" style="stop-color:#D58578"/>
		</linearGradient>
		<path class="st34" d="M565.4,605.2c0,0,8.6-2.8,10.6-5.2l-2.2-4.4l-12.6-6.4c0,0-13.9,11.6-14.9,12c-1,0.4-2.2,8.4-2.2,8.4
			l24.1,1.4L565.4,605.2z"/>
		
			<linearGradient id="SVGID_35_" gradientUnits="userSpaceOnUse" x1="2673.2769" y1="-2591.6814" x2="162.2342" y2="186.566" gradientTransform="matrix(1 0 0 -1 0 455.4133)">
			<stop  offset="0" style="stop-color:#1E8BD8"/>
			<stop  offset="1" style="stop-color:#FFFFFF"/>
		</linearGradient>
		<path class="st35" d="M327.9,529.4c-9.7,17.1-22.5,39.9-29.9,53.4c10.1,15.1,25.2,26.1,42.6,31.2c0,0,185.1-1,186,0
			c1,1,3.4-4.9,3.4-4.9s40,0,46.5-18.3c0,0-28.9-63.8-50.7-83.9c0,0-18.3-23.2-62.1-28.2l-45.9,3.9c-9.6-0.1-19.2,0.7-28.6,2.6
			C363.4,490.1,340.9,506.3,327.9,529.4z"/>
		
			<linearGradient id="SVGID_36_" gradientUnits="userSpaceOnUse" x1="1087.2854" y1="-1026.6406" x2="224.4042" y2="-71.9279" gradientTransform="matrix(1 0 0 -1 0 455.4133)">
			<stop  offset="0" style="stop-color:#F9979C"/>
			<stop  offset="1" style="stop-color:#FBD4BA"/>
		</linearGradient>
		<path class="st36" d="M351.4,613.6c-13.1-4.7-26.7-8.1-40.5-10.2c-12.9-1.9-25.7,4.5-31.9,16c0,0.2-0.2,0.4-0.2,0.5
			c-5.1,10.9-1.3,23.8,8.9,30.3l1.7,1.1c5.8,3.3,12.5,5,19.2,4.9h39.2L351.4,613.6z"/>
		
			<linearGradient id="SVGID_37_" gradientUnits="userSpaceOnUse" x1="1267.6307" y1="-965.4557" x2="464.9732" y2="-77.3944" gradientTransform="matrix(1 0 0 -1 0 455.4133)">
			<stop  offset="0" style="stop-color:#F9979C"/>
			<stop  offset="1" style="stop-color:#FBD4BA"/>
		</linearGradient>
		<path class="st37" d="M519.5,612.7c0,0,23.1-8.2,43.2-7.7c11.7,0.1,22.2,7.3,26.4,18.2c4.9,12.4-1.3,26.5-13.7,31.3
			c-3.1,1.2-6.4,1.8-9.7,1.6h-34l-17.2-31.6L519.5,612.7z"/>
		
			<linearGradient id="SVGID_38_" gradientUnits="userSpaceOnUse" x1="376.8652" y1="-59.6373" x2="699.994" y2="-538.2128" gradientTransform="matrix(1 0 0 -1 0 455.4133)">
			<stop  offset="0" style="stop-color:#18DEC3"/>
			<stop  offset="1" style="stop-color:#05A794"/>
		</linearGradient>
		<path class="st38" d="M533.1,548.1v108.2H336.3V548.1c0.1-5.4,4.4-9.7,9.8-9.7h177.2C528.7,538.4,533,542.7,533.1,548.1z"/>
		
			<linearGradient id="SVGID_39_" gradientUnits="userSpaceOnUse" x1="776.9042" y1="205.4148" x2="302.1188" y2="-103.2178" gradientTransform="matrix(1 0 0 -1 0 455.4133)">
			<stop  offset="0" style="stop-color:#F9979C"/>
			<stop  offset="1" style="stop-color:#FBD4BA"/>
		</linearGradient>
		<path class="st39" d="M417.7,448.5c0,0-1.3,21.1-6.6,36.6c0,0-1,6.8,8.7,12.1c11.2,6.1,24.9,5,35-2.7c5.1-3.6,8.4-9.4,8.9-15.6
			c0,0-9.9-21.8-11.4-34.9L417.7,448.5z"/>
		
			<linearGradient id="SVGID_40_" gradientUnits="userSpaceOnUse" x1="785.4619" y1="43.2503" x2="355.3623" y2="-124.188" gradientTransform="matrix(1 0 0 -1 0 455.4133)">
			<stop  offset="0" style="stop-color:#1E8BD8"/>
			<stop  offset="1" style="stop-color:#FFFFFF"/>
		</linearGradient>
		<path class="st40" d="M513.4,503.3c0,0,14.3,5.1,29.3,24.7c-5.8-9.7-12.6-18.8-20.2-27.1C510.7,488.6,513.4,503.3,513.4,503.3z"/>
		
			<linearGradient id="SVGID_41_" gradientUnits="userSpaceOnUse" x1="925.0402" y1="133.8353" x2="212.4855" y2="-143.5439" gradientTransform="matrix(1 0 0 -1 0 455.4133)">
			<stop  offset="0" style="stop-color:#1E8BD8"/>
			<stop  offset="1" style="stop-color:#FFFFFF"/>
		</linearGradient>
		<path class="st41" d="M479.1,484.7c0,0,21,5.5,20.2,11.1c0,0,5.1,0.8,6.1,1s9.1-4.9,9.1-4.9s-6.8-5.7-8.6-5.9
			c-1.7-0.2-24.2-3.8-24.2-3.8L479.1,484.7z"/>
		
			<linearGradient id="SVGID_42_" gradientUnits="userSpaceOnUse" x1="876.582" y1="198.4501" x2="864.8566" y2="-702.7775" gradientTransform="matrix(1 0 0 -1 0 455.4133)">
			<stop  offset="0" style="stop-color:#1E8BD8"/>
			<stop  offset="1" style="stop-color:#FFFFFF"/>
		</linearGradient>
		<rect x="863.1" y="673.4" class="st42" width="11.7" height="347.2"/>
		
			<linearGradient id="SVGID_43_" gradientUnits="userSpaceOnUse" x1="-1070.0642" y1="150.0506" x2="-375.0428" y2="-135.4633" gradientTransform="matrix(-1 0 0 -1 -22.0901 455.4133)">
			<stop  offset="0" style="stop-color:#F9979C"/>
			<stop  offset="1" style="stop-color:#FBD4BA"/>
		</linearGradient>
		<path class="st43" d="M639.5,414.6l-10,85.8l-94.3-6.1c0,0-29.5-17.3-62.1-13.7c0,0-5.1,2,8.1,4.6c0,0,33.5,5.6,23.4,9.1
			c0,0-18.8,3.6,0.5,6.1c0,0,19.8,8.1,33,6.6l107.6,27.4c0,0,17.4-42.7,18.4-44.2c1-1.5-10.2-81.1-10.2-81.1h-14.6L639.5,414.6z"/>
		
			<linearGradient id="SVGID_44_" gradientUnits="userSpaceOnUse" x1="699.0725" y1="121.3348" x2="617.1931" y2="-11.7248" gradientTransform="matrix(1 0 0 -1 0 455.4133)">
			<stop  offset="0" style="stop-color:#B4402C"/>
			<stop  offset="1" style="stop-color:#D58578"/>
		</linearGradient>
		<path class="st44" d="M638.9,420c0,0,6.6,7.9,11.5,9.8l-5.7-16.7h-4.4l-0.8,1.5L638.9,420z"/>
		
			<linearGradient id="SVGID_45_" gradientUnits="userSpaceOnUse" x1="200.4078" y1="-833.0822" x2="-1178.9746" y2="564.564" gradientTransform="matrix(-1 0 0 -1 -22.0901 455.4133)">
			<stop  offset="0" style="stop-color:#1E8BD8"/>
			<stop  offset="1" style="stop-color:#FFFFFF"/>
		</linearGradient>
		<path class="st45" d="M664.3,375c0,0-22.4,12.2-29,31.5c2.5,7.3,7.7,13.5,14.5,17.3L664.3,375z"/>
		
			<linearGradient id="SVGID_46_" gradientUnits="userSpaceOnUse" x1="-964.5759" y1="352.5033" x2="-627.7488" y2="-69.6833" gradientTransform="matrix(-1 0 0 -1 -22.0901 455.4133)">
			<stop  offset="0" style="stop-color:#F9979C"/>
			<stop  offset="1" style="stop-color:#FBD4BA"/>
		</linearGradient>
		<path class="st46" d="M710.7,323.5c0,0,2.8,14.8,25.7,39.4c0,0,22.4,20.6,37.1,28.2c0,0-26.4,25.9-73.7,10.2
			c0,0-31-12.7-35.5-26.4c0,0,21.8-0.3,17.3-19.2L710.7,323.5z"/>
		
			<linearGradient id="SVGID_47_" gradientUnits="userSpaceOnUse" x1="877.24" y1="310.8852" x2="721.3278" y2="137.6617" gradientTransform="matrix(1 0 0 -1 0 455.4133)">
			<stop  offset="0" style="stop-color:#B4402C"/>
			<stop  offset="1" style="stop-color:#D58578"/>
		</linearGradient>
		<path class="st47" d="M713.2,330.4c0.3,0.6-1,18.3-20.5,23.1l14.3-31.4l3.8,1.4L713.2,330.4z"/>
		
			<linearGradient id="SVGID_48_" gradientUnits="userSpaceOnUse" x1="893.011" y1="274.8857" x2="774.8911" y2="-6.3282" gradientTransform="matrix(1 0 0 -1 0 455.4133)">
			<stop  offset="0" style="stop-color:#B4402C"/>
			<stop  offset="1" style="stop-color:#D58578"/>
		</linearGradient>
		<path class="st48" d="M768.8,471.9c0,0,15.4-11.2,31.9-15.2v-13l-45.4,8.3l13.4,14.4L768.8,471.9z"/>
		
			<linearGradient id="SVGID_49_" gradientUnits="userSpaceOnUse" x1="1014.5834" y1="680.8409" x2="502.4714" y2="-151.3633" gradientTransform="matrix(1 0 0 -1 0 455.4133)">
			<stop  offset="0" style="stop-color:#F9979C"/>
			<stop  offset="1" style="stop-color:#FBD4BA"/>
		</linearGradient>
		<path class="st49" d="M703.9,300.8c0,0,13.2-10.6,18.2-1.4c2,3.7,1.5,8.3-1.3,11.5c-2.5,2.9-6,4.7-9.8,5.2c0,0,2,35.5-25.9,39.6
			c0,0-11.7,2.5-20.8-17.7c-1.6-3.7-2.8-7.6-3.5-11.5c-1.5-8.9-3.4-17.6-5.8-26.3c-0.5-1.4-0.8-2.9-0.9-4.4c0,0,19.3-3.1,29,0
			c0,0-1-9.6,1.5-15.2C684.6,280.5,690.7,294.6,703.9,300.8z"/>
		
			<linearGradient id="SVGID_50_" gradientUnits="userSpaceOnUse" x1="255.4192" y1="83.9208" x2="474.9021" y2="-192.461" gradientTransform="matrix(1 0 0 -1 0 455.4133)">
			<stop  offset="0" style="stop-color:#18DEC3"/>
			<stop  offset="1" style="stop-color:#05A794"/>
		</linearGradient>
		<circle class="st50" cx="434.7" cy="597.3" r="14.5"/>
		
			<linearGradient id="SVGID_51_" gradientUnits="userSpaceOnUse" x1="607.6033" y1="-344.7354" x2="106.1528" y2="234.4495" gradientTransform="matrix(1 0 0 -1 0 455.4133)">
			<stop  offset="0" style="stop-color:#FFFFFF;stop-opacity:0"/>
			<stop  offset="1" style="stop-color:#5CFFCC;stop-opacity:0.5"/>
		</linearGradient>
		<path class="st51" d="M523.3,538.4H346.1c-5.4,0-9.8,4.4-9.8,9.8v108.2h196.7V548.2C533.1,542.8,528.7,538.4,523.3,538.4z"/>
		
			<linearGradient id="SVGID_52_" gradientUnits="userSpaceOnUse" x1="578.7479" y1="141.2383" x2="458.3891" y2="7.4916" gradientTransform="matrix(1 0 0 -1 0 455.4133)">
			<stop  offset="0" style="stop-color:#B4402C"/>
			<stop  offset="1" style="stop-color:#D58578"/>
		</linearGradient>
		<path class="st52" d="M455.6,457.2c-7,7.6-16.9,11.6-27.2,11.1c0,0,17.1,7.3,28.8-6L455.6,457.2z"/>
		
			<linearGradient id="SVGID_53_" gradientUnits="userSpaceOnUse" x1="579.976" y1="269.0994" x2="376.9398" y2="-59.859" gradientTransform="matrix(1 0 0 -1 0 455.4133)">
			<stop  offset="0" style="stop-color:#F9979C"/>
			<stop  offset="1" style="stop-color:#FBD4BA"/>
		</linearGradient>
		<path class="st53" d="M411,415.2c0,0,10.7-16.5,23.5-21.5c2.9-1.2,2.7,0,2.7,0s13,20.5,26.2,19.2c0,0,9.4-9.2,10.6-0.6
			c0,0,2.5,18.3-9.4,17c0,0,0.4,20.9-13.2,33c0,0-0.8,0.7-2.1,1.7c-7.1,5.6-16.8,6.7-24.9,2.8l-0.7-0.3
			c-8.9-4.5-15.1-12.9-16.9-22.7c-0.9-5.1-1.4-10.2-1.4-15.3c-6.6-2.1-10.2-9.2-8.1-15.7C397.6,412.7,400.2,398.2,411,415.2z"/>
		
			<linearGradient id="SVGID_54_" gradientUnits="userSpaceOnUse" x1="479.816" y1="765.6428" x2="572.1354" y2="-456.3196" gradientTransform="matrix(1 0 0 -1 0 455.4133)">
			<stop  offset="0" style="stop-color:#1E8BD8"/>
			<stop  offset="1" style="stop-color:#FFFFFF"/>
		</linearGradient>
		<rect x="161.5" y="654.9" class="st54" width="784.9" height="33"/>
		
			<linearGradient id="SVGID_55_" gradientUnits="userSpaceOnUse" x1="1004.2189" y1="-1907.2228" x2="-943.6425" y2="247.9522" gradientTransform="matrix(-1 0 0 -1 -22.0901 455.4133)">
			<stop  offset="0" style="stop-color:#1E8BD8"/>
			<stop  offset="1" style="stop-color:#FFFFFF"/>
		</linearGradient>
		<path class="st55" d="M773.5,391.2c0,0,29.5,5.6,32.5,61.5c0,0-54.9,3.5-69.1,59.8h-77.7c0,0-16.7-63.9-12.7-99.5
			c0,0,7.1-29,17.7-38.1l10.2,3.2c12,3.8,24.3,6.5,36.8,8l0,0c15.3,2,35.5,3.9,51,4.5L773.5,391.2z"/>
	</g>
</g>
<g id="Warstwa_2_2_">
	<g id="_1">
		
			<linearGradient id="SVGID_56_" gradientUnits="userSpaceOnUse" x1="2335.2947" y1="-397.7857" x2="2268.8967" y2="30.7684" gradientTransform="matrix(1 0 0 -1 0 455.4133)">
			<stop  offset="0" style="stop-color:#B4402C"/>
			<stop  offset="1" style="stop-color:#D58578"/>
		</linearGradient>
		<path class="st56" d="M2287.7,539c0,0,4.5,22.5,4.7,22.7l-0.1-0.1l-4.5,0.3l0,0"/>
		
			<linearGradient id="SVGID_57_" gradientUnits="userSpaceOnUse" x1="1974.3461" y1="747.8163" x2="1969.5211" y2="-771.1294" gradientTransform="matrix(1 0 0 -1 0 455.4133)">
			<stop  offset="0" style="stop-color:#1E8BD8"/>
			<stop  offset="1" style="stop-color:#FFFFFF"/>
		</linearGradient>
		<rect x="1963.7" y="586.7" class="st57" width="14.4" height="433.8"/>
		
			<linearGradient id="SVGID_58_" gradientUnits="userSpaceOnUse" x1="1746.4562" y1="482.0908" x2="2144.9341" y2="-326.1604" gradientTransform="matrix(1 0 0 -1 0 455.4133)">
			<stop  offset="0" style="stop-color:#1C59B0"/>
			<stop  offset="1" style="stop-color:#002861"/>
		</linearGradient>
		<path class="st58" d="M2033.4,356.2c-8-0.5-16.1,0.2-23.9,1.9c-26.2,6.7-46.7,27-53.7,53.2c-9,33-21.4,91.4-16.9,151.5h64.6
			c0,0-1.9-29.6-5.2-39.5l-15.4-1.4l10.2-52.6c0,0-4.7,4.7-12.7-24.4L2033.4,356.2z"/>
		
			<linearGradient id="SVGID_59_" gradientUnits="userSpaceOnUse" x1="2127.5754" y1="351.12" x2="2439.5217" y2="-217.2418" gradientTransform="matrix(1 0 0 -1 0 455.4133)">
			<stop  offset="0" style="stop-color:#18DEC3"/>
			<stop  offset="1" style="stop-color:#05A794"/>
		</linearGradient>
		<path class="st59" d="M2336.3,518.1h60.9l0,0v26.9c0,9.4-7.6,17-17,17h-44l0,0L2336.3,518.1L2336.3,518.1z"/>
		
			<linearGradient id="SVGID_60_" gradientUnits="userSpaceOnUse" x1="1732.4115" y1="285.1532" x2="2107.0806" y2="-242.4004" gradientTransform="matrix(1 0 0 -1 0 455.4133)">
			<stop  offset="0" style="stop-color:#1C59B0"/>
			<stop  offset="1" style="stop-color:#002861"/>
		</linearGradient>
		<polygon class="st60" points="1996.2,523 2002.8,561.9 1997.3,561.9 1991.2,522.6 		"/>
		
			<linearGradient id="SVGID_61_" gradientUnits="userSpaceOnUse" x1="2302.271" y1="-74.3736" x2="2484.127" y2="-362.4437" gradientTransform="matrix(1 0 0 -1 0 455.4133)">
			<stop  offset="0" style="stop-color:#18DEC3"/>
			<stop  offset="1" style="stop-color:#05A794"/>
		</linearGradient>
		<ellipse class="st61" cx="2325.5" cy="566.6" rx="26.5" ry="15.7"/>
		
			<linearGradient id="SVGID_62_" gradientUnits="userSpaceOnUse" x1="2462.3118" y1="734.8073" x2="2457.5322" y2="-764.3657" gradientTransform="matrix(1 0 0 -1 0 455.4133)">
			<stop  offset="0" style="stop-color:#1E8BD8"/>
			<stop  offset="1" style="stop-color:#FFFFFF"/>
		</linearGradient>
		<rect x="2451.6" y="592.3" class="st62" width="14.4" height="428.1"/>
		
			<linearGradient id="SVGID_63_" gradientUnits="userSpaceOnUse" x1="2168.2046" y1="518.2535" x2="2219.136" y2="-274.3057" gradientTransform="matrix(1 0 0 -1 0 455.4133)">
			<stop  offset="0" style="stop-color:#1E8BD8"/>
			<stop  offset="1" style="stop-color:#FFFFFF"/>
		</linearGradient>
		<rect x="1897.8" y="561.9" class="st63" width="623.6" height="40.7"/>
		
			<linearGradient id="SVGID_64_" gradientUnits="userSpaceOnUse" x1="1908.1309" y1="-685.0267" x2="2118.2144" y2="-483.9615" gradientTransform="matrix(1 0 0 -1 0 455.4133)">
			<stop  offset="0" style="stop-color:#F9979C"/>
			<stop  offset="1" style="stop-color:#FBD4BA"/>
		</linearGradient>
		<polygon class="st64" points="2047.4,996.4 2047.4,1001 2070.3,1001 2070.3,991.4 2047.4,991.4 		"/>
		
			<linearGradient id="SVGID_65_" gradientUnits="userSpaceOnUse" x1="1859.251" y1="-647.3521" x2="2069.3345" y2="-446.287" gradientTransform="matrix(1 0 0 -1 0 455.4133)">
			<stop  offset="0" style="stop-color:#F9979C"/>
			<stop  offset="1" style="stop-color:#FBD4BA"/>
		</linearGradient>
		<polygon class="st65" points="2005.8,944.8 2001.6,947.9 2017.1,968.5 2025.7,962.1 2010.2,941.4 		"/>
		
			<linearGradient id="SVGID_66_" gradientUnits="userSpaceOnUse" x1="2002.1472" y1="-236.1808" x2="2015.2915" y2="-894.0502" gradientTransform="matrix(1 0 0 -1 0 455.4133)">
			<stop  offset="0" style="stop-color:#1C59B0"/>
			<stop  offset="1" style="stop-color:#002861"/>
		</linearGradient>
		<path class="st66" d="M2020,966.2c-1.3,10.3,1.8,20.7,8.6,28.7c0,0,11.8,15.8,0.4,25.6l-47.1-63.1l22.5-11.9L2020,966.2z"/>
		
			<linearGradient id="SVGID_67_" gradientUnits="userSpaceOnUse" x1="2072.26" y1="-232.482" x2="2085.427" y2="-890.3514" gradientTransform="matrix(1 0 0 -1 0 455.4133)">
			<stop  offset="0" style="stop-color:#1C59B0"/>
			<stop  offset="1" style="stop-color:#002861"/>
		</linearGradient>
		<path class="st67" d="M2070.3,998c6.6,6.8,15.8,10.4,25.3,9.9c0,0,17.3-0.8,18.2,12.6H2044l3.5-22.5L2070.3,998z"/>
		
			<linearGradient id="SVGID_68_" gradientUnits="userSpaceOnUse" x1="1802.4603" y1="-1065.0768" x2="2562.418" y2="1012.4006" gradientTransform="matrix(1 0 0 -1 0 455.4133)">
			<stop  offset="0" style="stop-color:#1EA3D8"/>
			<stop  offset="1" style="stop-color:#04439E"/>
		</linearGradient>
		<path class="st68" d="M2139.7,593.7l-96.5-24.6l-35.6,24.6c0,0-11.9,84.4,26,319.1l-25.7,26.5l17.7,24.6l15.2-8.8
			c0.2,0.9,3.9,36.1,4,37.1h27.1l2.3-63.5l110.7-87.7l0,0c-5.4-83.1-20.3-165.3-44.4-245L2139.7,593.7z M2076.6,867l6.6-172.5
			l39.1,123.5L2076.6,867z"/>
		
			<linearGradient id="SVGID_69_" gradientUnits="userSpaceOnUse" x1="2238.3013" y1="344.6021" x2="1964.7056" y2="-775.8208" gradientTransform="matrix(1 0 0 -1 0 455.4133)">
			<stop  offset="0" style="stop-color:#1EA3D8"/>
			<stop  offset="1" style="stop-color:#04439E"/>
		</linearGradient>
		<polygon class="st69" points="2033.7,912.9 2040.8,955.2 2036.7,957.6 		"/>
		
			<linearGradient id="SVGID_70_" gradientUnits="userSpaceOnUse" x1="2268.7324" y1="345.6236" x2="1992.4313" y2="-785.9146" gradientTransform="matrix(1 0 0 -1 0 455.4133)">
			<stop  offset="0" style="stop-color:#1EA3D8"/>
			<stop  offset="1" style="stop-color:#04439E"/>
		</linearGradient>
		<polygon class="st70" points="2076.5,867 2074.2,928.8 2076.5,926.9 2082.1,860.9 		"/>
		
			<linearGradient id="SVGID_71_" gradientUnits="userSpaceOnUse" x1="1846.6707" y1="-77.6922" x2="2593.5742" y2="-101.5008" gradientTransform="matrix(1 0 0 -1 0 455.4133)">
			<stop  offset="0" style="stop-color:#F9979C"/>
			<stop  offset="1" style="stop-color:#FBD4BA"/>
		</linearGradient>
		<path class="st71" d="M2287.7,539c12.8-6.5,27.6-7.6,41.2-3.1c0,0,13.2,3.8,24.4,18.8c0,0,1.9,3.9-4.8,4.3
			c-3.8,0.2-7.5-0.6-10.8-2.4c-4.3-2.2-9-3.5-13.8-3.7c-5.6,0-11.1,1.5-15.9,4.5c-3,1.8-9.3,4.5-20.3,4.5
			C2287.7,561.9,2275.6,543.5,2287.7,539z"/>
		
			<linearGradient id="SVGID_72_" gradientUnits="userSpaceOnUse" x1="2183.9404" y1="68.9839" x2="1769.4098" y2="-1495.4371" gradientTransform="matrix(1 0 0 -1 0 455.4133)">
			<stop  offset="0" style="stop-color:#FFFFFF;stop-opacity:0"/>
			<stop  offset="0.14" style="stop-color:#F2F8FF;stop-opacity:3.000000e-02"/>
			<stop  offset="0.35" style="stop-color:#CFE6FF;stop-opacity:0.11"/>
			<stop  offset="0.6" style="stop-color:#95C8FF;stop-opacity:0.24"/>
			<stop  offset="0.88" style="stop-color:#459FFF;stop-opacity:0.41"/>
			<stop  offset="1" style="stop-color:#1E8BFF;stop-opacity:0.5"/>
		</linearGradient>
		<path class="st72" d="M2139.7,593.7l-96.5-24.6l-35.6,24.6c0,0-11.9,84.4,26,319.1l-25.7,26.5l17.7,24.6l15.2-8.8
			c0.2,0.9,3.9,36.1,4,37.1h27.1l2.3-63.5l110.7-87.7l0,0c-5.4-83.1-20.3-165.3-44.4-245L2139.7,593.7z M2076.6,867l6.6-172.5
			l39.1,123.5L2076.6,867z"/>
		
			<linearGradient id="SVGID_73_" gradientUnits="userSpaceOnUse" x1="1834.9208" y1="525.6918" x2="2233.4211" y2="-282.5594" gradientTransform="matrix(1 0 0 -1 0 455.4133)">
			<stop  offset="0" style="stop-color:#1C59B0"/>
			<stop  offset="1" style="stop-color:#002861"/>
		</linearGradient>
		<path class="st73" d="M2075.3,354.3c16.8-0.8,33.6,1.3,49.8,6.1l0.6,0.2c16.7,5.1,37.5,27.1,44.1,43.1
			c15,37.6,27.7,76.1,38.1,115.3c0,0,63,11.3,79.9,15.5v27.4h-110.8c0,0-34.4-59.9-44.3-93.2c0,0,5.2,107.6,7.1,125h-132.1
			c0,0-13.6-97.7-30.5-156.5l50.8-80.8L2075.3,354.3z"/>
		
			<linearGradient id="SVGID_74_" gradientUnits="userSpaceOnUse" x1="1564.6818" y1="478.8572" x2="2327.6604" y2="-76.1348" gradientTransform="matrix(1 0 0 -1 0 455.4133)">
			<stop  offset="0" style="stop-color:#F9979C"/>
			<stop  offset="1" style="stop-color:#FBD4BA"/>
		</linearGradient>
		<path class="st74" d="M2034.2,335.1c0,0-1.1,11.9-2,20.9c0,0,27.1,9.9,51.2-2.1c0,0-2.8-5.7-4.5-37.8l-26.6-24.4L2034.2,335.1z"/>
		
			<linearGradient id="SVGID_75_" gradientUnits="userSpaceOnUse" x1="1735.3788" y1="356.1759" x2="2264.1047" y2="64.3632" gradientTransform="matrix(1 0 0 -1 0 455.4133)">
			<stop  offset="0" style="stop-color:#F9979C"/>
			<stop  offset="1" style="stop-color:#FBD4BA"/>
		</linearGradient>
		<path class="st75" d="M2069.2,318.8c0,0,7.4,19.5,25.9,12.8c3.9-1.4,6.7-4.9,7.3-9c1.3-9,2.6-28.3-3.2-56.2
			c0,0-11.5-16.5-14.8-15.6c-3.3,0.8-19.8,16.1-25.2,24.8c-5.4,8.6-6.2,13.5-4.1,23C2057.2,308,2069.2,318.8,2069.2,318.8z"/>
		
			<linearGradient id="SVGID_76_" gradientUnits="userSpaceOnUse" x1="1623.3004" y1="588.4529" x2="3144.0049" y2="-845.0437" gradientTransform="matrix(1 0 0 -1 0 455.4133)">
			<stop  offset="0" style="stop-color:#1EA3D8"/>
			<stop  offset="1" style="stop-color:#04439E"/>
		</linearGradient>
		<path class="st76" d="M2099.2,266.4c0,0-5.6-7.6-10.8,0.7c-1.9,3.1-2.5,6.9-1.8,10.4c1,5.8,1.4,16-6.8,19.7c0,0-1.9-12.9-9-9
			c-2.2,1.3-3.7,3.3-4.4,5.8c-1.3,4.6-2.9,13.5,3,17.6c0,0,0.8,28.4-17.7,28.8c0,0-13.5,1.2-17.7-5.3c-0.7-4.4-1.7-8.8-3.2-13.1
			c-1.4-4-3-7.9-5-11.7c-4.1-8.3-13.2-31.6,1.7-53.4c0,0,5.7-14,28.8-16.9c0,0,18.4-3.6,23.8-7.9c1.7-1.4,3.7-2.4,5.8-2.8
			c4.8-0.7,12.2,0,14.8,9.7c0.7,2.8,1.5,5.5,2.5,8.1C2106.1,253.9,2104.4,261.5,2099.2,266.4z"/>
		
			<linearGradient id="SVGID_77_" gradientUnits="userSpaceOnUse" x1="2363.594" y1="53.7506" x2="3260.1802" y2="-904.8823" gradientTransform="matrix(1 0 0 -1 0 455.4133)">
			<stop  offset="0" style="stop-color:#18DEC3"/>
			<stop  offset="1" style="stop-color:#05A794"/>
		</linearGradient>
		<path class="st77" d="M2521.2,356.8L2501,484.9h-267.8l21.1-133.3c1.3-8,8.2-13.9,16.3-13.9H2505c9.1,0,16.5,7.5,16.4,16.6
			C2521.4,355.1,2521.4,356,2521.2,356.8z"/>
		
			<linearGradient id="SVGID_78_" gradientUnits="userSpaceOnUse" x1="3060.8538" y1="-1091.9139" x2="2307.1187" y2="154.2705" gradientTransform="matrix(1 0 0 -1 0 455.4133)">
			<stop  offset="0" style="stop-color:#1E8BD8"/>
			<stop  offset="1" style="stop-color:#FFFFFF"/>
		</linearGradient>
		<path class="st78" d="M2248.7,484.9l18.7-131.2c0.3-1.6,1.6-2.7,3.2-2.7H2505c0.9,0,1.8,0.4,2.4,1.1c0.6,0.7,0.9,1.6,0.7,2.6
			l-21.1,130.2H2248.7z"/>
		
			<linearGradient id="SVGID_79_" gradientUnits="userSpaceOnUse" x1="2317.4866" y1="10.618" x2="3214.073" y2="-947.9923" gradientTransform="matrix(1 0 0 -1 0 455.4133)">
			<stop  offset="0" style="stop-color:#18DEC3"/>
			<stop  offset="1" style="stop-color:#05A794"/>
		</linearGradient>
		<path class="st79" d="M2501,484.9l-3,19.3c-1.3,8-8.2,13.9-16.3,13.9h-234.3c-9.1,0-16.5-7.4-16.5-16.5c0-0.9,0.1-1.7,0.2-2.6
			l2.3-14L2501,484.9z"/>
		
			<linearGradient id="SVGID_80_" gradientUnits="userSpaceOnUse" x1="1946.2098" y1="224.906" x2="2198.0259" y2="36.4666" gradientTransform="matrix(1 0 0 -1 0 455.4133)">
			<stop  offset="0" style="stop-color:#B4402C"/>
			<stop  offset="1" style="stop-color:#D58578"/>
		</linearGradient>
		<path class="st80" d="M2079.9,331.1c0,0-8.8-4.7-10.7-12.3l-1.2,6.2C2067.9,324.9,2073.4,331,2079.9,331.1z"/>
		
			<linearGradient id="SVGID_81_" gradientUnits="userSpaceOnUse" x1="1892.506" y1="315.1819" x2="2068.6128" y2="133.5965" gradientTransform="matrix(1 0 0 -1 0 455.4133)">
			<stop  offset="0" style="stop-color:#B4402C"/>
			<stop  offset="1" style="stop-color:#D58578"/>
		</linearGradient>
		<path class="st81" d="M2079.8,331.2c0,0-8.7-4.8-10.6-12.5l-1.3,6.1C2067.9,324.8,2073.3,331,2079.8,331.2z"/>
		
			<linearGradient id="SVGID_82_" gradientUnits="userSpaceOnUse" x1="1821.4146" y1="130.6831" x2="2056.3887" y2="-91.1243" gradientTransform="matrix(1 0 0 -1 0 455.4133)">
			<stop  offset="0" style="stop-color:#1C59B0"/>
			<stop  offset="1" style="stop-color:#002861"/>
		</linearGradient>
		<polygon class="st82" points="1989.4,488.2 1983,459.4 1987.3,499.1 		"/>
		
			<linearGradient id="SVGID_83_" gradientUnits="userSpaceOnUse" x1="2354.908" y1="-336.396" x2="2287.2473" y2="-93.3052" gradientTransform="matrix(1 0 0 -1 0 455.4133)">
			<stop  offset="0" style="stop-color:#B4402C"/>
			<stop  offset="1" style="stop-color:#D58578"/>
		</linearGradient>
		<polygon class="st83" points="2287.7,539 2287.7,561.9 2292.5,561.7 		"/>
		
			<linearGradient id="SVGID_84_" gradientUnits="userSpaceOnUse" x1="2209.1377" y1="-173.2144" x2="1632.073" y2="388.7894" gradientTransform="matrix(1 0 0 -1 0 455.4133)">
			<stop  offset="0" style="stop-color:#FFFFFF;stop-opacity:0"/>
			<stop  offset="0.14" style="stop-color:#F2F8FF;stop-opacity:3.000000e-02"/>
			<stop  offset="0.35" style="stop-color:#CFE6FF;stop-opacity:0.11"/>
			<stop  offset="0.6" style="stop-color:#95C8FF;stop-opacity:0.24"/>
			<stop  offset="0.88" style="stop-color:#459FFF;stop-opacity:0.41"/>
			<stop  offset="1" style="stop-color:#1E8BFF;stop-opacity:0.5"/>
		</linearGradient>
		<path class="st84" d="M2207.9,517.6c-10.3-39.2-23.1-77.7-38.1-115.3c-6.6-16.1-27.5-38-44.1-43.1l-0.6-0.2
			c-16.1-4.8-32.9-6.9-49.8-6.1l-41.9,1.8l0,0c-8-0.5-16.1,0.2-23.9,1.9c-26.2,6.7-46.8,27-53.7,53.1c-9,33-21.4,91.4-16.9,151.5
			h64.1c3,18.6,4.7,31,4.7,31h132.1c-1.9-17.4-7.1-125-7.1-125c9.9,33.4,44.3,93.2,44.3,93.2h110.8v-27.4
			C2270.8,528.9,2207.9,517.6,2207.9,517.6z M1982.9,520.4l6.5-33.6c2.4,11.7,4.7,23.5,6.8,34.8L1982.9,520.4z"/>
		
			<linearGradient id="SVGID_85_" gradientUnits="userSpaceOnUse" x1="2093.0857" y1="-595.3942" x2="1733.6125" y2="-275.8499" gradientTransform="matrix(1 0 0 -1 0 455.4133)">
			<stop  offset="0" style="stop-color:#FFFFFF;stop-opacity:0"/>
			<stop  offset="0.14" style="stop-color:#F2F8FF;stop-opacity:3.000000e-02"/>
			<stop  offset="0.35" style="stop-color:#CFE6FF;stop-opacity:0.11"/>
			<stop  offset="0.6" style="stop-color:#95C8FF;stop-opacity:0.24"/>
			<stop  offset="0.88" style="stop-color:#459FFF;stop-opacity:0.41"/>
			<stop  offset="1" style="stop-color:#1E8BFF;stop-opacity:0.5"/>
		</linearGradient>
		<path class="st85" d="M2020,966.2c-1.3,10.3,1.8,20.7,8.6,28.7c0,0,11.8,15.8,0.4,25.6l-47.1-63.1l22.5-11.9L2020,966.2z"/>
		
			<linearGradient id="SVGID_86_" gradientUnits="userSpaceOnUse" x1="2106.4141" y1="-587.1159" x2="1746.9182" y2="-267.5942" gradientTransform="matrix(1 0 0 -1 0 455.4133)">
			<stop  offset="0" style="stop-color:#FFFFFF;stop-opacity:0"/>
			<stop  offset="0.14" style="stop-color:#F2F8FF;stop-opacity:3.000000e-02"/>
			<stop  offset="0.35" style="stop-color:#CFE6FF;stop-opacity:0.11"/>
			<stop  offset="0.6" style="stop-color:#95C8FF;stop-opacity:0.24"/>
			<stop  offset="0.88" style="stop-color:#459FFF;stop-opacity:0.41"/>
			<stop  offset="1" style="stop-color:#1E8BFF;stop-opacity:0.5"/>
		</linearGradient>
		<path class="st86" d="M2070.3,998c6.6,6.8,15.8,10.4,25.3,9.9c0,0,17.3-0.8,18.2,12.6H2044l3.5-22.5L2070.3,998z"/>
		
			<linearGradient id="SVGID_87_" gradientUnits="userSpaceOnUse" x1="2105.0383" y1="131.5809" x2="1695.265" y2="546.9681" gradientTransform="matrix(1 0 0 -1 0 455.4133)">
			<stop  offset="0" style="stop-color:#FFFFFF;stop-opacity:0"/>
			<stop  offset="0.14" style="stop-color:#F2F8FF;stop-opacity:3.000000e-02"/>
			<stop  offset="0.35" style="stop-color:#CFE6FF;stop-opacity:0.11"/>
			<stop  offset="0.6" style="stop-color:#95C8FF;stop-opacity:0.24"/>
			<stop  offset="0.88" style="stop-color:#459FFF;stop-opacity:0.41"/>
			<stop  offset="1" style="stop-color:#1E8BFF;stop-opacity:0.5"/>
		</linearGradient>
		<path class="st87" d="M2099.2,266.4c0,0-5.6-7.6-10.8,0.7c-1.9,3.1-2.5,6.9-1.8,10.4c1,5.8,1.4,16-6.8,19.7c0,0-1.9-12.9-9-9
			c-2.2,1.3-3.7,3.3-4.4,5.8c-1.3,4.6-2.9,13.5,3,17.6c0,0,0.8,28.4-17.7,28.8c0,0-13.5,1.2-17.7-5.3c-0.7-4.4-1.7-8.8-3.2-13.1
			c-1.4-4-3-7.9-5-11.7c-4.1-8.3-13.2-31.6,1.7-53.4c0,0,5.7-14,28.8-16.9c0,0,18.4-3.6,23.8-7.9c1.7-1.4,3.7-2.4,5.8-2.8
			c4.8-0.7,12.2,0,14.8,9.7c0.7,2.8,1.5,5.5,2.5,8.1C2106.1,253.9,2104.4,261.5,2099.2,266.4z"/>
	</g>
</g>
</svg>
