<?xml version="1.0" encoding="utf-8"?>
<!-- Generator: Adobe Illustrator 23.1.0, SVG Export Plug-In . SVG Version: 6.00 Build 0)  -->
<svg version="1.1" id="Warstwa_1" xmlns="http://www.w3.org/2000/svg" xmlns:xlink="http://www.w3.org/1999/xlink" x="0px" y="0px"
	 viewBox="0 0 274.7 307.1" style="enable-background:new 0 0 274.7 307.1;" xml:space="preserve">
<style type="text/css">
	.st0{fill:url(#SVGID_1_);}
	.st1{fill:url(#SVGID_2_);}
	.st2{fill:url(#SVGID_3_);}
	.st3{fill:url(#SVGID_4_);}
	.st4{fill:url(#SVGID_5_);}
	.st5{fill:url(#SVGID_6_);}
	.st6{fill:url(#SVGID_7_);}
	.st7{fill:url(#SVGID_8_);}
	.st8{opacity:0.65;fill:url(#SVGID_9_);enable-background:new    ;}
	.st9{fill:url(#SVGID_10_);}
	.st10{fill:url(#SVGID_11_);}
	.st11{fill:url(#SVGID_12_);}
	.st12{fill:url(#SVGID_13_);}
	.st13{fill:url(#SVGID_14_);}
	.st14{fill:url(#SVGID_15_);}
	.st15{fill:url(#SVGID_16_);}
	.st16{fill:url(#SVGID_17_);}
	.st17{fill:url(#SVGID_18_);}
	.st18{fill:url(#SVGID_19_);}
	.st19{fill:url(#SVGID_20_);}
	.st20{fill:url(#SVGID_21_);}
	.st21{fill:url(#SVGID_22_);}
	.st22{fill:url(#SVGID_23_);}
	.st23{fill:url(#SVGID_24_);}
	.st24{fill:url(#SVGID_25_);}
	.st25{fill:url(#SVGID_26_);}
	.st26{fill:url(#SVGID_27_);}
	.st27{fill:url(#SVGID_28_);}
	.st28{fill:url(#SVGID_29_);}
	.st29{fill:url(#SVGID_30_);}
	.st30{fill:url(#SVGID_31_);}
	.st31{fill:url(#SVGID_32_);}
	.st32{fill:url(#SVGID_33_);}
	.st33{fill:url(#SVGID_34_);}
	.st34{fill:url(#SVGID_35_);}
	.st35{fill:url(#SVGID_36_);}
	.st36{fill:url(#SVGID_37_);}
	.st37{fill:url(#SVGID_38_);}
	.st38{fill:url(#SVGID_39_);}
	.st39{fill:url(#SVGID_40_);}
	.st40{fill:url(#SVGID_41_);}
	.st41{fill:url(#SVGID_42_);}
	.st42{fill:url(#SVGID_43_);}
</style>
<g id="Warstwa_3">
</g>
<g>
	<title>Illustration 4 - Students_1</title>
	<g>
		<g id="stage_1">
			
				<linearGradient id="SVGID_1_" gradientUnits="userSpaceOnUse" x1="-80.0566" y1="1357.6899" x2="101.6955" y2="1154.66" gradientTransform="matrix(1 0 0 1 0 -1023.32)">
				<stop  offset="0" style="stop-color:#1E8BD8"/>
				<stop  offset="1" style="stop-color:#FFFFFF"/>
			</linearGradient>
			<path class="st0" d="M58.9,250c0,0-8.1,0-9.7-6.8c-0.2-0.9-0.4-1.7-0.4-2.6V127.9c0,0-0.5-10.5,7.8-16.4l144.6-81
				c0,0,7.2-2.2,12.1,3.6L58.9,250z"/>
			
				<linearGradient id="SVGID_2_" gradientUnits="userSpaceOnUse" x1="-52.0693" y1="1754.2437" x2="147.0901" y2="1125.8206" gradientTransform="matrix(1 0 0 1 0 -1023.32)">
				<stop  offset="0" style="stop-color:#1E8BD8"/>
				<stop  offset="1" style="stop-color:#FFFFFF"/>
			</linearGradient>
			<path class="st1" d="M214.7,39v116.5c-0.6,7.2-6.5,12.2-6.5,12.2L77.2,241l-15,8.4c-4.1,1.5-6-0.3-7-2c-0.5-1.1-0.9-2.3-0.8-3.6
				V132.5c0-14.5,7.7-17.7,7.7-17.7l131.6-74l12.7-7.1C215.1,29.7,214.7,39,214.7,39z"/>
			
				<linearGradient id="SVGID_3_" gradientUnits="userSpaceOnUse" x1="291.5222" y1="864.182" x2="55.6216" y2="1234.7878" gradientTransform="matrix(1 0 0 1 0 -1023.32)">
				<stop  offset="0" style="stop-color:#1EA3D8"/>
				<stop  offset="1" style="stop-color:#04439E"/>
			</linearGradient>
			<path class="st2" d="M214.7,39v12L70.5,131.7l-16.2,9.1v-8.4c0-14.5,7.7-17.7,7.7-17.7l131.5-74l12.7-7.1
				C215.1,29.7,214.7,39,214.7,39z"/>
			
				<linearGradient id="SVGID_4_" gradientUnits="userSpaceOnUse" x1="434.2152" y1="787.321" x2="64.6265" y2="1168.1605" gradientTransform="matrix(1 0 0 1 0 -1023.32)">
				<stop  offset="0" style="stop-color:#1EA3D8"/>
				<stop  offset="1" style="stop-color:#04439E"/>
			</linearGradient>
			<path class="st3" d="M213.2,33.9c-1.2-1.3-3.2-1.8-6.9-0.2l-12.7,7.1L61.8,114.9c0,0-7.7,3.2-7.7,17.7v8.4
				c-0.5-0.1-2.7-0.5-5.5-1.3V128c0,0-0.5-10.6,7.8-16.4L201,30.5C201.2,30.6,208.2,28.4,213.2,33.9z"/>
			
				<linearGradient id="SVGID_5_" gradientUnits="userSpaceOnUse" x1="140.0889" y1="1900.908" x2="183.9135" y2="1762.9806" gradientTransform="matrix(0.7123 -0.7104 0.3142 1.1024 -414.1117 -443.9051)">
				<stop  offset="0" style="stop-color:#1ED8D8"/>
				<stop  offset="1" style="stop-color:#FFFFFF"/>
			</linearGradient>
			<path class="st4" d="M181.5,57.7c0.4-2.4,1.7-4.2,3.2-4.1s2.3,2.3,2,4.8c-0.4,2.4-1.7,4.2-3.2,4.1
				C182,62.3,181.1,60.1,181.5,57.7z"/>
			
				<linearGradient id="SVGID_6_" gradientUnits="userSpaceOnUse" x1="217.7988" y1="1186.0121" x2="79.8713" y2="1135.0857" gradientTransform="matrix(1 0 0 1 0 -1023.32)">
				<stop  offset="0" style="stop-color:#FFFFFF;stop-opacity:0"/>
				<stop  offset="0.14" style="stop-color:#F2F8FF;stop-opacity:3.000000e-02"/>
				<stop  offset="0.35" style="stop-color:#CFE6FF;stop-opacity:0.11"/>
				<stop  offset="0.6" style="stop-color:#95C8FF;stop-opacity:0.24"/>
				<stop  offset="0.88" style="stop-color:#459FFF;stop-opacity:0.41"/>
				<stop  offset="1" style="stop-color:#1E8BFF;stop-opacity:0.5"/>
			</linearGradient>
			<path class="st5" d="M214.4,39v116.5c-0.6,7.2-6.5,12.2-6.5,12.2l-129,72.2L200.4,30.8l0.5-0.4c0,0,6.8-2.1,11.8,3.2
				C214.6,35.6,214.4,39,214.4,39z"/>
			
				<linearGradient id="SVGID_7_" gradientUnits="userSpaceOnUse" x1="154.108" y1="1904.1276" x2="197.9326" y2="1766.2001" gradientTransform="matrix(0.7123 -0.7104 0.3142 1.1024 -414.1101 -443.9066)">
				<stop  offset="0" style="stop-color:#1ED8D8"/>
				<stop  offset="1" style="stop-color:#FFFFFF"/>
			</linearGradient>
			<path class="st6" d="M192.5,51.3c0.4-2.4,1.7-4.2,3.2-4.1s2.3,2.3,2,4.8c-0.3,2.4-1.7,4.2-3.2,4.1S192.1,53.7,192.5,51.3z"/>
			
				<linearGradient id="SVGID_8_" gradientUnits="userSpaceOnUse" x1="174.2894" y1="1046.2184" x2="434.6719" y2="1230.5538" gradientTransform="matrix(1 0 0 1 1.414751e-02 -1023.3375)">
				<stop  offset="0" style="stop-color:#18DEC3"/>
				<stop  offset="1" style="stop-color:#05A794"/>
			</linearGradient>
			<path class="st7" d="M203.1,44.8c0.4-2.4,1.7-4.2,3.2-4.1s2.3,2.3,2,4.8c-0.4,2.4-1.7,4.2-3.2,4.1
				C203.6,49.3,202.7,47.1,203.1,44.8z"/>
			
				<linearGradient id="SVGID_9_" gradientUnits="userSpaceOnUse" x1="44.2535" y1="1327.025" x2="227.7427" y2="984.2675" gradientTransform="matrix(1 0 0 1 0 -1023.32)">
				<stop  offset="0" style="stop-color:#FFFFFF;stop-opacity:0"/>
				<stop  offset="0.14" style="stop-color:#F2F8FF;stop-opacity:3.000000e-02"/>
				<stop  offset="0.35" style="stop-color:#CFE6FF;stop-opacity:0.11"/>
				<stop  offset="0.6" style="stop-color:#95C8FF;stop-opacity:0.24"/>
				<stop  offset="0.88" style="stop-color:#459FFF;stop-opacity:0.41"/>
				<stop  offset="1" style="stop-color:#1E8BFF;stop-opacity:0.5"/>
			</linearGradient>
			<path class="st8" d="M214.3,36.1c-0.3-0.9-0.7-1.7-1.4-2.3c-2.6-2.8-6.4-4.1-10.2-3.6c-0.6,0.1-1.3,0.2-1.9,0.3l-0.5,0.4
				l-0.1,0.2L56.6,111.5c-7.4,5.1-7.8,14-7.8,16v0.2c0,0.1,0,0.2,0,0.3v112.6c0,0.9,0.1,1.8,0.4,2.6c1.6,6.8,9.7,6.8,9.7,6.8l0,0
				c1.1,0.1,2.3-0.1,3.3-0.5l15-8.4l131.1-73.4c0,0,5.9-5,6.5-12.2V39C214.8,38,214.6,37,214.3,36.1z"/>
		</g>
	</g>
	<g id="stage_2">
		
			<linearGradient id="SVGID_10_" gradientUnits="userSpaceOnUse" x1="-94.0281" y1="1111.2808" x2="44.9164" y2="1210.6129" gradientTransform="matrix(1 0 0 1 0 -1023.32)">
			<stop  offset="0" style="stop-color:#18DEC3"/>
			<stop  offset="1" style="stop-color:#05A794"/>
		</linearGradient>
		<path class="st9" d="M56.7,211.9c0,0,8.6,1.3,13.7-11.6c1.2-3.4,1.4-7.1,0.7-10.6l3.6-1.2c0,0,6.3,7.1,5.9,8.1
			c-0.5,1-3.7,7.7-4.4,8.8s-2.7,5.1-4.7,6.6c-2,1.4-4.7,4.3-6.5,4.9c-1.9,0.5-4,0.6-5.9,0.2c-1.8-0.4-3.9-2.7-3.9-2.7L56.7,211.9z"
			/>
		
			<linearGradient id="SVGID_11_" gradientUnits="userSpaceOnUse" x1="-49.8276" y1="1128.7015" x2="277.4215" y2="1413.9803" gradientTransform="matrix(1 0 0 1 0 -1023.32)">
			<stop  offset="0" style="stop-color:#18DEC3"/>
			<stop  offset="1" style="stop-color:#05A794"/>
		</linearGradient>
		<polygon class="st10" points="48.9,180.6 44.1,178.4 35.6,190.7 40.1,193.6 		"/>
		
			<linearGradient id="SVGID_12_" gradientUnits="userSpaceOnUse" x1="-30.3564" y1="1106.365" x2="296.8928" y2="1391.6438" gradientTransform="matrix(1 0 0 1 0 -1023.32)">
			<stop  offset="0" style="stop-color:#18DEC3"/>
			<stop  offset="1" style="stop-color:#05A794"/>
		</linearGradient>
		<path class="st11" d="M60,170.1l-4.1-3c0,0,6.8-4.5,11.2-5.8l5,2.2L60,170.1z"/>
		
			<linearGradient id="SVGID_13_" gradientUnits="userSpaceOnUse" x1="-19.3017" y1="1093.6837" x2="307.9475" y2="1378.9624" gradientTransform="matrix(1 0 0 1 0 -1023.32)">
			<stop  offset="0" style="stop-color:#18DEC3"/>
			<stop  offset="1" style="stop-color:#05A794"/>
		</linearGradient>
		<path class="st12" d="M83.1,161.4l-4.4-2.6c0,0,4.3,0.3,6.2,1.3c2.5,1.2,4.9,2.5,7,4.2L83.1,161.4z"/>
		
			<linearGradient id="SVGID_14_" gradientUnits="userSpaceOnUse" x1="-71.0222" y1="1079.1085" x2="67.9223" y2="1178.4408" gradientTransform="matrix(1 0 0 1 0 -1023.32)">
			<stop  offset="0" style="stop-color:#18DEC3"/>
			<stop  offset="1" style="stop-color:#05A794"/>
		</linearGradient>
		<path class="st13" d="M90.4,171.3l3.3-1.7c0,0,2.3,1.3,4.4,2.2l-3.2,4l-3.5,1l-2.6-4.6L90.4,171.3z"/>
		
			<linearGradient id="SVGID_15_" gradientUnits="userSpaceOnUse" x1="-106.3862" y1="1128.5713" x2="32.5583" y2="1227.9034" gradientTransform="matrix(1 0 0 1 0 -1023.32)">
			<stop  offset="0" style="stop-color:#18DEC3"/>
			<stop  offset="1" style="stop-color:#05A794"/>
		</linearGradient>
		<polygon class="st14" points="68.5,231.4 72.4,233.8 69.4,229.8 67.9,230.9 		"/>
		
			<linearGradient id="SVGID_16_" gradientUnits="userSpaceOnUse" x1="-116.6822" y1="1142.9824" x2="22.2622" y2="1242.3055" gradientTransform="matrix(1 0 0 1 0 -1023.32)">
			<stop  offset="0" style="stop-color:#18DEC3"/>
			<stop  offset="1" style="stop-color:#05A794"/>
		</linearGradient>
		<path class="st15" d="M45.3,234.9l-0.5,5.3c0,0,2.8,2.2,4.8,2.3l2.4-5.4l-1.3-2.9c-1.2-0.4-2.4-0.5-3.6-0.4
			C45.2,234,45.3,234.9,45.3,234.9z"/>
		
			<linearGradient id="SVGID_17_" gradientUnits="userSpaceOnUse" x1="-119.9543" y1="1147.5505" x2="18.9902" y2="1246.8828" gradientTransform="matrix(1 0 0 1 0 -1023.32)">
			<stop  offset="0" style="stop-color:#18DEC3"/>
			<stop  offset="1" style="stop-color:#05A794"/>
		</linearGradient>
		<path class="st16" d="M39.8,239.7c0,0-7.1-3-10.4-9.4l4.6,2.2L39.8,239.7z"/>
		
			<linearGradient id="SVGID_18_" gradientUnits="userSpaceOnUse" x1="-2.795" y1="1146.4781" x2="113.9807" y2="1255.2701" gradientTransform="matrix(1 0 0 1 0 -1023.32)">
			<stop  offset="0" style="stop-color:#18DEC3"/>
			<stop  offset="1" style="stop-color:#05A794"/>
		</linearGradient>
		<path class="st17" d="M44.1,178.4l4.9,1.3c1.7-2,3.6-3.8,5.6-5.6c0,0,0.9-6.1,1.4-6.9l4.1,3l0.5,7.5l-5.8,5.3l-3.4,1.4l-2.4-3.6
			L44.1,178.4z"/>
		
			<linearGradient id="SVGID_19_" gradientUnits="userSpaceOnUse" x1="13.2771" y1="1129.2277" x2="130.0528" y2="1238.0197" gradientTransform="matrix(1 0 0 1 0 -1023.32)">
			<stop  offset="0" style="stop-color:#18DEC3"/>
			<stop  offset="1" style="stop-color:#05A794"/>
		</linearGradient>
		<path class="st18" d="M72.7,165.2c0.7-0.2,1.4-0.3,2.1-0.4l4-6.1l4.4,2.6l-1.3,5.3c0,0-2.4,5.1-3.2,5c-0.8-0.1-7.2-1.7-7.2-1.7
			v-1.6L72.7,165.2z"/>
		
			<linearGradient id="SVGID_20_" gradientUnits="userSpaceOnUse" x1="-102.8737" y1="1123.6592" x2="36.0708" y2="1222.9913" gradientTransform="matrix(1 0 0 1 0 -1023.32)">
			<stop  offset="0" style="stop-color:#18DEC3"/>
			<stop  offset="1" style="stop-color:#05A794"/>
		</linearGradient>
		<path class="st19" d="M35.6,190.7l2.6,4.1c0,0-2.3,4.5-2.6,6.9c0,0-6.5,4-6.2,4.1S34,208,34,208l6.7-2.8l5.9-8.9l-6.4-2.6
			L35.6,190.7z"/>
		
			<linearGradient id="SVGID_21_" gradientUnits="userSpaceOnUse" x1="-68.3026" y1="1149.8864" x2="258.9556" y2="1435.165" gradientTransform="matrix(1 0 0 1 0 -1023.32)">
			<stop  offset="0" style="stop-color:#18DEC3"/>
			<stop  offset="1" style="stop-color:#05A794"/>
		</linearGradient>
		<path class="st20" d="M29.4,205.7c-1.2,4.1-1.7,8.3-1.7,12.5l4.5,2.3l1.8-12.7L29.4,205.7z"/>
		
			<linearGradient id="SVGID_22_" gradientUnits="userSpaceOnUse" x1="-35.6261" y1="1181.719" x2="81.1496" y2="1290.511" gradientTransform="matrix(1 0 0 1 0 -1023.32)">
			<stop  offset="0" style="stop-color:#18DEC3"/>
			<stop  offset="1" style="stop-color:#05A794"/>
		</linearGradient>
		<path class="st21" d="M29.4,230.4c0,0,3-4.8,4.6-6.6c-0.4-1.1-0.5-2.2-0.7-3.2c0.1-0.4,0.4-2.7,0.4-2.7h6.8
			c0.4,1.7,0.6,3.5,0.7,5.3c0.3,3.5,1.3,4.8-1,6.4c-1.5,1.1-3.3,1.9-5.1,2.3l-1.1,0.6L29.4,230.4z"/>
		
			<linearGradient id="SVGID_23_" gradientUnits="userSpaceOnUse" x1="-50.69" y1="1050.6704" x2="88.2546" y2="1150.0026" gradientTransform="matrix(1 0 0 1 0 -1023.32)">
			<stop  offset="0" style="stop-color:#18DEC3"/>
			<stop  offset="1" style="stop-color:#05A794"/>
		</linearGradient>
		<path class="st22" d="M107,153.1c0,0,6.9,1,11.1-9.4c1-2.8,1.2-5.8,0.5-8.6l2.9-0.9c0,0,5.1,5.8,4.7,6.6c-0.5,0.8-3,6.1-3.5,7.1
			s-2.2,4.1-3.8,5.3c-1.6,1.1-3.8,3.4-5.2,4c-1.5,0.5-3.2,0.5-4.8,0.2c-1.4-0.4-3.2-2.2-3.2-2.2L107,153.1z"/>
		
			<linearGradient id="SVGID_24_" gradientUnits="userSpaceOnUse" x1="-0.3047" y1="1071.8855" x2="326.9535" y2="1357.1643" gradientTransform="matrix(1 0 0 1 0 -1023.32)">
			<stop  offset="0" style="stop-color:#18DEC3"/>
			<stop  offset="1" style="stop-color:#05A794"/>
		</linearGradient>
		<polygon class="st23" points="100.7,127.9 96.9,126 90,136 93.6,138.3 		"/>
		
			<linearGradient id="SVGID_25_" gradientUnits="userSpaceOnUse" x1="15.4476" y1="1053.8184" x2="342.7058" y2="1339.0972" gradientTransform="matrix(1 0 0 1 0 -1023.32)">
			<stop  offset="0" style="stop-color:#18DEC3"/>
			<stop  offset="1" style="stop-color:#05A794"/>
		</linearGradient>
		<path class="st24" d="M109.6,119.3l-3.2-2.4c0,0,5.5-3.6,9-4.6l4,1.7L109.6,119.3z"/>
		
			<linearGradient id="SVGID_26_" gradientUnits="userSpaceOnUse" x1="24.3397" y1="1043.6173" x2="351.5889" y2="1328.896" gradientTransform="matrix(1 0 0 1 0 -1023.32)">
			<stop  offset="0" style="stop-color:#18DEC3"/>
			<stop  offset="1" style="stop-color:#05A794"/>
		</linearGradient>
		<path class="st25" d="M128.3,112.3l-3.6-2.1c0,0,3.4,0.3,5,1.1c2.1,0.9,4,2.1,5.7,3.4L128.3,112.3z"/>
		
			<linearGradient id="SVGID_27_" gradientUnits="userSpaceOnUse" x1="-32.07" y1="1024.6221" x2="106.8746" y2="1123.9543" gradientTransform="matrix(1 0 0 1 0 -1023.32)">
			<stop  offset="0" style="stop-color:#18DEC3"/>
			<stop  offset="1" style="stop-color:#05A794"/>
		</linearGradient>
		<path class="st26" d="M134.1,120.2l2.7-1.4c0,0,1.9,1,3.5,1.8l-2.6,3.2l-2.8,0.8l-2.1-3.8L134.1,120.2z"/>
		
			<linearGradient id="SVGID_28_" gradientUnits="userSpaceOnUse" x1="-60.639" y1="1064.5865" x2="78.3055" y2="1163.9098" gradientTransform="matrix(1 0 0 1 0 -1023.32)">
			<stop  offset="0" style="stop-color:#18DEC3"/>
			<stop  offset="1" style="stop-color:#05A794"/>
		</linearGradient>
		<polygon class="st27" points="116.6,168.7 119.7,170.7 117.3,167.6 116,168.4 		"/>
		
			<linearGradient id="SVGID_29_" gradientUnits="userSpaceOnUse" x1="-68.8727" y1="1076.0995" x2="70.0718" y2="1175.4316" gradientTransform="matrix(1 0 0 1 0 -1023.32)">
			<stop  offset="0" style="stop-color:#18DEC3"/>
			<stop  offset="1" style="stop-color:#05A794"/>
		</linearGradient>
		<path class="st28" d="M97.9,171.5l-0.5,4.3c0,0,2.3,1.7,3.9,1.8l2-4.3l-1-2.3c-0.9-0.3-1.9-0.5-2.9-0.4
			C97.8,170.9,97.9,171.5,97.9,171.5z"/>
		
			<linearGradient id="SVGID_30_" gradientUnits="userSpaceOnUse" x1="67.8413" y1="1178.0588" x2="86.3378" y2="1192.5951" gradientTransform="matrix(1 0 0 1 0 -1023.32)">
			<stop  offset="0" style="stop-color:#F9E646"/>
			<stop  offset="0.37" style="stop-color:#F9CE39"/>
			<stop  offset="1" style="stop-color:#F89E20"/>
		</linearGradient>
		<path class="st29" d="M93.4,175.5c0,0-5.8-2.3-8.5-7.6l3.7,1.7L93.4,175.5z"/>
		
			<linearGradient id="SVGID_31_" gradientUnits="userSpaceOnUse" x1="46.7564" y1="1093.2965" x2="163.5321" y2="1202.0796" gradientTransform="matrix(1 0 0 1 0 -1023.32)">
			<stop  offset="0" style="stop-color:#18DEC3"/>
			<stop  offset="1" style="stop-color:#05A794"/>
		</linearGradient>
		<path class="st30" d="M96.9,126l3.9,1c1.4-1.6,2.9-3.1,4.5-4.5c0,0,0.7-4.9,1.2-5.6l3.2,2.4l0.4,6l-4.6,4.3l-2.7,1.1l-2-2.9
			L96.9,126z"/>
		
			<linearGradient id="SVGID_32_" gradientUnits="userSpaceOnUse" x1="-33.5498" y1="1026.687" x2="105.3947" y2="1126.0192" gradientTransform="matrix(1 0 0 1 0 -1023.32)">
			<stop  offset="0" style="stop-color:#18DEC3"/>
			<stop  offset="1" style="stop-color:#05A794"/>
		</linearGradient>
		<path class="st31" d="M119.8,115.4c0.5-0.1,1.2-0.3,1.7-0.3l3.2-4.9l3.6,2.1l-1,4.2c0,0-2,4.1-2.5,4.1s-5.8-1.4-5.8-1.4v-1.3
			L119.8,115.4z"/>
		
			<linearGradient id="SVGID_33_" gradientUnits="userSpaceOnUse" x1="30.7126" y1="1110.5199" x2="147.4793" y2="1219.303" gradientTransform="matrix(1 0 0 1 0 -1023.32)">
			<stop  offset="0" style="stop-color:#18DEC3"/>
			<stop  offset="1" style="stop-color:#05A794"/>
		</linearGradient>
		<path class="st32" d="M90,136l2.2,3.2c-0.9,1.8-1.6,3.7-2.2,5.6c0,0-5.2,3.2-5,3.3s3.7,1.8,3.7,1.8l5.4-2.3l4.8-7.2l-5.2-2.1
			L90,136z"/>
		
			<linearGradient id="SVGID_34_" gradientUnits="userSpaceOnUse" x1="-15.1438" y1="1088.9175" x2="312.1055" y2="1374.196" gradientTransform="matrix(1 0 0 1 0 -1023.32)">
			<stop  offset="0" style="stop-color:#18DEC3"/>
			<stop  offset="1" style="stop-color:#05A794"/>
		</linearGradient>
		<path class="st33" d="M85,148c-0.9,3.3-1.4,6.8-1.4,10.1l3.7,1.9l1.4-10.3L85,148z"/>
		
			<linearGradient id="SVGID_35_" gradientUnits="userSpaceOnUse" x1="20.2996" y1="1121.6957" x2="137.0663" y2="1230.4878" gradientTransform="matrix(1 0 0 1 0 -1023.32)">
			<stop  offset="0" style="stop-color:#18DEC3"/>
			<stop  offset="1" style="stop-color:#05A794"/>
		</linearGradient>
		<path class="st34" d="M85,167.9c0,0,2.4-3.8,3.7-5.3c-0.3-0.8-0.5-1.7-0.6-2.6c0.1-0.3,0.3-2.2,0.3-2.2H94
			c0.4,1.4,0.5,2.8,0.6,4.2c0.2,2.9,1,3.9-0.8,5.1c-1.3,0.8-2.7,1.4-4.1,1.8l-0.9,0.5L85,167.9z"/>
		
			<linearGradient id="SVGID_36_" gradientUnits="userSpaceOnUse" x1="90.2075" y1="1144.4823" x2="436.0883" y2="1488.59" gradientTransform="matrix(1 0 0 1 0 -1023.32)">
			<stop  offset="0" style="stop-color:#18DEC3"/>
			<stop  offset="1" style="stop-color:#05A794"/>
		</linearGradient>
		<path class="st35" d="M142,130c0,0,1.5-3.1-1.5-9.4c0,0-3.6,2.3-4,2.7c0,0-1.7-2.3-2.5-3.4c0,0,1.6-4.8,1.5-5.1c0,0-2-2.3-7.1-2.3
			c0,0-2.7,4-2.9,5c0,0-4,0-5,0.7c0,0-0.6-3.8-1-4c-3.4,1.4-6.7,3.2-9.7,5.3c0,0-0.5,4-0.5,4.7c-1.8,1.5-3.4,3.1-5,4.9
			c0,0-3.2-1-3.4-1c0,0-6.7,8.1-7.1,10.4c0,0,1.5,2.1,2.1,2.7c0,0-2,4.7-2.5,6.5c0,0-4.2,1.9-4.5,2.3c0,0-2,6.8-1.4,10.3
			c1.4-0.1,2.7-0.3,4.1-0.5c0,0,0.2,3.7,0.7,5c0,0-3,3.8-3.4,5.1c0,0,2.5,4.6,4.8,5.9l4.4-4c1.3,0.7,2.5,1.3,3.9,1.6l-0.5,4.5
			c0,0,5.4,0.7,8.5-1.2l2-4.8c0,0,5-2.7,5.5-3.6l2.6,2.5c0,0,7.8-5.8,8.6-7.8l-0.6-4.1c0,0,4.4-5.5,4.5-6.3c0,0,2.8-0.3,3-0.5
			c0,0,4.4-7.1,5.3-11.2c0,0-2.8-1.5-3.2-2.1c0,0,0.6-2.9,0.9-4.8C139.5,132.7,140.8,131.4,142,130z M118.3,151.5
			c-3.2,3-5.8,3.8-7.5,3.8c-1.8,0-3.3-1.2-4-2.9c-0.5-1.9-0.5-3.9,0-5.7c1-3.7,3.2-6.9,6.2-9.2c0.3-0.2,0.5-0.5,0.7-0.6
			c0.6-0.5,1.4-1,2.2-1.3c3.3-1.4,5.2-0.2,6.1,1.2c0.6,1,1,2.1,1,3.2C123.2,146.9,118.3,151.5,118.3,151.5L118.3,151.5z"/>
		
			<linearGradient id="SVGID_37_" gradientUnits="userSpaceOnUse" x1="37.5755" y1="1197.3843" x2="383.4562" y2="1541.4921" gradientTransform="matrix(1 0 0 1 0 -1023.32)">
			<stop  offset="0" style="stop-color:#18DEC3"/>
			<stop  offset="1" style="stop-color:#05A794"/>
		</linearGradient>
		<path class="st36" d="M100,183.3c0,0,2-3.8-2-11.7c0,0-4.4,3-5,3.3c0,0-2.2-3-3.1-4.2c0,0,2-5.9,1.9-6.4c0,0-2.4-2.8-8.8-3
			c0,0-3.3,5-3.6,6.1c0,0-5,0-6.3,0.9c0,0-0.8-4.7-1.2-5c-4.2,1.8-8.2,4-12,6.6c0,0-0.7,5-0.7,5.8c-2.2,1.8-4.2,3.9-6.1,6
			c0,0-3.9-1.2-4.2-1.2c0,0-8.3,10-8.8,13c0,0,1.9,2.5,2.5,3.3c0,0-2.4,5.9-3.1,8c0,0-5.2,2.4-5.6,3c0,0-2.4,8.6-1.7,12.7
			c1.7-0.1,3.4-0.3,5-0.6c0,0,0.2,4.6,0.9,6.1c0,0-3.7,4.7-4.2,6.4c0,0,3.1,5.8,5.9,7.2l5.5-4.9c1.5,0.9,3.2,1.5,4.9,2l-0.6,5.6
			c0,0,6.7,0.9,10.5-1.4l2.4-5.9c0,0,6.1-3.3,6.8-4.4l3.2,3.1c0,0,9.7-7.2,10.8-9.7l-0.8-5c0,0,5.5-6.8,5.6-7.8c0,0,3.5-0.3,3.7-0.6
			c0,0,5.5-8.8,6.7-13.9c0,0-3.5-1.9-3.9-2.6c0,0,0.8-3.5,1.1-5.9C95.5,188.4,99.7,184,100,183.3z M70.7,210
			c-4.1,3.7-7.2,4.7-9.3,4.8c-2.3,0-4.2-1.4-5-3.5c-0.7-2.3-0.7-4.8,0-7c1.3-4.5,4-8.6,7.7-11.4c0.4-0.3,0.7-0.5,1-0.7
			c0.8-0.6,1.7-1.2,2.7-1.6c4.1-1.8,6.4-0.2,7.6,1.4c0.8,1.2,1.3,2.5,1.4,4C76.8,204.3,70.7,210,70.7,210z"/>
		
			<linearGradient id="SVGID_38_" gradientUnits="userSpaceOnUse" x1="98.3748" y1="1211.6765" x2="22.3004" y2="1139.5446" gradientTransform="matrix(1 0 0 1 0 -1023.32)">
			<stop  offset="0" style="stop-color:#FFFFFF;stop-opacity:0"/>
			<stop  offset="1" style="stop-color:#5CFFCC;stop-opacity:0.5"/>
		</linearGradient>
		<path class="st37" d="M142,130c0,0,1.5-3.1-1.5-9.4c-1.6-0.7-3.5-1.8-3.5-1.8l-2.7,1.4l-0.3-0.4c0,0,1.6-4.8,1.5-5.1
			c-0.4-0.4-0.8-0.7-1.3-1c-1.4-1-2.9-1.8-4.4-2.4c-1.5-0.8-5-1.1-5-1.1l-3.2,5c-0.5,0.1-1.2,0.2-1.7,0.3l0,0
			c-0.1-0.5-0.2-0.9-0.5-1.4l-4.1-1.7c-3.5,1-9,4.6-9,4.6c-0.5,0.7-1.2,5.6-1.2,5.6c-1.6,1.4-3.1,2.9-4.5,4.5l-3.8-1L90,136l2.2,3.2
			c-0.9,1.8-1.6,3.7-2.2,5.6c0,0-5.2,3.2-5,3.3s3.7,1.8,3.7,1.8l-3.7-1.8c-0.9,3.3-1.4,6.8-1.4,10.1l3.7,1.9l0.8-0.1
			c0.1,0.7,0.3,1.4,0.5,2c-1.2-0.7-2.3-1.4-3.6-1.9c-1.9-1-6.2-1.3-6.2-1.3l-4,6.1c-0.7,0.1-1.4,0.2-2.1,0.4l0,0
			c-0.1-0.6-0.3-1.2-0.5-1.7l-5-2.2c-4.3,1.2-11.2,5.8-11.2,5.8c-0.5,0.8-1.4,6.9-1.4,6.9c-2,1.7-3.8,3.6-5.5,5.6l-4.9-1.3
			l-8.6,12.3l2.6,4.1c0,0-2.3,4.5-2.6,6.9c0,0-6.5,4-6.2,4.1l0,0c-1.1,4.1-1.7,8.3-1.7,12.5l4.5,2.3l1-0.1l0,0
			c0.2,1.1,0.5,2.2,0.7,3.2c-1.6,1.9-4.6,6.7-4.6,6.7c3.3,6.4,10.5,9.4,10.5,9.4l5.5-4.9l-0.6,5.3c0,0,2.8,2.2,4.8,2.3
			c0,0,6.7,0.9,10.5-1.4l2.4-5.9c2.1-1.2,4.1-2.4,6.1-3.8l0,0l3.9,2.4c0,0,9.7-7.2,10.8-9.7l-0.8-5c0,0,5.5-6.8,5.6-7.8
			c0,0,3.5-0.3,3.7-0.6c0,0,5.5-8.8,6.7-13.9c0,0-3.5-1.9-3.9-2.6c0,0,0.8-3.5,1.1-5.9c0,0,4.2-4.3,4.5-5c0,0,1-2,0.2-5.9
			c0.4,0.1,0.6,0.2,1,0.3c0,0,5.4,0.7,8.5-1.2l2-4.8c1.7-0.9,3.3-2,5-3.1l0,0l3.2,2c0,0,7.8-5.8,8.6-7.8l-0.6-4.1
			c0,0,4.4-5.5,4.5-6.3c0,0,2.8-0.3,3-0.5c0,0,4.4-7.1,5.3-11.2c0,0-2.8-1.5-3.2-2.1c0,0,0.6-2.9,0.9-4.8
			C139.5,132.8,140.8,131.5,142,130z M106.9,146.8c1-3.7,3.2-6.8,6.2-9.2c0.3-0.2,0.5-0.5,0.8-0.6c0.6-0.5,1.4-1,2.2-1.3
			c0.8-0.4,1.8-0.6,2.7-0.6c0.5,2.9,0.4,5.8-0.6,8.6c-4.1,10.4-11,9.4-11.1,9.4c-0.1-0.2-0.2-0.4-0.3-0.5
			C106.2,150.6,106.2,148.7,106.9,146.8z M56.4,204.1c1.3-4.5,4-8.6,7.7-11.4c0.4-0.3,0.7-0.5,1-0.7c0.8-0.6,1.7-1.2,2.7-1.6
			c1.1-0.5,2.2-0.7,3.3-0.8c0.7,3.5,0.5,7.2-0.7,10.6c-5.1,12.8-13.7,11.6-13.7,11.6c-0.1-0.2-0.2-0.5-0.3-0.7
			C55.7,208.9,55.7,206.4,56.4,204.1L56.4,204.1z"/>
	</g>
</g>
<linearGradient id="SVGID_39_" gradientUnits="userSpaceOnUse" x1="-169.9814" y1="1142.0776" x2="958.9151" y2="721.9016" gradientTransform="matrix(1 0 0 1 0 -964)">
	<stop  offset="0" style="stop-color:#1EA3D8"/>
	<stop  offset="1" style="stop-color:#04439E"/>
</linearGradient>
<circle class="st38" cx="54.3" cy="94.6" r="3.4"/>
<linearGradient id="SVGID_40_" gradientUnits="userSpaceOnUse" x1="-107.9691" y1="1273.288" x2="636.5359" y2="996.1728" gradientTransform="matrix(1 0 0 1 0 -964)">
	<stop  offset="0" style="stop-color:#1EA3D8"/>
	<stop  offset="1" style="stop-color:#04439E"/>
</linearGradient>
<circle class="st39" cx="22.3" cy="260.8" r="4.3"/>
<linearGradient id="SVGID_41_" gradientUnits="userSpaceOnUse" x1="-3.0654" y1="1104.8136" x2="865.8596" y2="781.3988" gradientTransform="matrix(1 0 0 1 0 -964)">
	<stop  offset="0" style="stop-color:#1EA3D8"/>
	<stop  offset="1" style="stop-color:#04439E"/>
</linearGradient>
<circle class="st40" cx="242" cy="49.6" r="3.9"/>
<linearGradient id="SVGID_42_" gradientUnits="userSpaceOnUse" x1="107.1596" y1="1245.7759" x2="169.0743" y2="1023.5275" gradientTransform="matrix(1 0 0 1 0 -964)">
	<stop  offset="0" style="stop-color:#1EA3D8"/>
	<stop  offset="1" style="stop-color:#04439E"/>
</linearGradient>
<path class="st41" d="M246.7,183.6c0,17.8-11.9,34.5-33.5,46.8c-15.4,8.9-34.6,14.9-55.5,17.4c-7.7,0.9-15.4,1.4-23.2,1.4
	c-18.4,0.1-36.8-2.6-54.4-8.1c-8.5-2.6-16.6-6.3-24.3-10.6c-21.6-12.3-33.5-29-33.5-46.8c0-9.6,3.4-18.8,10.1-27.4l0.4-0.6
	c0.4-0.6,0.8-1,1.3-1.5c0.2-0.3,0.4-0.6,0.8-0.9c3.8-4.2,7.9-7.9,12.5-11.1c0.6-0.4,1.5-1.6,1.5-0.9v2c0,0.3-0.1,0.3-0.4,0.4
	c-4.6,3.2-8.7,7-12.4,11l-0.6,0.7c-0.4,0.6-0.9,1-1.2,1.5c-0.2,0.3-0.4,0.7-0.7,0.9c-6.2,8-9.4,16.7-9.4,25.7
	c0,15.3,9.6,30.2,26.9,41.7c8.1,5.3,17,9.6,26.1,12.7c12.9,4.4,26.3,7.3,40,8.5c5.7,0.6,11.5,0.8,17.3,0.8c3.9,0,7.7-0.1,11.5-0.3
	c4.5-0.2,8.9-0.7,13.3-1.2c49.5-6.5,85.4-31.9,85.4-62.1c0-9.5-3.5-18.6-10.3-27.1c-0.2-0.3-0.4-0.6-0.7-0.9c-0.4-0.4-0.9-1-1.3-1.4
	c-0.2-0.2-0.3-0.4-0.6-0.7c-5.2-5.4-5.7-6.3-16.9-13.7c0,0,0,0.2,0,0s0-2.2,0-2.2l0,0c0.6,0.3,0,0,0,0c7.3,4.1,12.2,8.2,18,14.2
	l0.8,0.8c0.4,0.4,0.9,1,1.3,1.4c0.1,0.2,0.3,0.3,0.4,0.6C242.9,163.6,246.7,173.3,246.7,183.6z"/>
<linearGradient id="SVGID_43_" gradientUnits="userSpaceOnUse" x1="127.9363" y1="1190.4304" x2="146.3692" y2="906.1401" gradientTransform="matrix(1 0 0 1 0 -964)">
	<stop  offset="0" style="stop-color:#1EA3D8"/>
	<stop  offset="1" style="stop-color:#04439E"/>
</linearGradient>
<path class="st42" d="M246.5,124.5c0,9.7-3.4,18.8-10.1,27.4l-0.4,0.6c-0.4,0.6-0.8,1-1.2,1.5l-0.7,0.9c0,0,0,0-0.1,0.1
	c-6.1,6.6-13.1,12.1-20.8,16.4c-5.3,3.1-10.9,5.6-16.6,7.8c-3.7,1.4-7.7,2.8-11.9,4c-4.8,1.4-9.9,2.6-14.9,3.5
	c-5.5,1.1-11.5,1.9-17.4,2.4c-4.4,0.4-8.8,0.7-13.1,0.8c-1.7,0-3.2,0-4.8,0c-15.5,0.1-30.9-1.8-45.9-5.6c-4.6-1.2-9-2.6-13.3-4.1
	c-4.6-1.7-9.1-3.5-13.5-5.7c-2.1-1-4.1-2.1-5.9-3.2c-1.4-0.9-2.9-1.7-4.2-2.5c-5.6-3.5-10.8-7.7-15.4-12.6c-0.2-0.3-0.6-0.6-0.8-0.9
	c-0.4-0.6-0.9-1-1.3-1.4l-0.6-0.6c-7.4-9-11.1-18.8-11.1-28.9c0-11.3,5-22.6,14.3-32.3c0.9-0.9,1.9-1.9,2.8-2.6
	C44.7,85,50.2,81,56.1,77.6c21-12.1,49-18.7,78.7-18.7c3,0,12.1,0.1,15.1,0.2c0,0,0.1-0.6,0,0c-0.1,0.4-3,1.8-3,1.8l-14.8-0.1
	C94.5,61.4,60.6,72.5,40.9,91c-1.1,1-2,1.9-2.8,2.8c-8.9,9.4-13.7,19.9-13.7,30.7c0,9.5,3.5,18.6,10.5,27.1c0.2,0.3,0.4,0.6,0.8,0.9
	c0.4,0.4,0.9,1,1.3,1.4l0.6,0.7c4.2,4.5,8.9,8.4,14.1,11.8c2.8,1.9,5.6,3.5,8.7,5.2c4.5,2.3,9.1,4.4,13.9,6.3
	c4.4,1.7,8.8,3.1,13.3,4.3c8,2.2,16.3,3.7,24.6,4.7c3.7,0.4,7.6,0.8,11.2,1c3.9,0.2,7.7,0.3,11.2,0.3h0.1c6.7,0,13.4-0.4,20.1-1.1
	c5.9-0.7,11.9-1.5,17.8-2.9c5.1-1.1,10.1-2.4,15-4c3.5-1.1,6.9-2.3,10.1-3.6c15-5.9,27-14,35.2-23.5l0.6-0.7c0.4-0.6,0.9-1,1.2-1.5
	c0.2-0.3,0.4-0.6,0.7-0.9c6.2-8.1,9.4-16.7,9.4-25.7c0-9.7-3.6-18.9-10.9-27.6c-0.9-1-1.8-2-2.6-2.9c-3.6-3.9-12.1-10.4-16.5-13.4
	c0-0.4,0-0.5,0-0.8c0-0.4,0-0.2,0-0.6c0-0.2,0-0.8,0-0.6c4.4,2.9,13.2,9.2,17.8,14.2c0.9,0.9,1.8,1.9,2.5,2.9
	C242.6,104.4,246.5,114.1,246.5,124.5z"/>
</svg>
