<svg xmlns="http://www.w3.org/2000/svg" xmlns:xlink="http://www.w3.org/1999/xlink" viewBox="0 0 274.67 237.74"><defs><style>.cls-1{opacity:0.05;fill:url(#Nowa_próbka_gradientu_55);}.cls-2{fill:url(#Nowa_próbka_gradientu_41);}.cls-3{fill:url(#Nowa_próbka_gradientu_41-2);}.cls-4{fill:url(#Nowa_próbka_gradientu_41-3);}.cls-5{fill:url(#Nowa_próbka_gradientu_48);}.cls-6{fill:url(#Gradient_bez_nazwy_79);}.cls-13,.cls-19,.cls-33,.cls-40,.cls-7{opacity:0.5;}.cls-7{fill:url(#Nowa_próbka_gradientu_33);}.cls-8{fill:url(#Nowa_próbka_gradientu_48-2);}.cls-9{fill:url(#Nowa_próbka_gradientu_36);}.cls-10{fill:url(#Nowa_próbka_gradientu_48-3);}.cls-11,.cls-23{opacity:0.65;}.cls-11{fill:url(#Nowa_próbka_gradientu_60);}.cls-12{fill:url(#Gradient_bez_nazwy_79-2);}.cls-13{fill:url(#Nowa_próbka_gradientu_33-2);}.cls-14{fill:url(#Nowa_próbka_gradientu_48-4);}.cls-15{fill:url(#Nowa_próbka_gradientu_36-2);}.cls-16{fill:url(#Nowa_próbka_gradientu_41-4);}.cls-17{fill:url(#Nowa_próbka_gradientu_41-5);}.cls-18{fill:url(#Nowa_próbka_gradientu_29);}.cls-19{fill:url(#Nowa_próbka_gradientu_33-3);}.cls-20{opacity:0.56;fill:url(#Nowa_próbka_gradientu_36-3);}.cls-21{fill:url(#Nowa_próbka_gradientu_41-6);}.cls-22{fill:url(#Nowa_próbka_gradientu_41-7);}.cls-23{fill:url(#Nowa_próbka_gradientu_60-2);}.cls-24{fill:url(#Nowa_próbka_gradientu_54);}.cls-25{fill:url(#Nowa_próbka_gradientu_54-2);}.cls-26{fill:url(#Nowa_próbka_gradientu_54-3);}.cls-27{fill:url(#Nowa_próbka_gradientu_53);}.cls-28{fill:url(#Nowa_próbka_gradientu_32);}.cls-29{fill:url(#Nowa_próbka_gradientu_58);}.cls-30{fill:url(#Nowa_próbka_gradientu_53-2);}.cls-31{fill:url(#Nowa_próbka_gradientu_29-2);}.cls-32{fill:url(#Nowa_próbka_gradientu_36-4);}.cls-33{fill:url(#Nowa_próbka_gradientu_33-4);}.cls-34{fill:url(#Nowa_próbka_gradientu_29-3);}.cls-35{fill:url(#Nowa_próbka_gradientu_41-8);}.cls-36{fill:url(#Nowa_próbka_gradientu_29-4);}.cls-37{fill:url(#Nowa_próbka_gradientu_54-4);}.cls-38{fill:url(#Gradient_bez_nazwy_216);}.cls-39{fill:url(#Nowa_próbka_gradientu_53-3);}.cls-40{fill:url(#Nowa_próbka_gradientu_33-5);}.cls-41{fill:url(#Nowa_próbka_gradientu_36-5);}.cls-42{fill:url(#Gradient_bez_nazwy_23);}.cls-43{fill:url(#Gradient_bez_nazwy_23-2);}.cls-44{fill:url(#Nowa_próbka_gradientu_36-6);}.cls-45{fill:url(#Nowa_próbka_gradientu_59);}.cls-46{fill:url(#Nowa_próbka_gradientu_29-5);}.cls-47{opacity:0.15;fill:url(#Nowa_próbka_gradientu_36-7);}.cls-48{fill:url(#Gradient_bez_nazwy_216-2);}.cls-49{fill:url(#Gradient_bez_nazwy_216-3);}.cls-50{fill:url(#Nowa_próbka_gradientu_53-4);}.cls-51{fill:url(#Nowa_próbka_gradientu_54-5);}</style><linearGradient id="Nowa_próbka_gradientu_55" x1="-18.36" y1="-2.5" x2="393.4" y2="356.13" gradientUnits="userSpaceOnUse"><stop offset="0" stop-color="#1ea3d8"/><stop offset="0.69" stop-color="#04439e"/><stop offset="1" stop-color="#081b4e"/></linearGradient><linearGradient id="Nowa_próbka_gradientu_41" x1="-390.13" y1="15.62" x2="226.73" y2="130.56" gradientUnits="userSpaceOnUse"><stop offset="0" stop-color="#1ea3d8"/><stop offset="1" stop-color="#04439e"/></linearGradient><linearGradient id="Nowa_próbka_gradientu_41-2" x1="-130.38" y1="-17.58" x2="127.6" y2="182.93" xlink:href="#Nowa_próbka_gradientu_41"/><linearGradient id="Nowa_próbka_gradientu_41-3" x1="-96.8" y1="-60.77" x2="161.18" y2="139.74" xlink:href="#Nowa_próbka_gradientu_41"/><linearGradient id="Nowa_próbka_gradientu_48" x1="31.18" y1="218.22" x2="114.07" y2="230.3" gradientUnits="userSpaceOnUse"><stop offset="0" stop-color="#114a7a"/><stop offset="1" stop-color="#022659"/></linearGradient><linearGradient id="Gradient_bez_nazwy_79" x1="116.66" y1="147.21" x2="69.54" y2="214.44" gradientUnits="userSpaceOnUse"><stop offset="0" stop-color="#f9979c"/><stop offset="0.83" stop-color="#fbcab5"/><stop offset="1" stop-color="#fbd4ba"/></linearGradient><linearGradient id="Nowa_próbka_gradientu_33" x1="-228.61" y1="172.73" x2="-286.13" y2="228.36" gradientTransform="translate(345.85)" gradientUnits="userSpaceOnUse"><stop offset="0" stop-color="#b4402c"/><stop offset="1" stop-color="#d58578"/></linearGradient><linearGradient id="Nowa_próbka_gradientu_48-2" x1="-36.58" y1="75.55" x2="62.35" y2="192.31" xlink:href="#Nowa_próbka_gradientu_48"/><linearGradient id="Nowa_próbka_gradientu_36" x1="-251.8" y1="131.87" x2="-290.8" y2="308.72" gradientTransform="translate(345.85)" gradientUnits="userSpaceOnUse"><stop offset="0" stop-color="#f9ccce" stop-opacity="0"/><stop offset="1" stop-color="#fbeadf"/></linearGradient><linearGradient id="Nowa_próbka_gradientu_48-3" x1="14.19" y1="188.19" x2="69.06" y2="210.62" xlink:href="#Nowa_próbka_gradientu_48"/><linearGradient id="Nowa_próbka_gradientu_60" x1="295.33" y1="180.4" x2="-354.09" y2="-101.21" gradientUnits="userSpaceOnUse"><stop offset="0" stop-color="#fff" stop-opacity="0"/><stop offset="0.14" stop-color="#f2f8ff" stop-opacity="0.03"/><stop offset="0.35" stop-color="#cfe6ff" stop-opacity="0.11"/><stop offset="0.6" stop-color="#95c8ff" stop-opacity="0.24"/><stop offset="0.88" stop-color="#459fff" stop-opacity="0.41"/><stop offset="1" stop-color="#1e8bff" stop-opacity="0.5"/></linearGradient><linearGradient id="Gradient_bez_nazwy_79-2" x1="87.53" y1="126.79" x2="40.41" y2="194.03" xlink:href="#Gradient_bez_nazwy_79"/><linearGradient id="Nowa_próbka_gradientu_33-2" x1="-253.97" y1="147.33" x2="-312.69" y2="204.11" xlink:href="#Nowa_próbka_gradientu_33"/><linearGradient id="Nowa_próbka_gradientu_48-4" x1="-47.51" y1="97.98" x2="51.42" y2="214.75" xlink:href="#Nowa_próbka_gradientu_48"/><linearGradient id="Nowa_próbka_gradientu_36-2" x1="-214.07" y1="157.42" x2="-422.19" y2="214.32" xlink:href="#Nowa_próbka_gradientu_36"/><linearGradient id="Nowa_próbka_gradientu_41-4" x1="17.62" y1="258.39" x2="304.99" y2="-114.97" xlink:href="#Nowa_próbka_gradientu_41"/><linearGradient id="Nowa_próbka_gradientu_41-5" x1="-3.21" y1="129.63" x2="199.44" y2="190.42" xlink:href="#Nowa_próbka_gradientu_41"/><linearGradient id="Nowa_próbka_gradientu_29" x1="143.69" y1="54.67" x2="91.45" y2="80.08" gradientUnits="userSpaceOnUse"><stop offset="0" stop-color="#f9979c"/><stop offset="1" stop-color="#fbd4ba"/></linearGradient><linearGradient id="Nowa_próbka_gradientu_33-3" x1="110.7" y1="70.17" x2="105.65" y2="73.45" gradientTransform="matrix(1, 0, 0, 1, 0, 0)" xlink:href="#Nowa_próbka_gradientu_33"/><linearGradient id="Nowa_próbka_gradientu_36-3" x1="-229.27" y1="93.84" x2="-274.33" y2="64.46" xlink:href="#Nowa_próbka_gradientu_36"/><linearGradient id="Nowa_próbka_gradientu_41-6" x1="74.93" y1="105.42" x2="204.88" y2="136.71" xlink:href="#Nowa_próbka_gradientu_41"/><linearGradient id="Nowa_próbka_gradientu_41-7" x1="63.59" y1="156.28" x2="356.01" y2="53.72" xlink:href="#Nowa_próbka_gradientu_41"/><linearGradient id="Nowa_próbka_gradientu_60-2" x1="-39.63" y1="200.18" x2="243.19" y2="103.24" xlink:href="#Nowa_próbka_gradientu_60"/><linearGradient id="Nowa_próbka_gradientu_54" x1="283.21" y1="-123.41" x2="117.18" y2="122.44" gradientUnits="userSpaceOnUse"><stop offset="0" stop-color="#1e8bd8"/><stop offset="1" stop-color="#fff"/></linearGradient><linearGradient id="Nowa_próbka_gradientu_54-2" x1="367.87" y1="122.65" x2="99.67" y2="56.66" xlink:href="#Nowa_próbka_gradientu_54"/><linearGradient id="Nowa_próbka_gradientu_54-3" x1="310.82" y1="-112.43" x2="133.73" y2="73.61" xlink:href="#Nowa_próbka_gradientu_54"/><linearGradient id="Nowa_próbka_gradientu_53" x1="130.83" y1="-18.33" x2="190.65" y2="48.08" gradientUnits="userSpaceOnUse"><stop offset="0" stop-color="#1c59b0"/><stop offset="1" stop-color="#002861"/></linearGradient><linearGradient id="Nowa_próbka_gradientu_32" x1="-660.9" y1="-894.92" x2="-673.33" y2="-891.15" gradientTransform="translate(381.17 1105.03) rotate(24.87)" gradientUnits="userSpaceOnUse"><stop offset="0" stop-color="#f9e646"/><stop offset="0.37" stop-color="#f9ce39"/><stop offset="1" stop-color="#f89e20"/></linearGradient><linearGradient id="Nowa_próbka_gradientu_58" x1="139.27" y1="3.85" x2="178.65" y2="38.97" gradientUnits="userSpaceOnUse"><stop offset="0" stop-color="#18dec3"/><stop offset="1" stop-color="#05a794"/></linearGradient><linearGradient id="Nowa_próbka_gradientu_53-2" x1="90.07" y1="-3.19" x2="152.97" y2="30.34" xlink:href="#Nowa_próbka_gradientu_53"/><linearGradient id="Nowa_próbka_gradientu_29-2" x1="203.55" y1="19.29" x2="128.9" y2="53.71" xlink:href="#Nowa_próbka_gradientu_29"/><linearGradient id="Nowa_próbka_gradientu_36-4" x1="-192.31" y1="40.79" x2="-244.03" y2="72.55" xlink:href="#Nowa_próbka_gradientu_36"/><linearGradient id="Nowa_próbka_gradientu_33-4" x1="-2775.77" y1="-444.61" x2="-2790.58" y2="-473.5" gradientTransform="matrix(-0.92, -0.38, -0.38, 0.92, -2615.54, -586.84)" xlink:href="#Nowa_próbka_gradientu_33"/><linearGradient id="Nowa_próbka_gradientu_29-3" x1="216.56" y1="-0.11" x2="117.91" y2="38.19" xlink:href="#Nowa_próbka_gradientu_29"/><linearGradient id="Nowa_próbka_gradientu_41-8" x1="151.04" y1="100.56" x2="167.06" y2="105.37" xlink:href="#Nowa_próbka_gradientu_41"/><linearGradient id="Nowa_próbka_gradientu_29-4" x1="204.39" y1="44.74" x2="136.97" y2="115.69" xlink:href="#Nowa_próbka_gradientu_29"/><linearGradient id="Nowa_próbka_gradientu_54-4" x1="324.98" y1="-98.95" x2="147.88" y2="87.09" xlink:href="#Nowa_próbka_gradientu_54"/><linearGradient id="Gradient_bez_nazwy_216" x1="175.37" y1="123.91" x2="92.07" y2="12.99" gradientUnits="userSpaceOnUse"><stop offset="0" stop-color="#fff" stop-opacity="0"/><stop offset="0.21" stop-color="#f8fefe" stop-opacity="0.02"/><stop offset="0.4" stop-color="#e1fafa" stop-opacity="0.07"/><stop offset="0.58" stop-color="#bbf3f3" stop-opacity="0.15"/><stop offset="0.76" stop-color="#85eaea" stop-opacity="0.27"/><stop offset="0.93" stop-color="#40dede" stop-opacity="0.42"/><stop offset="1" stop-color="#1ed8d8" stop-opacity="0.5"/></linearGradient><linearGradient id="Nowa_próbka_gradientu_53-3" x1="246.13" y1="165.16" x2="174.61" y2="42.24" xlink:href="#Nowa_próbka_gradientu_53"/><linearGradient id="Nowa_próbka_gradientu_33-5" x1="-156.97" y1="-521.06" x2="-157.2" y2="-464.61" gradientTransform="matrix(0.98, 0.28, -0.3, 1.06, 169.4, 655.25)" xlink:href="#Nowa_próbka_gradientu_33"/><linearGradient id="Nowa_próbka_gradientu_36-5" x1="-193" y1="49.15" x2="-245.32" y2="3.42" xlink:href="#Nowa_próbka_gradientu_36"/><radialGradient id="Gradient_bez_nazwy_23" cx="-6.28" cy="18.76" r="113.72" xlink:href="#Nowa_próbka_gradientu_58"/><radialGradient id="Gradient_bez_nazwy_23-2" cx="35.44" cy="5.98" r="477.39" xlink:href="#Nowa_próbka_gradientu_58"/><linearGradient id="Nowa_próbka_gradientu_36-6" x1="-94.53" y1="-513.9" x2="-304.96" y2="-406.31" gradientTransform="matrix(0.98, 0.28, -0.3, 1.06, 169.4, 655.25)" xlink:href="#Nowa_próbka_gradientu_36"/><linearGradient id="Nowa_próbka_gradientu_59" x1="-259.71" y1="100.73" x2="-306.68" y2="46.91" gradientTransform="translate(345.85)" gradientUnits="userSpaceOnUse"><stop offset="0" stop-color="#fff" stop-opacity="0"/><stop offset="1" stop-color="#5cffcc" stop-opacity="0.5"/></linearGradient><linearGradient id="Nowa_próbka_gradientu_29-5" x1="53.47" y1="62.4" x2="64.24" y2="89.32" xlink:href="#Nowa_próbka_gradientu_29"/><linearGradient id="Nowa_próbka_gradientu_36-7" x1="-246.82" y1="86.85" x2="-303.99" y2="87.03" xlink:href="#Nowa_próbka_gradientu_36"/><linearGradient id="Gradient_bez_nazwy_216-2" x1="-238.61" y1="194.58" x2="-318.84" y2="272.79" gradientTransform="translate(345.85)" xlink:href="#Gradient_bez_nazwy_216"/><linearGradient id="Gradient_bez_nazwy_216-3" x1="-280.78" y1="201.11" x2="-371.11" y2="191.71" gradientTransform="translate(345.85)" xlink:href="#Gradient_bez_nazwy_216"/><linearGradient id="Nowa_próbka_gradientu_53-4" x1="201.75" y1="25.56" x2="181.39" y2="42.5" xlink:href="#Nowa_próbka_gradientu_53"/><linearGradient id="Nowa_próbka_gradientu_54-5" x1="347.15" y1="339.74" x2="-14.21" y2="-158.53" xlink:href="#Nowa_próbka_gradientu_54"/></defs><title>Illustration 3 - Organizations_1</title><g id="Warstwa_2" data-name="Warstwa 2"><g id="stage_3" data-name="stage 3"><path class="cls-1" d="M.28,131c-5.4,93.37,67.78,126.27,147.33,95.63,62.86-24.21,170.23-80.38,108.63-162.1C198.29-12.35,87-26.24,26.69,54.07,10.81,75.2,1.89,103.11.28,131Z"/><path class="cls-2" d="M91,105.75a39,39,0,0,0,28.69-25.57c7.72-22.42,23-52.5,48.7-47,0,0,43.16,4.83,52.59,55.52a100.68,100.68,0,0,1-4.22,51.17c-9.23,26.78-31.8,66.66-83.5,59.9,0,0-37.3-5.87-59.58-26a42.68,42.68,0,0,1-7.26-54.53C70.83,112.19,79.74,108.12,91,105.75Z"/><path class="cls-3" d="M115.82,146S97,161.26,99.91,189.83a23.32,23.32,0,0,1-11.38-7.2v-28.8l24.09-13.23Z"/><path class="cls-4" d="M128.8,142.9s47.41-4.68,31.78-31.95C160.58,111,150.47,132.1,128.8,142.9Z"/><path class="cls-5" d="M84.08,221.26c-.32.48-.64,1-.94,1.48v0a54.63,54.63,0,0,0-3.53,7.17A12.88,12.88,0,0,1,77.93,233a11.37,11.37,0,0,1-8,4.58,6.7,6.7,0,0,1-6.14-2.44c-3.36-4.53,2-10.27,2-10.27L84,212l.08.09A8.15,8.15,0,0,1,84.08,221.26Z"/><path class="cls-6" d="M76.2,182.75s-.27,22-.94,26.35c0,0-6.88,12.42-9.4,15.78,0,0,1.22,7.71,7,5a9.55,9.55,0,0,0,3.84-3.46C78.94,223,84,215,84,212c0-.84,3.52-21.1,3.86-28.09Z"/><path class="cls-7" d="M74.61,204.38s2.1,3.7,7.89,3.3c0,0,1.81-.08.75,7.51,0,0,.88-2,1.66-9.7C84.91,205.49,80.43,207.35,74.61,204.38Z"/><path class="cls-8" d="M84.08,221.26c-.32.48-.64,1-.94,1.48,1.62-6.39.11-7.55.11-7.55l-.11-.13a8,8,0,0,0,.81-2.74,3,3,0,0,0,0-.36l.08.09A8.15,8.15,0,0,1,84.08,221.26Z"/><path class="cls-9" d="M76.2,182.75s-.27,22-.94,26.35c0,0-6.88,12.42-9.4,15.78,0,0,1.22,7.71,7,5a9.55,9.55,0,0,0,3.84-3.46C78.94,223,84,215,84,212c0-.84,3.52-21.1,3.86-28.09Z"/><path class="cls-10" d="M49.89,201.41c-3.82.59-10,1.63-15.69,3a22.47,22.47,0,0,1-11.71-.32c-3.73-1.13-7.1-3.21-5.59-7a6.25,6.25,0,0,1,3.32-3.25,34,34,0,0,1,10.58-2.38l23.63.82H55s.07.14.17.4A6.6,6.6,0,0,1,49.89,201.41Z"/><path class="cls-11" d="M91,105.75a39,39,0,0,0,28.69-25.57c7.72-22.42,23-52.5,48.7-47,0,0,43.16,4.83,52.59,55.52a100.68,100.68,0,0,1-4.22,51.17c-9.23,26.78-31.8,66.66-83.5,59.9,0,0-37.3-5.87-59.58-26a42.68,42.68,0,0,1-7.26-54.53C70.83,112.19,79.74,108.12,91,105.75Z"/><path class="cls-12" d="M73.26,167.84c-5.31,4.51-12.44,15.17-16,20.8,0,0,0,0,0,0-.25.41-.49.78-.71,1.12-1,1.55-1.54,2.5-1.54,2.5a2.75,2.75,0,0,1-.79,1.71c-1.91,2.06-6.89,2.68-11.13,3.5-3.63.71-8.12,2.36-11.82,2-15.2-1.33-.42-8.08-.42-8.08,10.9-2.2,16.77-7.56,16.77-7.56C50.27,181.38,62.68,160,62.68,160h0l10.54,7.81Z"/><path class="cls-13" d="M59.3,185.45s-1.16,1.78-4.34,6.84A16.76,16.76,0,0,0,57,186c-6.61-3.18-6-7.08-6.11-8.16l.16.09-.11-.31c2.36,3.88,4.13,4.64,8.53,5.78Z"/><path class="cls-14" d="M49.89,201.41c-3.82.59-10,1.63-15.69,3a22.47,22.47,0,0,1-11.71-.32c-3.73-1.13-7.1-3.21-5.59-7,0,0,.08,4.77,7.43,6.12a18.74,18.74,0,0,0,6.72-.12c4.55-.88,14.16-2.68,17-2.9,0,0,7.27-1.1,6.13-6.19h0v-.06a3,3,0,0,0,.8-1.53s0,0,0,0A6.5,6.5,0,0,1,49.89,201.41Z"/><path class="cls-15" d="M73.26,167.84c-5.31,4.51-12.44,15.17-16,20.8,0,0,0,0,0,0-.25.41-.49.78-.71,1.12-1,1.55-1.54,2.5-1.54,2.5a2.75,2.75,0,0,1-.79,1.71c-1.91,2.06-6.89,2.68-11.13,3.5-3.63.71-8.12,2.36-11.82,2-15.2-1.33-.42-8.08-.42-8.08,10.9-2.2,16.77-7.56,16.77-7.56C50.27,181.38,62.68,160,62.68,160h0l10.54,7.81Z"/><path class="cls-16" d="M121.45,134A39,39,0,0,1,110,144.64a52.76,52.76,0,0,1-5.34,3,56.66,56.66,0,0,1-11.39,4.18c2,21-7.35,54.32-7.35,54.32C80.12,208.57,74.3,205,74.3,205c-1.48-9.46-.8-25.35-.32-33.26.08-1.42.16-2.58.22-3.4s.1-1.38.1-1.38H70.05L77,144.78Z"/><path class="cls-17" d="M110,144.64a52.76,52.76,0,0,1-5.34,3c-7.2,1.24-18.11,0-18.11,0-3.06,9.9-8.38,17.93-12.59,24.15.08-1.42.16-2.58.22-3.4,7.88-13.29,10.33-22.9,10.33-22.9A195.78,195.78,0,0,0,110,144.64Z"/><path class="cls-18" d="M104.74,67.56S87.55,75.25,80.62,80.4l-1.1,7.76s17.16-3.36,31-11.42Z"/><path class="cls-19" d="M110.56,76.74c-.6.38-1.29.69-1.93,1.05a14.28,14.28,0,0,1-3.89-10.23A16.71,16.71,0,0,0,110.56,76.74Z"/><path class="cls-20" d="M104.68,67.56S87.49,75.25,80.55,80.4l-1.09,7.76s17.16-3.36,31-11.42Z"/><path class="cls-21" d="M140.57,101v8l-21.88,17.46L106.17,128l-15.1,1.87A171.59,171.59,0,0,1,113.4,103c4.72-4.6,7.84-7,7.84-7Z"/><path class="cls-22" d="M134,141.21c-21.5,7.87-49,4.14-49,4.14C79.28,170.05,61.77,185,61,185.69a0,0,0,0,0,0,0c-8.9-1.11-10.58-7.8-10.58-7.8,2.16-7.87,17.24-31.42,23.23-40.61A19.52,19.52,0,0,1,82,130.18a76,76,0,0,1,9.06-3.25c54.52-15.22,47.85-25,47.85-25l.24-.66,13.66-2.52.31.42,4.37,5.6h0a16.37,16.37,0,0,1,1.65,17.7C152.64,134.68,134,141.21,134,141.21Z"/><path class="cls-23" d="M159.15,122.48a16.39,16.39,0,0,0-1.65-17.71h0l-4.37-5.59-.31-.42L140.57,101h0l-19.33-5a104.46,104.46,0,0,0-7.84,7,171.72,171.72,0,0,0-19.79,23.16l-2.54.72A77.11,77.11,0,0,0,82,130.2a19.45,19.45,0,0,0-8.43,7.14c-6,9.19-21.07,32.73-23.23,40.6,0,0,1.68,6.7,10.58,7.8a0,0,0,0,1,0,0,75.11,75.11,0,0,0,13.08-15.31c-.47,7.31-1.32,24.57.24,34.62,0,0,5.83,3.58,11.65,1.12,0,0,9.36-33.28,7.35-54.32a58.51,58.51,0,0,0,14.37-5.74c8.32-.43,17.78-1.73,26.29-4.85C134,141.22,152.64,134.7,159.15,122.48Z"/><path class="cls-24" d="M125.83,76.74s-.37,10.74-4.58,19.25c0,0,7.89,19.92,33.63,4.92a101.49,101.49,0,0,1,0-22.45l-21.71-10.9s-5.38,5.82-6,6S125.83,76.74,125.83,76.74Z"/><path class="cls-25" d="M132.61,47.36s-8.17-.83-27.87,20.2c0,0,1.34,6.5,5.82,9.18a69,69,0,0,0,15.27-7.61Z"/><path class="cls-26" d="M162.72,51.37c-7.72-3.34-8.08,4.27-7.48,9.72a42.7,42.7,0,0,0,.87,4.91c.49,1.35,0,7.39,0,7.39-.34,5.73-2.82,7.76-5.65,8.17-4.12.59-9-2.3-9-2.3-9.39-5.21-15.67-2.51-15.67-2.51-9.86-6.77,0-19.37,0-19.37,2-3.19,6.78-10,6.78-10a4,4,0,0,1,1.48.06,39.93,39.93,0,0,0,9.31.7l5.44-.26A22,22,0,0,1,162.72,51.37Z"/><path class="cls-27" d="M185.22,46.39l-.05,0a11.9,11.9,0,0,1-1.67.5C170.65,48.21,164.79,32,164.79,32c-.95-2.88-4.44-11.49-4.44-11.49-2.86-6.43-6.54-4.1-6.83-3.91l0,0a.07.07,0,0,0-.06,0l-3.51-6.52s14.78-14.59,23.34,5.06a38.65,38.65,0,0,1,2.16,6.55c.86,3.61,2.38,10,3.28,15.31v0c.27.51,6.52,12,10.3-1.31C189.25,36.43,191.88,43.79,185.22,46.39Z"/><path class="cls-28" d="M147,11.1a5.68,5.68,0,0,1,3-.93,7,7,0,0,1,3.51,6.49s-1.07,1.33-1.93,1.51C151.52,18.17,146.62,12.56,147,11.1Z"/><path class="cls-29" d="M147,11.1a5.68,5.68,0,0,1,3-.93,7,7,0,0,1,3.51,6.49s-1.07,1.33-1.93,1.51C151.52,18.17,146.62,12.56,147,11.1Z"/><path class="cls-30" d="M123.32,27.63s-8.34-8.54-2.68-16.69a13.25,13.25,0,0,1,6.83-4.89,23.52,23.52,0,0,1,3.2-.85c6.94-1,14.15,1.43,18.42,7a13.64,13.64,0,0,1,2.38,4.48s4.74,18.66-6.16,23.45C135.6,44.39,123.32,27.63,123.32,27.63Z"/><path class="cls-31" d="M135.09,45.1a28.92,28.92,0,0,1-.53,8.2,3.57,3.57,0,0,0,4.11,4.36,10.72,10.72,0,0,0,2.81-1.09s5.12-2,6.33-7.06A56.89,56.89,0,0,1,145,37.61Z"/><path class="cls-32" d="M135,45.1a28.92,28.92,0,0,1-.53,8.2,3.57,3.57,0,0,0,4.11,4.36,10.72,10.72,0,0,0,2.81-1.09s5.12-2,6.33-7.06a56.89,56.89,0,0,1-2.85-11.9Z"/><path class="cls-33" d="M134.93,46.35c.72.53,3.25.06,4.37-.44,5.16-2.32,5.66-8.3,5.66-8.3h0S141.17,47.07,134.93,46.35Z"/><path class="cls-34" d="M148.46,31.65a5.16,5.16,0,0,1-2.83,4.53,32.26,32.26,0,0,1-4.78,8.07,6.7,6.7,0,0,1-3.09,2h0a6.92,6.92,0,0,1-7-1.76c-6.11-6.24-7.85-19.46-7.85-19.46a11.71,11.71,0,0,1,.1-3.46h0c.44-1.9,1.69-1.82,3.12-1.8a4.54,4.54,0,0,1,3.31,1.5c7.74,8.66,14.61,11,14.61,11A7,7,0,0,1,146,30C147.28,29.07,148.48,29.74,148.46,31.65Z"/><path class="cls-35" d="M160.06,101.53l-1.69,3c-.68-1.19-1-2.08-.41-3.38Z"/><path class="cls-36" d="M169.71,92.11q-5.39,7.08-9.3,11.83-2.85,3.44-5,5.82a86.32,86.32,0,0,1-6.45,6.73,5.5,5.5,0,0,1-7.78,1.29c-.31-.21-.62-.4-.93-.58a15.5,15.5,0,0,0-9.67-1.77c-7,.89-4.88-1.32-4.88-1.32.76-1.44,3.58-3,3.58-3,6.88-4.28,13.89-.29,13.89-.29,2-2.2,4.05-3.22,9.18-10.7A109.79,109.79,0,0,0,160.81,85Z"/><path class="cls-37" d="M165.36,54.83c2.94,5.29,7.22,17,4.29,37.56,0,0-6.93.31-10.94-3.34,0,0-.61-3.85-3.83-18,0,0-4.8-22.86,4.18-21.28C161.75,50.22,164,52.29,165.36,54.83Z"/><path class="cls-38" d="M157.76,100.23c-.62,1.31-.28,2.19.4,3.38l1.7-3Z"/><path class="cls-39" d="M183.5,46.91C170.65,48.21,164.79,32,164.79,32c-.95-2.88-4.44-11.49-4.44-11.49-2.86-6.43-6.54-4.1-6.83-3.91l.26-.2a9.35,9.35,0,0,1,13.9,3.43,110.05,110.05,0,0,1,6.38,16.47S177.79,47,183.5,46.91Z"/><path class="cls-40" d="M158.71,89.05s1,2.77,8.64,4.55c0,0-12.71,17.68-18.9,23.46,0,0,8.4-7.5,21.07-24.66C169.52,92.4,162.72,92.8,158.71,89.05Z"/><path class="cls-41" d="M148.36,31.65a5.16,5.16,0,0,1-2.83,4.53,44,44,0,0,1-4.78,8.07,6.07,6.07,0,0,1-3.09,2h0a6.92,6.92,0,0,1-7-1.76c-6.11-6.24-7.85-19.46-7.85-19.46a11.44,11.44,0,0,1,.09-3.46h0c.45-1.9,1.7-1.82,3.13-1.8a4.56,4.56,0,0,1,3.31,1.5c7.74,8.66,14.61,11,14.61,11a7.14,7.14,0,0,1,2-2.35C147.18,29.07,148.38,29.74,148.36,31.65Z"/><path class="cls-42" d="M86.15,77.57v30.64a1.06,1.06,0,0,1-.2.62c-.88,1.21-2.48,1.16-3.63.86l-.34-.1-.33-.13,1.62-33.1-22.1-9.81a.89.89,0,0,1,0-.28,2.07,2.07,0,0,1,.68-1.42,2.48,2.48,0,0,1,1.95-.67l.05,0a.27.27,0,0,1,.16,0L83.86,73.9a4.5,4.5,0,0,1,.41.25l.09,0A4.09,4.09,0,0,1,86.15,77.57Z"/><path class="cls-43" d="M84.33,78v29.93a1.78,1.78,0,0,1-2,1.77l-.34-.1-.33-.13L63.24,98.84a4.11,4.11,0,0,1-2.07-3.58V66.55a.89.89,0,0,1,0-.28A1.28,1.28,0,0,1,63,65.41l19.74,10A2.86,2.86,0,0,1,84.33,78Z"/><path class="cls-44" d="M169.45,92.4c-3.59,4.72-6.5,8.37-9.11,11.54-1.89,2.29-3.57,4.23-5,5.82a84.74,84.74,0,0,1-6.46,6.73,5.49,5.49,0,0,1-7.77,1.29,16.23,16.23,0,0,0-1.85-1.07,15.36,15.36,0,0,0-8.65-1.3c-7.08.94-5-1.3-5-1.3.76-1.44,3.58-3,3.58-3,6.88-4.28,13.89-.29,13.89-.29,2-2.2,4-3.22,9.18-10.7,4.88-7.12,6.36-11.06,6.36-11.06h0c3.4,2.94,8.3,3.5,10.8,3.35Z"/><ellipse class="cls-42" cx="71.14" cy="87.4" rx="2.52" ry="3.49"/><path class="cls-45" d="M86.15,77.57v30.64a1.06,1.06,0,0,1-.2.62c-.88,1.21-2.48,1.16-3.63.86l-.33-.1-.34-.13L63.24,98.84a4.13,4.13,0,0,1-2.07-3.58V66.55a.89.89,0,0,1,0-.28,2.11,2.11,0,0,1,.68-1.42,2.49,2.49,0,0,1,1.95-.67l.05,0,20.39,10,.09,0A4.09,4.09,0,0,1,86.15,77.57Z"/><path class="cls-46" d="M67.64,87.31c-1.57-.14-4.16-.58-5.55-1.92a3.67,3.67,0,0,1-.92-2.74c0-.59,0-1.12,0-1.12a2.62,2.62,0,0,0-1,.84s-4.15,5,0,8.28c0,0,4.48,2.91,7.61,1.23a4.07,4.07,0,0,0,1.49-2.6A1.85,1.85,0,0,0,67.64,87.31Z"/><path class="cls-47" d="M67.64,87.31c-1.57-.14-4.16-.58-5.55-1.92a3.67,3.67,0,0,1-.92-2.74c0-.59,0-1.12,0-1.12a2.62,2.62,0,0,0-1,.84s-4.15,5,0,8.28c0,0,4.48,2.91,7.61,1.23a4.07,4.07,0,0,0,1.49-2.6A1.85,1.85,0,0,0,67.64,87.31Z"/><path class="cls-48" d="M84.08,221.26c-.32.48-.64,1-.94,1.48v0a54.63,54.63,0,0,0-3.53,7.17A12.88,12.88,0,0,1,77.93,233a11.37,11.37,0,0,1-8,4.58,6.7,6.7,0,0,1-6.14-2.44c-3.36-4.53,2-10.27,2-10.27L84,212l.08.09A8.15,8.15,0,0,1,84.08,221.26Z"/><path class="cls-49" d="M49.9,201.41c-3.82.59-10,1.63-15.69,3a22.47,22.47,0,0,1-11.71-.32c-3.73-1.13-7.1-3.21-5.59-7a6.25,6.25,0,0,1,3.32-3.25,34,34,0,0,1,10.58-2.38l23.63.82H55s.07.14.17.4A6.6,6.6,0,0,1,49.9,201.41Z"/><path class="cls-50" d="M185.22,46.4c-5.2,1-6.51-9.32-6.51-9.32s6.71,11.24,10.31-1.29C189.26,36.44,191.89,43.79,185.22,46.4Z"/><path class="cls-51" d="M155.87,75.44a59.91,59.91,0,0,1-1.45-7s.72,7.37-.11,10.89A7,7,0,0,0,155.87,75.44Z"/></g></g></svg>