<?xml version="1.0" encoding="utf-8"?>
<!-- Generator: Adobe Illustrator 19.2.0, SVG Export Plug-In . SVG Version: 6.00 Build 0)  -->
<svg version="1.1" id="Warstwa_1" xmlns="http://www.w3.org/2000/svg" xmlns:xlink="http://www.w3.org/1999/xlink" x="0px" y="0px"
	 viewBox="0 0 274.7 248.8" style="enable-background:new 0 0 274.7 248.8;" xml:space="preserve">
<style type="text/css">
	.st0{opacity:5.000000e-02;fill:url(#SVGID_1_);enable-background:new    ;}
	.st1{fill:#1E8BFF;fill-opacity:0.5;}
	.st2{fill:#18DEC3;}
	.st3{fill:url(#SVGID_2_);}
	.st4{opacity:0.46;fill:url(#SVGID_3_);enable-background:new    ;}
	.st5{fill:url(#SVGID_4_);}
	.st6{opacity:0.65;fill:url(#SVGID_5_);enable-background:new    ;}
	.st7{fill:url(#SVGID_6_);}
	.st8{opacity:0.65;fill:url(#SVGID_7_);enable-background:new    ;}
	.st9{fill:url(#SVGID_8_);}
	.st10{opacity:0.65;fill:url(#SVGID_9_);enable-background:new    ;}
	.st11{fill:url(#SVGID_10_);}
	.st12{opacity:0.65;fill:url(#SVGID_11_);enable-background:new    ;}
	.st13{fill:url(#SVGID_12_);}
	.st14{opacity:0.5;fill:url(#SVGID_13_);enable-background:new    ;}
	.st15{fill:url(#SVGID_14_);}
	.st16{enable-background:new    ;}
</style>
<title>Zasób 33</title>
<g id="Warstwa_2">
	<g id="stage_1">
		
			<linearGradient id="SVGID_1_" gradientUnits="userSpaceOnUse" x1="-18.3698" y1="129.5113" x2="393.3902" y2="488.1413" gradientTransform="matrix(1 0 0 1 0 -132)">
			<stop  offset="0" style="stop-color:#1EA3D8"/>
			<stop  offset="0.69" style="stop-color:#04439E"/>
			<stop  offset="1" style="stop-color:#081B4E"/>
		</linearGradient>
		<path class="st0" d="M0.3,131c-5.4,93.4,67.8,126.3,147.3,95.6c62.9-24.2,170.2-80.4,108.6-162.1C198.3-12.3,87-26.2,26.7,54.1
			C10.8,75.2,1.9,103.1,0.3,131z"/>
	</g>
</g>
<path class="st1" d="M123.3,135.3H85.7l19.8,48.2c1.4,3.3-0.2,7.1-3.3,8.5l-17.4,7.6c-3.2,1.4-6.9-0.2-8.3-3.4l-18.8-45.8L27,182
	c-4.1,4.2-10.7,1-10.7-4.6V25.2c0-5.8,7.1-8.6,10.7-4.6l100.8,103.7C131.8,128.3,128.8,135.3,123.3,135.3L123.3,135.3z"/>
<path class="st2" d="M128,127.4H90.4l19.8,48.2c1.4,3.3-0.2,7.1-3.3,8.5l-17.4,7.6c-3.2,1.4-6.9-0.2-8.3-3.4l-18.8-45.8l-30.7,31.6
	c-4.1,4.2-10.7,1-10.7-4.6V17.3c0-5.8,7.1-8.6,10.7-4.6l100.8,103.7C136.5,120.3,133.5,127.4,128,127.4L128,127.4z"/>
<path class="st1" d="M257.3,179.2h-37.6l19.8,48.2c1.4,3.3-0.2,7.1-3.3,8.5l-17.4,7.6c-3.2,1.4-6.9-0.2-8.3-3.4l-18.8-45.8
	L161,225.9c-4.1,4.2-10.7,1-10.7-4.6V69.1c0-5.8,7.1-8.6,10.7-4.6l100.8,103.7C265.8,172.1,262.8,179.2,257.3,179.2L257.3,179.2z"/>
<path class="st2" d="M261.8,171.7h-37.6l19.8,48.2c1.4,3.3-0.2,7.1-3.3,8.5l-17.4,7.6c-3.2,1.4-6.9-0.2-8.3-3.4l-18.8-45.8
	l-30.7,31.6c-4.1,4.2-10.7,1-10.7-4.6V61.5c0-5.8,7.1-8.6,10.7-4.6l100.8,103.7C270.3,164.6,267.3,171.7,261.8,171.7L261.8,171.7z"
	/>
<linearGradient id="SVGID_2_" gradientUnits="userSpaceOnUse" x1="252.467" y1="103.3952" x2="438.7291" y2="312.3856" gradientTransform="matrix(-1 0 0 1 438.27 -132)">
	<stop  offset="0" style="stop-color:#F9979C"/>
	<stop  offset="1" style="stop-color:#FBD4BA"/>
</linearGradient>
<path class="st3" d="M93.2,89.3c0,0-1.5,37.2-14.7,42.7c0,0-19.1,8.9-33.9-13.4c0,0-10.3-15.4-8.2-21.2c3.1-1.1,6.4-1.3,9.4-0.4
	c0,0-1.6-6.9,1.6-11.3c0,0,5.8-4.7,17.2,0c0,0,27.2-1.5,28.7-4C93.3,81.9,93.5,85.7,93.2,89.3z"/>
<linearGradient id="SVGID_3_" gradientUnits="userSpaceOnUse" x1="70.3006" y1="247.885" x2="58.4899" y2="263.2675" gradientTransform="matrix(1 0 0 1 0 -132)">
	<stop  offset="0" style="stop-color:#B4402C"/>
	<stop  offset="1" style="stop-color:#D58578"/>
</linearGradient>
<path class="st4" d="M47.8,122.9c0,0,11.4,10.5,26.1,10.5C73.9,133.5,56.9,136.5,47.8,122.9z"/>
<linearGradient id="SVGID_4_" gradientUnits="userSpaceOnUse" x1="358.0557" y1="198.329" x2="473.3677" y2="259.5425" gradientTransform="matrix(-1 0 0 1 438.27 -132)">
	<stop  offset="0" style="stop-color:#1C59B0"/>
	<stop  offset="1" style="stop-color:#002861"/>
</linearGradient>
<path class="st5" d="M34.2,107.5c4.5,7.6,7.3,8.3,9.3,9.3c-1.5-3.1-2.7-6.4-3.6-9.6c-0.5-1.5-1.6-6-1.6-6c-0.9-7.1,8.3-0.7,8.3-0.7
	c-0.5-3.8-0.4-7.6,0.5-11.3c2-5.1,8.7-3.8,12.9-2.4c2.9,1.1,6,1.5,9.1,1.3c6.5-0.7,13.1-2,19.6-3.8c7.6-1.8,12.2-9.4,10.3-17.1
	c-0.2-0.7-0.4-1.5-0.7-2.2c-0.2-0.5-0.5-1.1-0.9-1.6c-4.2-7.3-13.2-9.1-19.1-9.6c-3.4-0.2-6.9-0.7-10.3-1.6
	c-31-7.3-38.3,21.8-38.3,21.8C25.5,91.2,34.2,107.5,34.2,107.5z"/>
<linearGradient id="SVGID_5_" gradientUnits="userSpaceOnUse" x1="16.4224" y1="237.606" x2="228.8985" y2="86.1132" gradientTransform="matrix(1 0 0 1 0 -132)">
	<stop  offset="0" style="stop-color:#FFFFFF;stop-opacity:0"/>
	<stop  offset="0.14" style="stop-color:#F2F8FF;stop-opacity:3.000000e-02"/>
	<stop  offset="0.35" style="stop-color:#CFE6FF;stop-opacity:0.11"/>
	<stop  offset="0.6" style="stop-color:#95C8FF;stop-opacity:0.24"/>
	<stop  offset="0.88" style="stop-color:#459FFF;stop-opacity:0.41"/>
	<stop  offset="1" style="stop-color:#1E8BFF;stop-opacity:0.5"/>
</linearGradient>
<path class="st6" d="M34.2,107.5c4.5,7.6,7.3,8.3,9.3,9.3c-1.5-3.1-2.7-6.4-3.6-9.6c-0.5-1.5-1.6-6-1.6-6c-0.9-7.1,8.3-0.7,8.3-0.7
	c-0.5-3.8-0.4-7.6,0.5-11.3c2-5.1,8.7-3.8,12.9-2.4c2.9,1.1,6,1.5,9.1,1.3c6.5-0.7,13.1-2,19.6-3.8c7.6-1.8,12.2-9.4,10.3-17.1
	c-0.2-0.7-0.4-1.5-0.7-2.2c-0.2-0.5-0.5-1.1-0.9-1.6c-4.2-7.3-13.2-9.1-19.1-9.6c-3.4-0.2-6.9-0.7-10.3-1.6
	c-31-7.3-38.3,21.8-38.3,21.8C25.5,91.2,34.2,107.5,34.2,107.5z"/>
<radialGradient id="SVGID_6_" cx="252.6982" cy="217.8691" r="161.2443" gradientTransform="matrix(1 0 0 1 0 -132)" gradientUnits="userSpaceOnUse">
	<stop  offset="0" style="stop-color:#1EA3D8"/>
	<stop  offset="1" style="stop-color:#04439E"/>
</radialGradient>
<path class="st7" d="M179,151.5c0,0,0,5-8.8,7.4c0,0,7,8,19,2.4c0,0,1.4-4.6,0.4-5.2c-1-0.6-8.2-4.2-8.2-4.2L179,151.5z"/>
<linearGradient id="SVGID_7_" gradientUnits="userSpaceOnUse" x1="129.3665" y1="280.834" x2="372.8854" y2="322.5723" gradientTransform="matrix(1 0 0 1 0 -132)">
	<stop  offset="0" style="stop-color:#FFFFFF;stop-opacity:0"/>
	<stop  offset="0.14" style="stop-color:#F2F8FF;stop-opacity:3.000000e-02"/>
	<stop  offset="0.35" style="stop-color:#CFE6FF;stop-opacity:0.11"/>
	<stop  offset="0.6" style="stop-color:#95C8FF;stop-opacity:0.24"/>
	<stop  offset="0.88" style="stop-color:#459FFF;stop-opacity:0.41"/>
	<stop  offset="1" style="stop-color:#1E8BFF;stop-opacity:0.5"/>
</linearGradient>
<path class="st8" d="M179,151.5c0,0,0,5-8.8,7.4c0,0,7,8,19,2.4c0,0,1.4-4.6,0.4-5.2c-1-0.6-8.2-4.2-8.2-4.2L179,151.5z"/>
<radialGradient id="SVGID_8_" cx="252.6982" cy="217.8691" r="161.2443" gradientTransform="matrix(1 0 0 1 0 -132)" gradientUnits="userSpaceOnUse">
	<stop  offset="0" style="stop-color:#1EA3D8"/>
	<stop  offset="1" style="stop-color:#04439E"/>
</radialGradient>
<path class="st9" d="M193.6,92.8c0,0-11.6-17.4-30.7-4c0,0-14.8,15.6,3.4,23.6L193.6,92.8z"/>
<linearGradient id="SVGID_9_" gradientUnits="userSpaceOnUse" x1="139.041" y1="224.3366" x2="382.5601" y2="266.075" gradientTransform="matrix(1 0 0 1 0 -132)">
	<stop  offset="0" style="stop-color:#FFFFFF;stop-opacity:0"/>
	<stop  offset="0.14" style="stop-color:#F2F8FF;stop-opacity:3.000000e-02"/>
	<stop  offset="0.35" style="stop-color:#CFE6FF;stop-opacity:0.11"/>
	<stop  offset="0.6" style="stop-color:#95C8FF;stop-opacity:0.24"/>
	<stop  offset="0.88" style="stop-color:#459FFF;stop-opacity:0.41"/>
	<stop  offset="1" style="stop-color:#1E8BFF;stop-opacity:0.5"/>
</linearGradient>
<path class="st10" d="M193.6,92.8c0,0-11.6-17.4-30.7-4c0,0-14.8,15.6,3.4,23.6L193.6,92.8z"/>
<radialGradient id="SVGID_10_" cx="200.8195" cy="192.656" r="158.8908" gradientTransform="matrix(1 0 0 1 0 -132)" gradientUnits="userSpaceOnUse">
	<stop  offset="0" style="stop-color:#1EA3D8"/>
	<stop  offset="1" style="stop-color:#04439E"/>
</radialGradient>
<path class="st11" d="M226.5,117.4c0,0,1-22.4-28.8-24.6c0,0-25-0.4-31.3,19.6l0,0c-5,7-7,15.6-5.6,24.2c1.6,9.2,6.2,18.4,18,14.8
	c0,0-4.8-5.4-2.2-9.2c0,0,4.4-4.2,8.6,5.4c0.8-2.4,2-4.8,3.2-7C203.8,138.3,217.4,130.1,226.5,117.4z"/>
<linearGradient id="SVGID_11_" gradientUnits="userSpaceOnUse" x1="135.3581" y1="245.8585" x2="378.877" y2="287.6218" gradientTransform="matrix(1 0 0 1 0 -132)">
	<stop  offset="0" style="stop-color:#FFFFFF;stop-opacity:0"/>
	<stop  offset="0.14" style="stop-color:#F2F8FF;stop-opacity:3.000000e-02"/>
	<stop  offset="0.35" style="stop-color:#CFE6FF;stop-opacity:0.11"/>
	<stop  offset="0.6" style="stop-color:#95C8FF;stop-opacity:0.24"/>
	<stop  offset="0.88" style="stop-color:#459FFF;stop-opacity:0.41"/>
	<stop  offset="1" style="stop-color:#1E8BFF;stop-opacity:0.5"/>
</linearGradient>
<path class="st12" d="M226.5,117.4c0,0,1-22.4-28.8-24.6c0,0-25-0.4-31.3,19.6l0,0c-5,7-7,15.6-5.6,24.2c1.6,9.2,6.2,18.4,18,14.8
	c0,0-4.8-5.4-2.2-9.2c0,0,4.4-4.2,8.6,5.4c0.8-2.4,2-4.8,3.2-7C203.8,138.3,217.4,130.1,226.5,117.4z"/>
<linearGradient id="SVGID_12_" gradientUnits="userSpaceOnUse" x1="-169.3215" y1="102.076" x2="284.8918" y2="345.0943" gradientTransform="matrix(0.9997 -2.303631e-02 2.303631e-02 0.9997 19.2833 -144.2956)">
	<stop  offset="0" style="stop-color:#F9979C"/>
	<stop  offset="1" style="stop-color:#FBD4BA"/>
</linearGradient>
<path class="st13" d="M223.3,168.3c-3,5.4-8,8.4-15.8,5.8c0,0-18.2-5.8-23.2-19v-0.2c0,0-11.6-3.4-7.4-13.4c0,0,3.2-4,8.8,5.2
	c-0.2-2.4,0.6-4.8,2.2-6.8c0,0,24.6-3.4,38.7-22.4C226.5,117.4,231.9,153.1,223.3,168.3z"/>
<linearGradient id="SVGID_13_" gradientUnits="userSpaceOnUse" x1="-181.834" y1="125.4616" x2="272.3792" y2="368.4797" gradientTransform="matrix(0.9997 -2.303631e-02 2.303631e-02 0.9997 19.2833 -144.2956)">
	<stop  offset="0" style="stop-color:#B4402C"/>
	<stop  offset="1" style="stop-color:#D58578"/>
</linearGradient>
<path class="st14" d="M213.4,175.1c-2,0-4-0.2-6-0.8c0,0-18.2-5.8-23.2-19C185.2,156.7,197.2,170.7,213.4,175.1z"/>
<linearGradient id="SVGID_14_" gradientUnits="userSpaceOnUse" x1="101.6644" y1="307.4449" x2="453.5226" y2="260.4737" gradientTransform="matrix(0.9997 -2.303631e-02 2.303631e-02 0.9997 19.2833 -144.2956)">
	<stop  offset="0" style="stop-color:#F9CCCE;stop-opacity:0"/>
	<stop  offset="1" style="stop-color:#FBEADF"/>
</linearGradient>
<path class="st15" d="M223.3,168.3c-3,5.4-8,8.4-15.8,5.8c0,0-18.2-5.8-23.2-19v-0.2c0,0-11.6-3.4-7.4-13.4c0,0,3.2-4,8.8,5.2
	c-0.2-2.4,0.6-4.8,2.2-6.8c0,0,24.6-3.4,38.7-22.4C226.3,117.4,231.9,153.1,223.3,168.3z"/>
<g>
	<g>
		<g>
			<g>
				<g>
					<g>
						<g>
							<g>
								<g>
									<g>
										<g>
											<g>
												<g>
													<g>
														<g>
															<g class="st16">
																<g>
																	<g>
																		<g>
																			<g>
																				<g>
																					<g>
																						<g>
																							<g>
																								<g>
																									<g>
																										<g>
																											<g>
																												<g>
																												</g>
																											</g>
																										</g>
																									</g>
																								</g>
																							</g>
																						</g>
																					</g>
																				</g>
																			</g>
																		</g>
																	</g>
																</g>
															</g>
														</g>
													</g>
												</g>
											</g>
										</g>
									</g>
								</g>
							</g>
						</g>
					</g>
				</g>
			</g>
		</g>
	</g>
</g>
</svg>
