<?xml version="1.0" encoding="utf-8"?>
<!-- Generator: Adobe Illustrator 19.2.0, SVG Export Plug-In . SVG Version: 6.00 Build 0)  -->
<svg version="1.1" id="Warstwa_1" xmlns="http://www.w3.org/2000/svg" xmlns:xlink="http://www.w3.org/1999/xlink" x="0px" y="0px"
	 viewBox="0 0 274.7 307.1" style="enable-background:new 0 0 274.7 307.1;" xml:space="preserve">
<style type="text/css">
	.st0{fill:url(#SVGID_1_);}
	.st1{fill:url(#SVGID_2_);}
	.st2{fill:url(#SVGID_3_);}
	.st3{fill:url(#SVGID_4_);}
	.st4{fill:url(#SVGID_5_);}
	.st5{fill:url(#SVGID_6_);}
	.st6{fill:url(#SVGID_7_);}
	.st7{fill:url(#SVGID_8_);}
	.st8{fill:url(#SVGID_9_);}
	.st9{fill:#FFFFFF;}
	.st10{opacity:0.65;fill:url(#SVGID_10_);enable-background:new    ;}
	.st11{opacity:0.65;}
	.st12{fill:url(#SVGID_11_);}
	.st13{fill:url(#SVGID_12_);}
	.st14{opacity:0.5;fill:url(#SVGID_13_);enable-background:new    ;}
	.st15{fill:url(#SVGID_14_);}
	.st16{fill:url(#SVGID_15_);}
	.st17{fill:url(#SVGID_16_);}
	.st18{fill:url(#SVGID_17_);}
	.st19{fill:url(#SVGID_18_);}
	.st20{fill:url(#SVGID_19_);}
	.st21{fill:url(#SVGID_20_);}
	.st22{fill:url(#SVGID_21_);}
	.st23{fill:url(#SVGID_22_);}
	.st24{fill:url(#SVGID_23_);}
	.st25{fill:url(#SVGID_24_);}
	.st26{fill:url(#SVGID_25_);}
	.st27{fill:url(#SVGID_26_);}
	.st28{fill:url(#SVGID_27_);}
	.st29{opacity:0.65;fill:url(#SVGID_28_);enable-background:new    ;}
	.st30{fill:url(#SVGID_29_);}
	.st31{fill:url(#SVGID_30_);}
	.st32{opacity:0.5;fill:url(#SVGID_31_);enable-background:new    ;}
	.st33{fill:url(#SVGID_32_);}
	.st34{fill:url(#SVGID_33_);}
	.st35{fill:url(#SVGID_34_);}
	.st36{fill:url(#SVGID_35_);}
	.st37{fill:url(#SVGID_36_);}
	.st38{fill:url(#SVGID_37_);}
	.st39{fill:url(#SVGID_38_);}
	.st40{fill:url(#SVGID_39_);}
	.st41{fill:url(#SVGID_40_);}
	.st42{fill:url(#SVGID_41_);}
	.st43{fill:url(#SVGID_42_);}
	.st44{fill:url(#SVGID_43_);}
	.st45{fill:url(#SVGID_44_);}
	.st46{fill:url(#SVGID_45_);}
	.st47{opacity:0.65;fill:url(#SVGID_46_);enable-background:new    ;}
	.st48{fill:url(#SVGID_47_);}
	.st49{fill:url(#SVGID_48_);}
	.st50{opacity:0.5;fill:url(#SVGID_49_);enable-background:new    ;}
	.st51{fill:url(#SVGID_50_);}
	.st52{fill:url(#SVGID_51_);}
	.st53{fill:url(#SVGID_52_);}
	.st54{fill:url(#SVGID_53_);}
	.st55{fill:url(#SVGID_54_);}
</style>
<title>Zasób 38</title>
<g id="Warstwa_2">
	<g id="stage_2">
		
			<linearGradient id="SVGID_1_" gradientUnits="userSpaceOnUse" x1="160.5161" y1="15.7094" x2="-97.5526" y2="156.5706" gradientTransform="matrix(1 0 0 -1 0 175.0855)">
			<stop  offset="0" style="stop-color:#114A7A"/>
			<stop  offset="1" style="stop-color:#022659"/>
		</linearGradient>
		<path class="st0" d="M14.5,179.2c-2,0.2-3.9-1.1-4.4-3.1c-0.2-0.6-0.2-1.2-0.2-1.7V99.5c0,0-0.3-7,5.2-10.9l96.1-53.9
			c0,0,3.1-2,5.4,0.7L14.5,179.2z"/>
		
			<linearGradient id="SVGID_2_" gradientUnits="userSpaceOnUse" x1="-23.1998" y1="148.3649" x2="92.9413" y2="42.1596" gradientTransform="matrix(1 0 0 -1 0 175.0855)">
			<stop  offset="0" style="stop-color:#1EA3D8"/>
			<stop  offset="0.69" style="stop-color:#04439E"/>
			<stop  offset="1" style="stop-color:#081B4E"/>
		</linearGradient>
		<path class="st1" d="M11.1,101.1v74c0,0.8,0.2,1.6,0.6,2.4c0.6,1.2,2,2.4,4.7,1.4l97.1-54.4c0,0,3.9-3.3,4.3-8.1V38.9
			c0,0,0.3-6.2-5.7-3.5L16.2,89.3C16.2,89.3,11.1,91.5,11.1,101.1z"/>
		
			<linearGradient id="SVGID_3_" gradientUnits="userSpaceOnUse" x1="-36.466" y1="134.3263" x2="131.4322" y2="25.5958" gradientTransform="matrix(1 0 0 -1 0 175.0855)">
			<stop  offset="6.000000e-02" style="stop-color:#1ED8D8"/>
			<stop  offset="1" style="stop-color:#008BA1"/>
		</linearGradient>
		<path class="st2" d="M20.4,182.7c-2.1,0-3.9-1.4-4.3-3.4c-0.2-0.6-0.3-1.2-0.2-1.8v-74.9c0-0.2-0.2-5.7,3.7-9.8
			c0.8-0.8,1.6-1.4,2.6-1.9l95.3-53.4c0.7-0.4,1.6-0.7,2.4-0.7c0.4,0,0.8,0.1,1.2,0.2c1.4,0.4,2.5,1.6,2.8,3l0.2,0.9l-1.1,0.6
			l-0.1-0.7c-0.2-1.2-1.3-2.7-2.6-2.8c-0.1,0-0.2,0-0.3,0c-0.7,0-1.5,0.2-2.1,0.6L21.8,92.5c0,0-5.1,3.1-4.9,11.4v73.6
			c0,1.1,0.3,2.1,0.9,3c0.6,0.8,1.5,1.2,2.5,1.2l0,0c0.4,0,0.8-0.1,1.2-0.3l0.7-0.4l0.2,1.1l-0.7,0.4
			C21.3,182.6,20.8,182.7,20.4,182.7L20.4,182.7z"/>
		
			<linearGradient id="SVGID_4_" gradientUnits="userSpaceOnUse" x1="-376.4167" y1="7.0108" x2="237.7063" y2="82.2745" gradientTransform="matrix(1 0 0 -1 0 175.0855)">
			<stop  offset="0" style="stop-color:#1E8BD8"/>
			<stop  offset="1" style="stop-color:#FFFFFF"/>
		</linearGradient>
		<path class="st3" d="M26.8,185.2c-2,0.2-3.9-1.1-4.4-3.1c-0.2-0.6-0.2-1.2-0.2-1.7v-74.9c0,0-0.3-7,5.2-10.9l96.1-53.9
			c0,0,3.1-2,5.4,0.7L26.8,185.2z"/>
		
			<linearGradient id="SVGID_5_" gradientUnits="userSpaceOnUse" x1="-45.7229" y1="-464.9044" x2="81.1142" y2="80.1762" gradientTransform="matrix(1 0 0 -1 0 175.0855)">
			<stop  offset="0" style="stop-color:#1E8BD8"/>
			<stop  offset="1" style="stop-color:#FFFFFF"/>
		</linearGradient>
		<path class="st4" d="M130.1,44.9v77.5c-0.4,4.8-4.3,8.1-4.3,8.1l-87.1,48.7l-10,5.6c-2.7,1-4-0.2-4.7-1.3
			c-0.4-0.7-0.6-1.6-0.6-2.4v-74c0-9.6,5.1-11.8,5.1-11.8L116,46.1l8.4-4.7C130.4,38.7,130.1,44.9,130.1,44.9z"/>
		
			<linearGradient id="SVGID_6_" gradientUnits="userSpaceOnUse" x1="35.424" y1="76.8414" x2="8.5402" y2="6.8368" gradientTransform="matrix(1 0 0 -1 0 175.0855)">
			<stop  offset="0" style="stop-color:#1EA3D8"/>
			<stop  offset="1" style="stop-color:#04439E"/>
		</linearGradient>
		<path class="st5" d="M22.9,116.2c-6.1,2.8-10.6,10.6-10.6,16.5c0,0.2,0,0.5,0,0.7c0.3,4.6,7.8,9.8,13.4,6.7
			c5.9-3.2,13.7-17.8,9.6-22C32,114.9,27.1,114.1,22.9,116.2z"/>
		
			<linearGradient id="SVGID_7_" gradientUnits="userSpaceOnUse" x1="17.9893" y1="58.9881" x2="49.1638" y2="12.8823" gradientTransform="matrix(1 0 0 -1 0 175.0855)">
			<stop  offset="0" style="stop-color:#1EA3D8"/>
			<stop  offset="1" style="stop-color:#04439E"/>
		</linearGradient>
		<path class="st6" d="M26.7,118.4c-5.9,3.2-10.6,10.7-10.6,16.5c0,0.2,0,0.5,0,0.7c0.4,5.3,5,7.1,10.6,4
			c5.9-3.2,10.6-10.6,10.6-16.5S32.6,115.1,26.7,118.4z"/>
		
			<linearGradient id="SVGID_8_" gradientUnits="userSpaceOnUse" x1="34.8127" y1="46.9649" x2="13.6845" y2="-17.2841" gradientTransform="matrix(1 0 0 -1 0 175.0855)">
			<stop  offset="0" style="stop-color:#1EA3D8"/>
			<stop  offset="1" style="stop-color:#04439E"/>
		</linearGradient>
		<path class="st7" d="M24.4,144.5c-6.1,2.8-10.6,10.6-10.6,16.5c0,0.3,0,0.5,0,0.7c0.3,4.6,7.8,9.8,13.4,6.7
			c5.9-3.2,13.7-17.8,9.6-22C33.6,143.2,28.6,142.5,24.4,144.5z"/>
		
			<linearGradient id="SVGID_9_" gradientUnits="userSpaceOnUse" x1="33.9369" y1="33.5591" x2="6.4034" y2="-43.5005" gradientTransform="matrix(1 0 0 -1 0 175.0855)">
			<stop  offset="0" style="stop-color:#1EA3D8"/>
			<stop  offset="1" style="stop-color:#04439E"/>
		</linearGradient>
		<path class="st8" d="M28.3,146.7c-5.9,3.2-10.6,10.6-10.6,16.5c0,0.3,0,0.5,0,0.7c0.4,5.3,5,7.1,10.6,4
			c5.9-3.2,10.6-10.6,10.6-16.5C38.9,145.5,34.1,143.5,28.3,146.7z"/>
		<path class="st9" d="M29.4,124.6l-2.7,4.2l-2.6-2.2c0,0-1.7-0.8-0.8,0.8l2.8,2.3l-2.8,4.3c-0.8,2.4,0.9,0.6,0.9,0.6l2.7-4.2
			l2.2,1.8c0,0,2.1,1,0.5-1l-2.2-1.8l2.9-4.5C30.9,123.4,29.4,124.6,29.4,124.6z"/>
		<polygon class="st9" points="26.3,154.6 26.3,162.3 31,159.7 31,153.5 29.7,154.7 29.7,152.8 		"/>
		
			<linearGradient id="SVGID_10_" gradientUnits="userSpaceOnUse" x1="18.2295" y1="-20.9678" x2="211.4974" y2="252.9762" gradientTransform="matrix(1 0 0 -1 0 175.0855)">
			<stop  offset="0" style="stop-color:#FFFFFF;stop-opacity:0"/>
			<stop  offset="0.14" style="stop-color:#F2F8FF;stop-opacity:3.000000e-02"/>
			<stop  offset="0.35" style="stop-color:#CFE6FF;stop-opacity:0.11"/>
			<stop  offset="0.6" style="stop-color:#95C8FF;stop-opacity:0.24"/>
			<stop  offset="0.88" style="stop-color:#459FFF;stop-opacity:0.41"/>
			<stop  offset="1" style="stop-color:#1E8BFF;stop-opacity:0.5"/>
		</linearGradient>
		<path class="st10" d="M130.1,44.9v77.5c-0.4,4.8-4.3,8.1-4.3,8.1l-87.1,48.7l-10,5.6c-2.7,1-4-0.2-4.7-1.3
			c-0.4-0.7-0.6-1.6-0.6-2.4v-74c0-9.6,5.1-11.8,5.1-11.8L116,46.1l8.4-4.7C130.4,38.7,130.1,44.9,130.1,44.9z"/>
		<g class="st11">
			
				<linearGradient id="SVGID_11_" gradientUnits="userSpaceOnUse" x1="10.8924" y1="35.8044" x2="61.3379" y2="77.8157" gradientTransform="matrix(1 0 0 -1 0 175.0855)">
				<stop  offset="0" style="stop-color:#FFFFFF;stop-opacity:0"/>
				<stop  offset="0.14" style="stop-color:#F2F8FF;stop-opacity:3.000000e-02"/>
				<stop  offset="0.35" style="stop-color:#CFE6FF;stop-opacity:0.11"/>
				<stop  offset="0.6" style="stop-color:#95C8FF;stop-opacity:0.24"/>
				<stop  offset="0.88" style="stop-color:#459FFF;stop-opacity:0.41"/>
				<stop  offset="1" style="stop-color:#1E8BFF;stop-opacity:0.5"/>
			</linearGradient>
			<path class="st12" d="M18.8,140.4c1.3,0.7,2.8,0.9,4.2,0.5c1-0.1,1.9-0.4,2.7-0.9l0,0c0.3-0.1,0.6-0.3,1-0.5
				c5.9-3.2,10.6-10.6,10.6-16.5c0-2.3-0.7-4-1.9-5l0,0c-3.3-3.2-8.3-4-12.5-1.9c-6.1,2.8-10.6,10.6-10.6,16.5c0,0.2,0,0.5,0,0.7
				C12.5,136.2,15.4,139.2,18.8,140.4z"/>
			
				<linearGradient id="SVGID_12_" gradientUnits="userSpaceOnUse" x1="10.0786" y1="0.4127" x2="57.0364" y2="53.6655" gradientTransform="matrix(1 0 0 -1 0 175.0855)">
				<stop  offset="0" style="stop-color:#FFFFFF;stop-opacity:0"/>
				<stop  offset="0.14" style="stop-color:#F2F8FF;stop-opacity:3.000000e-02"/>
				<stop  offset="0.35" style="stop-color:#CFE6FF;stop-opacity:0.11"/>
				<stop  offset="0.6" style="stop-color:#95C8FF;stop-opacity:0.24"/>
				<stop  offset="0.88" style="stop-color:#459FFF;stop-opacity:0.41"/>
				<stop  offset="1" style="stop-color:#1E8BFF;stop-opacity:0.5"/>
			</linearGradient>
			<path class="st13" d="M37,146.5L37,146.5c-3.4-3.2-8.3-4-12.5-1.9c-6.1,2.8-10.6,10.6-10.6,16.5c0,0.3,0,0.5,0,0.7
				c0.2,2.8,3.1,5.8,6.5,7.1c1.3,0.7,2.8,0.9,4.2,0.5c0.9-0.1,1.9-0.4,2.7-0.9l0,0c0.3-0.1,0.6-0.3,1-0.5
				c5.9-3.2,10.6-10.6,10.6-16.5C38.9,149.2,38.2,147.5,37,146.5z"/>
		</g>
		
			<linearGradient id="SVGID_13_" gradientUnits="userSpaceOnUse" x1="-168.4345" y1="359.456" x2="232.8552" y2="-117.4407" gradientTransform="matrix(1 0 0 -1 0 175.0855)">
			<stop  offset="0" style="stop-color:#EEE2F6"/>
			<stop  offset="0.11" style="stop-color:#BCBDDB"/>
			<stop  offset="0.23" style="stop-color:#8A98C1"/>
			<stop  offset="0.35" style="stop-color:#6078AB"/>
			<stop  offset="0.48" style="stop-color:#3D5F98"/>
			<stop  offset="0.6" style="stop-color:#224B8A"/>
			<stop  offset="0.73" style="stop-color:#0F3C80"/>
			<stop  offset="0.86" style="stop-color:#04347A"/>
			<stop  offset="1" style="stop-color:#003178"/>
		</linearGradient>
		<path class="st14" d="M125.3,61.5v60.9c-0.3,3.8-3.4,6.3-3.4,6.3l-68.5,38.4l-7.8,4.4c-2.1,0.8-3.2-0.1-3.7-1.1
			c-0.3-0.6-0.5-1.2-0.4-1.8v-58.2c0-7.6,4-9.2,4-9.2l68.8-38.7l6.6-3.7C125.6,56.6,125.3,61.5,125.3,61.5z"/>
		
			<linearGradient id="SVGID_14_" gradientUnits="userSpaceOnUse" x1="42.0527" y1="91.5257" x2="197.7901" y2="-24.7931" gradientTransform="matrix(1 0 0 -1 0 175.0855)">
			<stop  offset="0" style="stop-color:#18DEC3"/>
			<stop  offset="1" style="stop-color:#05A794"/>
		</linearGradient>
		<path class="st15" d="M130.4,64.8v60.9c-0.3,3.8-3.4,6.3-3.4,6.3l-68.5,38.4l-7.8,4.4c-2.1,0.8-3.2-0.1-3.7-1.1
			c-0.3-0.6-0.5-1.2-0.4-1.8v-58.2c0-7.6,4-9.2,4-9.2l68.8-38.7l6.6-3.7C130.6,59.9,130.4,64.8,130.4,64.8z"/>
		
			<linearGradient id="SVGID_15_" gradientUnits="userSpaceOnUse" x1="51.7197" y1="82.6272" x2="106.6458" y2="-5.0976" gradientTransform="matrix(1 0 0 -1 0 175.0855)">
			<stop  offset="0" style="stop-color:#1EA3D8"/>
			<stop  offset="0.69" style="stop-color:#04439E"/>
			<stop  offset="1" style="stop-color:#081B4E"/>
		</linearGradient>
		<path class="st16" d="M82.3,132.1c-5,2.8-9.1,9.1-9.1,14.2c0,0.2,0,0.4,0,0.6c0.3,4.5,4.3,6.1,9.1,3.4c5-2.8,9.1-9.1,9.1-14.1
			C91.3,131.2,87.3,129.4,82.3,132.1z M81.5,149c-1.1,0.7-2.4,1.1-3.7,1.1c-2.8,0-3.2-2.4-3.2-3.8c0-4.2,3.4-9.7,7.6-12.4
			c0.2-0.2,0.5-0.3,0.7-0.4c1.1-0.7,2.4-1.1,3.7-1.1c2.8,0,3.2,2.4,3.2,3.8C89.8,140.6,86,146.5,81.5,149z"/>
		
			<linearGradient id="SVGID_16_" gradientUnits="userSpaceOnUse" x1="75.8235" y1="97.7226" x2="130.7496" y2="9.9978" gradientTransform="matrix(1 0 0 -1 0 175.0855)">
			<stop  offset="0" style="stop-color:#1EA3D8"/>
			<stop  offset="0.69" style="stop-color:#04439E"/>
			<stop  offset="1" style="stop-color:#081B4E"/>
		</linearGradient>
		<path class="st17" d="M107.2,116.8c-0.2,0.1-0.5,0.2-0.7,0.4c-5,2.8-9.1,9.1-9.1,14.2c0,3.6,2.1,5.5,5.1,5.4
			c1.4-0.1,2.8-0.6,4-1.3c5-2.8,9.1-9.1,9.1-14.1C115.6,116.5,111.9,114.6,107.2,116.8z M105.7,134.1c-0.9,0.5-1.8,0.9-2.8,1
			c-0.3,0-0.6,0.1-0.8,0.1c-2.8,0-3.2-2.4-3.2-3.8c0-4.4,3.8-10.3,8.3-12.8c1.1-0.7,2.4-1.1,3.7-1.1c2.8,0,3.2,2.4,3.2,3.8
			C114.1,125.7,110.3,131.6,105.7,134.1z"/>
		<path class="st9" d="M82.3,132.1v1.8c-4.2,2.7-7.6,8.2-7.6,12.4l-1.5,0.6c0-0.2,0-0.4,0-0.6C73.2,141.3,77.2,134.9,82.3,132.1z"/>
		<path class="st9" d="M107.2,116.8v1.7c-4.5,2.5-8.3,8.4-8.3,12.8c0,1.4,0.4,3.8,3.2,3.8c0.3,0,0.6,0,0.8-0.1l-0.4,1.6
			c-3,0.2-5.1-1.8-5.1-5.4c0-5,4.1-11.4,9.1-14.2C106.7,117.1,107,116.9,107.2,116.8z"/>
		<polygon class="st9" points="64.1,134.6 61.1,136.2 61.1,135.2 64.1,133.7 		"/>
		<polygon class="st9" points="73.2,129.3 70.1,130.8 70.1,129.9 73.2,128.4 		"/>
		<polygon class="st9" points="81.7,123.9 78.7,125.4 78.7,124.5 81.7,122.9 		"/>
		<polygon class="st9" points="90.3,119.6 87.3,121.1 87.3,120.2 90.3,118.7 		"/>
		<polygon class="st9" points="98.9,114.2 95.9,115.8 95.9,114.9 98.9,113.3 		"/>
		<polygon class="st9" points="107.6,108.7 104.6,110.2 104.6,109.3 107.6,107.8 		"/>
		<polygon class="st9" points="116.3,104.2 113.2,105.7 113.2,104.8 116.3,103.3 		"/>
		<polygon class="st9" points="63.2,132.7 61.9,133.4 61.9,118.5 63.2,117.8 		"/>
		<polygon class="st9" points="80.5,122.2 79.2,122.8 79.2,115.9 80.5,115 		"/>
		<polygon class="st9" points="89.2,118 87.9,118.7 87.9,95 89.2,94.4 		"/>
		<polygon class="st9" points="97.8,112.8 96.6,113.4 96.6,102.6 97.8,101.9 		"/>
		<polygon class="st9" points="115.2,102.9 113.9,103.5 113.9,94.2 115.2,93.7 		"/>
		<polygon class="st9" points="106.5,92.6 106.5,86.9 105.2,87.6 105.2,102.5 105.2,102.5 105.2,108.1 106.5,107.5 		"/>
		<polygon class="st9" points="70.6,113.9 70.6,117.8 70.6,124.2 70.6,128.1 71.9,127.5 71.9,123.6 71.9,117 71.9,113.1 		"/>
		
			<linearGradient id="SVGID_17_" gradientUnits="userSpaceOnUse" x1="63.184" y1="160.6296" x2="131.0372" y2="12.3212" gradientTransform="matrix(0.9998 1.780142e-02 1.780142e-02 -0.9998 -14.503 186.2012)">
			<stop  offset="0" style="stop-color:#1EA3D8"/>
			<stop  offset="0.69" style="stop-color:#04439E"/>
			<stop  offset="1" style="stop-color:#081B4E"/>
		</linearGradient>
		<path class="st18" d="M60.9,130v-1.6c0,0,3.8-1.8,6.9-7.7c0.3-0.7,0.7-1.3,1.1-1.9c1.9-3.1,5-4.9,8.3-5c2.6-0.1,4.3-3.2,5.4-5.9
			c0.7-1.7,1.3-3.5,1.9-5.2c0.8-2.4,1.7-4.7,2.7-7c0.3-0.8,1.1-1.4,1.9-1.6c1-0.1,2,0.4,2.5,1.2c0.9,1.2,1.6,2.5,2.1,3.8
			c0.1,0.3,0.2,0.5,0.3,0.8c0.3,0.9,0.7,1.7,1.3,2.4c0.3,0.5,0.9,0.7,1.5,0.6c1-0.3,1.9-1.8,2.4-3c0.1-0.2,2-5.3,4.2-8
			c0.9-1.2,2.4-1.8,3.9-1.4c1.3,0.4,2.4,1,3.5,1.8c0.9,0.6,1.9,0.9,3,0.8c0.7-0.1,1.4-0.4,2-0.8v1.6c-1.3,0.7-2.8,0.8-4.2,0.4
			c-0.3-0.1-0.6-0.3-0.9-0.5c-1.1-0.8-2.3-1.5-3.6-1.8c-1.1-0.3-2.3,0.1-2.9,1c-2.1,2.5-4,7.6-4,7.6c-0.6,1.5-1.7,3.3-3.1,3.7
			c-0.9,0.2-1.9-0.2-2.4-0.9c-0.7-0.8-1.2-1.8-1.5-2.8c-0.1-0.3-0.2-0.5-0.3-0.8c-0.5-1.3-1.2-2.5-2-3.6c-0.4-0.5-1-0.8-1.6-0.8
			c-0.5,0.1-1,0.5-1.2,1c-1,2.2-1.9,4.5-2.6,6.8c-0.6,1.8-1.2,3.6-2,5.3c-1.3,3.1-3.1,6.5-6.3,6.6c-3.1,0.1-5.9,1.8-7.5,4.5
			c-0.4,0.6-0.7,1.2-1,1.8C65.3,127.7,61,129.9,60.9,130z"/>
		
			<linearGradient id="SVGID_18_" gradientUnits="userSpaceOnUse" x1="127.9568" y1="22.8515" x2="-107.4573" y2="225.7552" gradientTransform="matrix(1 0 0 -1 0 175.0855)">
			<stop  offset="0" style="stop-color:#FFFFFF;stop-opacity:0"/>
			<stop  offset="1" style="stop-color:#5CFFCC;stop-opacity:0.5"/>
		</linearGradient>
		<path class="st19" d="M125.9,62l-6.6,3.7l-68.8,38.7c0,0-4,1.7-4,9.2v58.2c0,0.6,0.1,1.3,0.4,1.8c0.5,0.9,1.5,1.9,3.7,1.1l7.8-4.4
			l68.5-38.4c0,0,3.1-2.6,3.4-6.3V64.8C130.4,64.8,130.6,59.9,125.9,62z"/>
	</g>
</g>
<linearGradient id="SVGID_19_" gradientUnits="userSpaceOnUse" x1="220.7566" y1="-24.7853" x2="-37.3121" y2="116.0757" gradientTransform="matrix(1 0 0 -1 0 175.0855)">
	<stop  offset="0" style="stop-color:#114A7A"/>
	<stop  offset="1" style="stop-color:#022659"/>
</linearGradient>
<path class="st20" d="M74.7,219.7c-2,0.2-3.9-1.1-4.4-3.1c-0.2-0.6-0.2-1.2-0.2-1.7V140c0,0-0.3-7,5.2-10.9l96.2-53.9
	c0,0,3.1-2,5.4,0.7L74.7,219.7z"/>
<linearGradient id="SVGID_20_" gradientUnits="userSpaceOnUse" x1="37.0187" y1="107.8479" x2="153.1597" y2="1.6428" gradientTransform="matrix(1 0 0 -1 0 175.0855)">
	<stop  offset="0" style="stop-color:#1EA3D8"/>
	<stop  offset="0.69" style="stop-color:#04439E"/>
	<stop  offset="1" style="stop-color:#081B4E"/>
</linearGradient>
<path class="st21" d="M71.3,141.6v74c0,0.8,0.2,1.6,0.6,2.4c0.6,1.2,2,2.4,4.7,1.4l97.1-54.4c0,0,3.9-3.3,4.3-8.1V79.4
	c0,0,0.3-6.2-5.7-3.5l-95.9,53.9C76.4,129.8,71.3,132,71.3,141.6z"/>
<linearGradient id="SVGID_21_" gradientUnits="userSpaceOnUse" x1="23.7598" y1="93.8096" x2="191.658" y2="-14.9208" gradientTransform="matrix(1 0 0 -1 0 175.0855)">
	<stop  offset="6.000000e-02" style="stop-color:#1ED8D8"/>
	<stop  offset="1" style="stop-color:#008BA1"/>
</linearGradient>
<path class="st22" d="M80.6,223.2c-2.1,0-3.9-1.4-4.3-3.4c-0.2-0.6-0.3-1.2-0.2-1.8v-74.9c0-0.2-0.2-5.7,3.7-9.8
	c0.8-0.8,1.6-1.4,2.6-1.9L177.7,78c0.7-0.4,1.6-0.7,2.4-0.7c0.4,0,0.8,0.1,1.2,0.2c1.4,0.4,2.5,1.6,2.8,3l0.2,0.9l-1.1,0.6l-0.2-0.8
	c-0.2-1.2-1.3-2.7-2.6-2.8c-0.1,0-0.2,0-0.3,0c-0.7,0-1.5,0.2-2.1,0.6l-95.9,53.9c0,0-5.1,3.1-4.9,11.4v73.6c0,1.1,0.3,2.1,0.9,3
	c0.6,0.8,1.5,1.2,2.5,1.2l0,0c0.4,0,0.8-0.1,1.2-0.3l0.7-0.4l0.2,1.1l-0.7,0.4C81.6,223.1,81.1,223.2,80.6,223.2L80.6,223.2z"/>
<linearGradient id="SVGID_22_" gradientUnits="userSpaceOnUse" x1="-316.1706" y1="-33.5019" x2="297.9525" y2="41.7618" gradientTransform="matrix(1 0 0 -1 0 175.0855)">
	<stop  offset="0" style="stop-color:#1E8BD8"/>
	<stop  offset="1" style="stop-color:#FFFFFF"/>
</linearGradient>
<path class="st23" d="M87.1,225.7c-2,0.2-3.9-1.1-4.4-3.1c-0.2-0.6-0.2-1.2-0.2-1.7V146c0,0-0.3-7,5.2-10.9l96.2-53.9
	c0,0,3.1-2,5.4,0.7L87.1,225.7z"/>
<linearGradient id="SVGID_23_" gradientUnits="userSpaceOnUse" x1="14.5876" y1="-505.4097" x2="141.4246" y2="39.671" gradientTransform="matrix(1 0 0 -1 0 175.0855)">
	<stop  offset="0" style="stop-color:#1E8BD8"/>
	<stop  offset="1" style="stop-color:#FFFFFF"/>
</linearGradient>
<path class="st24" d="M190.4,85.4v77.5c-0.4,4.8-4.3,8.1-4.3,8.1L99,219.8l-10,5.6c-2.7,1-4-0.2-4.7-1.3c-0.4-0.7-0.6-1.6-0.6-2.4
	v-74c0-9.6,5.1-11.8,5.1-11.8l87.5-49.2l8.4-4.7C190.7,79.2,190.4,85.4,190.4,85.4z"/>
<linearGradient id="SVGID_24_" gradientUnits="userSpaceOnUse" x1="95.633" y1="36.3649" x2="68.7492" y2="-33.6397" gradientTransform="matrix(1 0 0 -1 0 175.0855)">
	<stop  offset="0" style="stop-color:#1EA3D8"/>
	<stop  offset="1" style="stop-color:#04439E"/>
</linearGradient>
<path class="st25" d="M83.1,156.7c-6.1,2.8-10.6,10.6-10.6,16.5c0,0.2,0,0.5,0,0.7c0.3,4.6,7.8,9.8,13.4,6.7
	c5.9-3.2,13.7-17.8,9.6-22C92.3,155.4,87.3,154.6,83.1,156.7z"/>
<linearGradient id="SVGID_25_" gradientUnits="userSpaceOnUse" x1="78.2456" y1="18.5073" x2="109.42" y2="-27.5985" gradientTransform="matrix(1 0 0 -1 0 175.0855)">
	<stop  offset="0" style="stop-color:#1EA3D8"/>
	<stop  offset="1" style="stop-color:#04439E"/>
</linearGradient>
<path class="st26" d="M87,158.9c-5.9,3.2-10.6,10.7-10.6,16.5c0,0.2,0,0.5,0,0.7c0.4,5.3,5,7.1,10.6,4c5.9-3.2,10.6-10.6,10.6-16.5
	C97.5,157.7,92.8,155.6,87,158.9z"/>
<linearGradient id="SVGID_26_" gradientUnits="userSpaceOnUse" x1="95.1103" y1="6.4575" x2="73.982" y2="-57.7915" gradientTransform="matrix(1 0 0 -1 0 175.0855)">
	<stop  offset="0" style="stop-color:#1EA3D8"/>
	<stop  offset="1" style="stop-color:#04439E"/>
</linearGradient>
<path class="st27" d="M84.7,185c-6.1,2.8-10.6,10.6-10.6,16.5c0,0.3,0,0.5,0,0.7c0.3,4.6,7.8,9.8,13.4,6.7c5.9-3.2,13.7-17.8,9.6-22
	C93.8,183.7,88.8,183,84.7,185z"/>
<linearGradient id="SVGID_27_" gradientUnits="userSpaceOnUse" x1="94.1451" y1="-6.9179" x2="66.6115" y2="-83.9774" gradientTransform="matrix(1 0 0 -1 0 175.0855)">
	<stop  offset="0" style="stop-color:#1EA3D8"/>
	<stop  offset="1" style="stop-color:#04439E"/>
</linearGradient>
<path class="st28" d="M88.5,187.2c-5.9,3.2-10.6,10.6-10.6,16.5c0,0.3,0,0.5,0,0.7c0.4,5.3,5,7.1,10.6,4
	c5.9-3.2,10.6-10.6,10.6-16.5C99.1,186.1,94.4,184,88.5,187.2z"/>
<path class="st9" d="M89.7,165l-2.7,4.2l-2.6-2.2c0,0-1.7-0.8-0.8,0.8l2.8,2.3l-2.8,4.3c-0.8,2.4,0.9,0.6,0.9,0.6l2.7-4.2l2.2,1.8
	c0,0,2.1,1,0.5-1l-2.2-1.8l2.9-4.5C91.1,163.8,89.7,165,89.7,165z"/>
<polygon class="st9" points="86.5,195.1 86.5,202.8 91.3,200.2 91.3,193.9 89.9,195.1 89.9,193.2 "/>
<linearGradient id="SVGID_28_" gradientUnits="userSpaceOnUse" x1="78.539" y1="-61.5042" x2="271.8072" y2="212.4398" gradientTransform="matrix(1 0 0 -1 0 175.0855)">
	<stop  offset="0" style="stop-color:#FFFFFF;stop-opacity:0"/>
	<stop  offset="0.14" style="stop-color:#F2F8FF;stop-opacity:3.000000e-02"/>
	<stop  offset="0.35" style="stop-color:#CFE6FF;stop-opacity:0.11"/>
	<stop  offset="0.6" style="stop-color:#95C8FF;stop-opacity:0.24"/>
	<stop  offset="0.88" style="stop-color:#459FFF;stop-opacity:0.41"/>
	<stop  offset="1" style="stop-color:#1E8BFF;stop-opacity:0.5"/>
</linearGradient>
<path class="st29" d="M190.4,85.4v77.5c-0.4,4.8-4.3,8.1-4.3,8.1L99,219.8l-10,5.6c-2.7,1-4-0.2-4.7-1.3c-0.4-0.7-0.6-1.6-0.6-2.4
	v-74c0-9.6,5.1-11.8,5.1-11.8l87.5-49.2l8.4-4.7C190.7,79.2,190.4,85.4,190.4,85.4z"/>
<g class="st11">
	
		<linearGradient id="SVGID_29_" gradientUnits="userSpaceOnUse" x1="71.1641" y1="-4.7192" x2="121.6095" y2="37.2921" gradientTransform="matrix(1 0 0 -1 0 175.0855)">
		<stop  offset="0" style="stop-color:#FFFFFF;stop-opacity:0"/>
		<stop  offset="0.14" style="stop-color:#F2F8FF;stop-opacity:3.000000e-02"/>
		<stop  offset="0.35" style="stop-color:#CFE6FF;stop-opacity:0.11"/>
		<stop  offset="0.6" style="stop-color:#95C8FF;stop-opacity:0.24"/>
		<stop  offset="0.88" style="stop-color:#459FFF;stop-opacity:0.41"/>
		<stop  offset="1" style="stop-color:#1E8BFF;stop-opacity:0.5"/>
	</linearGradient>
	<path class="st30" d="M79.1,180.9c1.3,0.7,2.8,0.9,4.2,0.5c1-0.1,1.9-0.4,2.7-0.9l0,0c0.3-0.1,0.6-0.3,1-0.5
		c5.9-3.2,10.6-10.6,10.6-16.5c0-2.3-0.7-4-1.9-5l0,0c-3.3-3.2-8.3-4-12.5-1.9c-6.1,2.8-10.6,10.6-10.6,16.5c0,0.2,0,0.5,0,0.7
		C72.8,176.7,75.6,179.7,79.1,180.9z"/>
	
		<linearGradient id="SVGID_30_" gradientUnits="userSpaceOnUse" x1="70.2531" y1="-40.0162" x2="117.2109" y2="13.2365" gradientTransform="matrix(1 0 0 -1 0 175.0855)">
		<stop  offset="0" style="stop-color:#FFFFFF;stop-opacity:0"/>
		<stop  offset="0.14" style="stop-color:#F2F8FF;stop-opacity:3.000000e-02"/>
		<stop  offset="0.35" style="stop-color:#CFE6FF;stop-opacity:0.11"/>
		<stop  offset="0.6" style="stop-color:#95C8FF;stop-opacity:0.24"/>
		<stop  offset="0.88" style="stop-color:#459FFF;stop-opacity:0.41"/>
		<stop  offset="1" style="stop-color:#1E8BFF;stop-opacity:0.5"/>
	</linearGradient>
	<path class="st31" d="M97.2,186.9L97.2,186.9c-3.4-3.2-8.3-4-12.5-1.9c-6.1,2.8-10.6,10.6-10.6,16.5c0,0.3,0,0.5,0,0.7
		c0.2,2.8,3.1,5.8,6.5,7.1c1.3,0.7,2.8,0.9,4.2,0.5c0.9-0.1,1.9-0.4,2.7-0.9l0,0c0.3-0.1,0.6-0.3,1-0.5c5.9-3.2,10.6-10.6,10.6-16.5
		C99.1,189.7,98.4,188,97.2,186.9z"/>
</g>
<linearGradient id="SVGID_31_" gradientUnits="userSpaceOnUse" x1="-108.1755" y1="318.9796" x2="293.1143" y2="-157.9171" gradientTransform="matrix(1 0 0 -1 0 175.0855)">
	<stop  offset="0" style="stop-color:#EEE2F6"/>
	<stop  offset="0.11" style="stop-color:#BCBDDB"/>
	<stop  offset="0.23" style="stop-color:#8A98C1"/>
	<stop  offset="0.35" style="stop-color:#6078AB"/>
	<stop  offset="0.48" style="stop-color:#3D5F98"/>
	<stop  offset="0.6" style="stop-color:#224B8A"/>
	<stop  offset="0.73" style="stop-color:#0F3C80"/>
	<stop  offset="0.86" style="stop-color:#04347A"/>
	<stop  offset="1" style="stop-color:#003178"/>
</linearGradient>
<path class="st32" d="M185.6,102v60.9c-0.3,3.8-3.4,6.3-3.4,6.3l-68.5,38.4l-7.8,4.4c-2.1,0.8-3.2-0.1-3.7-1.1
	c-0.3-0.6-0.5-1.2-0.4-1.8v-58.2c0-7.6,4-9.2,4-9.2l68.8-38.7l6.6-3.7C185.8,97.1,185.6,102,185.6,102z"/>
<linearGradient id="SVGID_32_" gradientUnits="userSpaceOnUse" x1="102.2851" y1="51.0214" x2="258.0224" y2="-65.2974" gradientTransform="matrix(1 0 0 -1 0 175.0855)">
	<stop  offset="0" style="stop-color:#18DEC3"/>
	<stop  offset="1" style="stop-color:#05A794"/>
</linearGradient>
<path class="st33" d="M190.6,105.3v60.9c-0.3,3.8-3.4,6.3-3.4,6.3l-68.5,38.4l-7.8,4.4c-2.1,0.8-3.2-0.1-3.7-1.1
	c-0.3-0.6-0.5-1.2-0.4-1.8v-58.2c0-7.6,4-9.2,4-9.2l68.7-38.8l6.6-3.7C190.9,100.4,190.6,105.3,190.6,105.3z"/>
<linearGradient id="SVGID_33_" gradientUnits="userSpaceOnUse" x1="111.9464" y1="42.127" x2="166.8725" y2="-45.5977" gradientTransform="matrix(1 0 0 -1 0 175.0855)">
	<stop  offset="0" style="stop-color:#1EA3D8"/>
	<stop  offset="0.69" style="stop-color:#04439E"/>
	<stop  offset="1" style="stop-color:#081B4E"/>
</linearGradient>
<path class="st34" d="M142.5,172.6c-5,2.8-9.1,9.1-9.1,14.2c0,0.2,0,0.4,0,0.6c0.3,4.5,4.3,6.1,9.1,3.4c5-2.8,9.1-9.1,9.1-14.1
	S147.5,169.8,142.5,172.6z M141.8,189.5c-1.1,0.7-2.4,1.1-3.7,1.1c-2.8,0-3.2-2.4-3.2-3.8c0-4.2,3.4-9.7,7.6-12.4
	c0.2-0.2,0.5-0.3,0.7-0.4c1.1-0.7,2.4-1.1,3.7-1.1c2.8,0,3.2,2.4,3.2,3.8C150.1,181.1,146.3,187,141.8,189.5z"/>
<linearGradient id="SVGID_34_" gradientUnits="userSpaceOnUse" x1="136.0871" y1="57.2457" x2="191.0132" y2="-30.479" gradientTransform="matrix(1 0 0 -1 0 175.0855)">
	<stop  offset="0" style="stop-color:#1EA3D8"/>
	<stop  offset="0.69" style="stop-color:#04439E"/>
	<stop  offset="1" style="stop-color:#081B4E"/>
</linearGradient>
<path class="st35" d="M167.5,157.3c-0.2,0.1-0.5,0.2-0.7,0.4c-5,2.8-9.1,9.1-9.1,14.2c0,3.6,2.1,5.5,5.1,5.4c1.4-0.1,2.8-0.6,4-1.3
	c5-2.8,9.1-9.1,9.1-14.1C175.8,157,172.2,155.1,167.5,157.3z M166,174.6c-0.9,0.5-1.8,0.9-2.8,1c-0.3,0-0.6,0.1-0.8,0.1
	c-2.8,0-3.2-2.4-3.2-3.8c0-4.4,3.8-10.3,8.3-12.8c1.1-0.7,2.4-1.1,3.7-1.1c2.8,0,3.2,2.4,3.2,3.8C174.3,166.2,170.5,172.1,166,174.6
	z"/>
<path class="st9" d="M142.5,172.6v1.8c-4.2,2.7-7.6,8.2-7.6,12.4l-1.5,0.6c0-0.2,0-0.4,0-0.6C133.4,181.8,137.5,175.4,142.5,172.6z"
	/>
<path class="st9" d="M167.5,157.3v1.7c-4.5,2.5-8.3,8.4-8.3,12.8c0,1.4,0.4,3.8,3.2,3.8c0.3,0,0.6,0,0.8-0.1l-0.4,1.6
	c-3,0.2-5.1-1.8-5.1-5.4c0-5,4.1-11.4,9.1-14.2C167,157.6,167.2,157.4,167.5,157.3z"/>
<polygon class="st9" points="124.3,175.1 121.3,176.6 121.3,175.7 124.3,174.2 "/>
<polygon class="st9" points="133.4,169.8 130.4,171.3 130.4,170.4 133.4,168.9 "/>
<polygon class="st9" points="142,164.4 138.9,165.9 138.9,165 142,163.4 "/>
<polygon class="st9" points="150.5,160.1 147.5,161.6 147.5,160.7 150.5,159.2 "/>
<polygon class="st9" points="159.1,154.7 156.1,156.3 156.1,155.4 159.1,153.8 "/>
<polygon class="st9" points="167.9,149.2 164.9,150.7 164.9,149.8 167.9,148.2 "/>
<polygon class="st9" points="176.5,144.7 173.5,146.2 173.5,145.3 176.5,143.8 "/>
<polygon class="st9" points="123.4,173.2 122.2,173.9 122.2,159 123.4,158.3 "/>
<polygon class="st9" points="140.7,162.6 139.5,163.3 139.5,156.4 140.7,155.5 "/>
<polygon class="st9" points="149.4,158.5 148.1,159.2 148.1,135.5 149.4,134.9 "/>
<polygon class="st9" points="158,153.3 156.8,153.9 156.8,143.1 158,142.3 "/>
<polygon class="st9" points="175.4,143.3 174.2,144 174.2,134.7 175.4,134.2 "/>
<polygon class="st9" points="166.7,133 166.7,127.4 165.5,128.1 165.5,143 165.5,143 165.5,148.6 166.7,148 "/>
<polygon class="st9" points="130.9,154.4 130.9,158.3 130.9,164.7 130.9,168.6 132.1,168 132.1,164.1 132.1,157.5 132.1,153.6 "/>
<linearGradient id="SVGID_35_" gradientUnits="userSpaceOnUse" x1="124.1002" y1="121.2013" x2="191.9534" y2="-27.1071" gradientTransform="matrix(0.9998 1.780142e-02 1.780142e-02 -0.9998 -14.503 186.2012)">
	<stop  offset="0" style="stop-color:#1EA3D8"/>
	<stop  offset="0.69" style="stop-color:#04439E"/>
	<stop  offset="1" style="stop-color:#081B4E"/>
</linearGradient>
<path class="st36" d="M121.1,170.5v-1.6c0,0,3.8-1.8,6.9-7.7c0.3-0.7,0.7-1.3,1.1-1.9c1.9-3.1,5-4.9,8.3-5c2.6-0.1,4.3-3.2,5.4-5.9
	c0.7-1.7,1.3-3.5,1.9-5.2c0.8-2.4,1.7-4.7,2.7-7c0.3-0.8,1.1-1.4,1.9-1.6c1-0.1,2,0.4,2.5,1.2c0.9,1.2,1.6,2.5,2.1,3.8
	c0.1,0.3,0.2,0.5,0.3,0.8c0.3,0.9,0.7,1.7,1.3,2.4c0.3,0.5,0.9,0.7,1.5,0.6c1-0.3,1.9-1.8,2.4-3c0.1-0.2,2-5.3,4.2-8
	c0.9-1.2,2.4-1.8,3.9-1.4c1.3,0.4,2.4,1,3.5,1.8c0.9,0.6,1.9,0.9,3,0.8c0.7-0.1,1.4-0.4,2-0.8v1.6c-1.3,0.7-2.8,0.8-4.2,0.4
	c-0.3-0.1-0.6-0.3-0.9-0.5c-1.1-0.8-2.3-1.5-3.6-1.8c-1.1-0.3-2.3,0.1-2.9,1c-2.1,2.5-4,7.6-4,7.6c-0.6,1.5-1.7,3.3-3.1,3.7
	c-0.9,0.2-1.9-0.2-2.4-0.9c-0.7-0.8-1.2-1.8-1.5-2.8c-0.1-0.3-0.2-0.5-0.3-0.8c-0.5-1.3-1.2-2.5-2-3.6c-0.4-0.5-1-0.8-1.6-0.8
	c-0.5,0.1-1,0.5-1.2,1c-1,2.2-1.9,4.5-2.6,6.8c-0.6,1.8-1.2,3.6-2,5.3c-1.3,3.1-3.1,6.5-6.3,6.6c-3.1,0.1-5.9,1.8-7.5,4.5
	c-0.4,0.6-0.7,1.2-1,1.8C125.6,168.2,121.3,170.4,121.1,170.5z"/>
<linearGradient id="SVGID_36_" gradientUnits="userSpaceOnUse" x1="188.2136" y1="-17.6226" x2="-47.2006" y2="185.2809" gradientTransform="matrix(1 0 0 -1 0 175.0855)">
	<stop  offset="0" style="stop-color:#FFFFFF;stop-opacity:0"/>
	<stop  offset="1" style="stop-color:#5CFFCC;stop-opacity:0.5"/>
</linearGradient>
<path class="st37" d="M186.2,102.5l-6.6,3.7l-68.8,38.7c0,0-4,1.7-4,9.2v58.2c0,0.6,0.1,1.3,0.4,1.8c0.5,0.9,1.5,1.9,3.7,1.1
	l7.8-4.4l68.5-38.4c0,0,3.1-2.6,3.4-6.3v-60.8C190.6,105.3,190.9,100.4,186.2,102.5z"/>
<linearGradient id="SVGID_37_" gradientUnits="userSpaceOnUse" x1="280.9521" y1="-65.3101" x2="22.8834" y2="75.5508" gradientTransform="matrix(1 0 0 -1 0 175.0855)">
	<stop  offset="0" style="stop-color:#114A7A"/>
	<stop  offset="1" style="stop-color:#022659"/>
</linearGradient>
<path class="st38" d="M134.9,260.2c-2,0.2-3.9-1.1-4.4-3.1c-0.2-0.6-0.2-1.2-0.2-1.7v-74.9c0,0-0.3-7,5.2-10.9l96.1-53.9
	c0,0,3.1-2,5.4,0.7L134.9,260.2z"/>
<linearGradient id="SVGID_38_" gradientUnits="userSpaceOnUse" x1="97.2215" y1="67.3454" x2="213.3626" y2="-38.8598" gradientTransform="matrix(1 0 0 -1 0 175.0855)">
	<stop  offset="0" style="stop-color:#1EA3D8"/>
	<stop  offset="0.69" style="stop-color:#04439E"/>
	<stop  offset="1" style="stop-color:#081B4E"/>
</linearGradient>
<path class="st39" d="M131.5,182.1v74c0,0.8,0.2,1.6,0.6,2.4c0.6,1.2,2,2.4,4.7,1.4l97.1-54.4c0,0,3.9-3.3,4.3-8.1v-77.5
	c0,0,0.3-6.2-5.7-3.5l-95.9,53.9C136.6,170.3,131.5,172.5,131.5,182.1z"/>
<linearGradient id="SVGID_39_" gradientUnits="userSpaceOnUse" x1="83.9654" y1="53.306" x2="251.8636" y2="-55.4245" gradientTransform="matrix(1 0 0 -1 0 175.0855)">
	<stop  offset="6.000000e-02" style="stop-color:#1ED8D8"/>
	<stop  offset="1" style="stop-color:#008BA1"/>
</linearGradient>
<path class="st40" d="M140.8,263.7c-2.1,0-3.9-1.4-4.3-3.4c-0.2-0.6-0.3-1.2-0.2-1.8v-74.9c0-0.2-0.2-5.7,3.7-9.8
	c0.8-0.8,1.6-1.4,2.6-1.9l95.3-53.4c0.7-0.4,1.6-0.7,2.4-0.7c0.4,0,0.8,0.1,1.2,0.2c1.4,0.4,2.5,1.6,2.8,3l0.2,0.9l-1.1,0.6
	l-0.1-0.7c-0.2-1.2-1.3-2.7-2.6-2.8c-0.1,0-0.2,0-0.3,0c-0.7,0-1.5,0.2-2.1,0.6l-95.9,53.9c0,0-5.1,3.1-4.9,11.4v73.6
	c0,1.1,0.3,2.1,0.9,3c0.6,0.8,1.5,1.2,2.5,1.2l0,0c0.4,0,0.8-0.1,1.2-0.3l0.7-0.4l0.2,1.1l-0.7,0.4
	C141.8,263.6,141.3,263.7,140.8,263.7L140.8,263.7z"/>
<linearGradient id="SVGID_40_" gradientUnits="userSpaceOnUse" x1="-255.9554" y1="-73.9939" x2="358.1676" y2="1.2697" gradientTransform="matrix(1 0 0 -1 0 175.0855)">
	<stop  offset="0" style="stop-color:#1E8BD8"/>
	<stop  offset="1" style="stop-color:#FFFFFF"/>
</linearGradient>
<path class="st41" d="M147.3,266.2c-2,0.2-3.9-1.1-4.4-3.1c-0.2-0.6-0.2-1.2-0.2-1.7v-74.9c0,0-0.3-7,5.2-10.9l96.1-53.9
	c0,0,3.1-2,5.4,0.7L147.3,266.2z"/>
<linearGradient id="SVGID_41_" gradientUnits="userSpaceOnUse" x1="74.7322" y1="-545.8829" x2="201.5692" y2="-0.8022" gradientTransform="matrix(1 0 0 -1 0 175.0855)">
	<stop  offset="0" style="stop-color:#1E8BD8"/>
	<stop  offset="1" style="stop-color:#FFFFFF"/>
</linearGradient>
<path class="st42" d="M250.6,125.9v77.5c-0.4,4.8-4.3,8.1-4.3,8.1l-87.2,48.7l-10,5.6c-2.7,1-4-0.2-4.7-1.3
	c-0.4-0.7-0.6-1.6-0.6-2.4v-74c0-9.6,5.1-11.8,5.1-11.8l87.5-49.2l8.4-4.7C250.9,119.7,250.6,125.9,250.6,125.9z"/>
<linearGradient id="SVGID_42_" gradientUnits="userSpaceOnUse" x1="155.8921" y1="-4.1417" x2="129.0083" y2="-74.1461" gradientTransform="matrix(1 0 0 -1 0 175.0855)">
	<stop  offset="0" style="stop-color:#1EA3D8"/>
	<stop  offset="1" style="stop-color:#04439E"/>
</linearGradient>
<path class="st43" d="M143.4,197.1c-6.1,2.8-10.6,10.6-10.6,16.5c0,0.2,0,0.5,0,0.7c0.3,4.6,7.8,9.8,13.4,6.7
	c5.9-3.2,13.7-17.8,9.6-22C152.5,195.9,147.5,195.1,143.4,197.1z"/>
<linearGradient id="SVGID_43_" gradientUnits="userSpaceOnUse" x1="138.4665" y1="-21.9782" x2="169.6409" y2="-68.084" gradientTransform="matrix(1 0 0 -1 0 175.0855)">
	<stop  offset="0" style="stop-color:#1EA3D8"/>
	<stop  offset="1" style="stop-color:#04439E"/>
</linearGradient>
<path class="st44" d="M147.2,199.4c-5.9,3.2-10.6,10.7-10.6,16.5c0,0.2,0,0.5,0,0.7c0.4,5.3,5,7.1,10.6,4
	c5.9-3.2,10.6-10.6,10.6-16.5S153.1,196.1,147.2,199.4z"/>
<linearGradient id="SVGID_44_" gradientUnits="userSpaceOnUse" x1="155.3148" y1="-34.0287" x2="134.1865" y2="-98.2777" gradientTransform="matrix(1 0 0 -1 0 175.0855)">
	<stop  offset="0" style="stop-color:#1EA3D8"/>
	<stop  offset="1" style="stop-color:#04439E"/>
</linearGradient>
<path class="st45" d="M144.9,225.5c-6.1,2.8-10.6,10.6-10.6,16.5c0,0.3,0,0.5,0,0.7c0.3,4.6,7.8,9.8,13.4,6.7
	c5.9-3.2,13.7-17.8,9.6-22C154,224.2,149,223.4,144.9,225.5z"/>
<linearGradient id="SVGID_45_" gradientUnits="userSpaceOnUse" x1="154.3501" y1="-47.404" x2="126.8166" y2="-124.4636" gradientTransform="matrix(1 0 0 -1 0 175.0855)">
	<stop  offset="0" style="stop-color:#1EA3D8"/>
	<stop  offset="1" style="stop-color:#04439E"/>
</linearGradient>
<path class="st46" d="M148.7,227.7c-5.9,3.2-10.6,10.6-10.6,16.5c0,0.3,0,0.5,0,0.7c0.4,5.3,5,7.1,10.6,4
	c5.9-3.2,10.6-10.6,10.6-16.5C159.3,226.6,154.6,224.5,148.7,227.7z"/>
<path class="st9" d="M149.9,205.5l-2.7,4.2l-2.6-2.2c0,0-1.7-0.8-0.8,0.8l2.8,2.3l-2.8,4.3c-0.8,2.4,0.9,0.6,0.9,0.6l2.7-4.2
	l2.2,1.8c0,0,2.1,1,0.5-1l-2.2-1.8l2.9-4.5C151.3,204.3,149.9,205.5,149.9,205.5z"/>
<polygon class="st9" points="146.7,235.6 146.7,243.3 151.5,240.7 151.5,234.4 150.2,235.6 150.1,233.7 "/>
<linearGradient id="SVGID_46_" gradientUnits="userSpaceOnUse" x1="138.6919" y1="-101.9501" x2="331.96" y2="171.994" gradientTransform="matrix(1 0 0 -1 0 175.0855)">
	<stop  offset="0" style="stop-color:#FFFFFF;stop-opacity:0"/>
	<stop  offset="0.14" style="stop-color:#F2F8FF;stop-opacity:3.000000e-02"/>
	<stop  offset="0.35" style="stop-color:#CFE6FF;stop-opacity:0.11"/>
	<stop  offset="0.6" style="stop-color:#95C8FF;stop-opacity:0.24"/>
	<stop  offset="0.88" style="stop-color:#459FFF;stop-opacity:0.41"/>
	<stop  offset="1" style="stop-color:#1E8BFF;stop-opacity:0.5"/>
</linearGradient>
<path class="st47" d="M250.6,125.9v77.5c-0.4,4.8-4.3,8.1-4.3,8.1l-87.2,48.7l-10,5.6c-2.7,1-4-0.2-4.7-1.3
	c-0.4-0.7-0.6-1.6-0.6-2.4v-74c0-9.6,5.1-11.8,5.1-11.8l87.5-49.2l8.4-4.7C250.9,119.7,250.6,125.9,250.6,125.9z"/>
<g class="st11">
	
		<linearGradient id="SVGID_47_" gradientUnits="userSpaceOnUse" x1="131.378" y1="-45.2076" x2="181.8235" y2="-3.1963" gradientTransform="matrix(1 0 0 -1 0 175.0855)">
		<stop  offset="0" style="stop-color:#FFFFFF;stop-opacity:0"/>
		<stop  offset="0.14" style="stop-color:#F2F8FF;stop-opacity:3.000000e-02"/>
		<stop  offset="0.35" style="stop-color:#CFE6FF;stop-opacity:0.11"/>
		<stop  offset="0.6" style="stop-color:#95C8FF;stop-opacity:0.24"/>
		<stop  offset="0.88" style="stop-color:#459FFF;stop-opacity:0.41"/>
		<stop  offset="1" style="stop-color:#1E8BFF;stop-opacity:0.5"/>
	</linearGradient>
	<path class="st48" d="M139.3,221.4c1.3,0.7,2.8,0.9,4.2,0.5c1-0.1,1.9-0.4,2.7-0.9l0,0c0.3-0.1,0.6-0.3,1-0.5
		c5.9-3.2,10.6-10.6,10.6-16.5c0-2.3-0.7-4-1.9-5l0,0c-3.3-3.2-8.3-4-12.5-1.9c-6.1,2.8-10.6,10.6-10.6,16.5c0,0.2,0,0.5,0,0.7
		C133,217.1,135.8,220.2,139.3,221.4z"/>
	
		<linearGradient id="SVGID_48_" gradientUnits="userSpaceOnUse" x1="130.4648" y1="-80.503" x2="177.4226" y2="-27.2502" gradientTransform="matrix(1 0 0 -1 0 175.0855)">
		<stop  offset="0" style="stop-color:#FFFFFF;stop-opacity:0"/>
		<stop  offset="0.14" style="stop-color:#F2F8FF;stop-opacity:3.000000e-02"/>
		<stop  offset="0.35" style="stop-color:#CFE6FF;stop-opacity:0.11"/>
		<stop  offset="0.6" style="stop-color:#95C8FF;stop-opacity:0.24"/>
		<stop  offset="0.88" style="stop-color:#459FFF;stop-opacity:0.41"/>
		<stop  offset="1" style="stop-color:#1E8BFF;stop-opacity:0.5"/>
	</linearGradient>
	<path class="st49" d="M157.4,227.4L157.4,227.4c-3.4-3.2-8.3-4-12.5-1.9c-6.1,2.8-10.6,10.6-10.6,16.5c0,0.3,0,0.5,0,0.7
		c0.2,2.8,3.1,5.8,6.5,7.1c1.3,0.7,2.8,0.9,4.2,0.5c0.9-0.1,1.9-0.4,2.7-0.9l0,0c0.3-0.1,0.6-0.3,1-0.5c5.9-3.2,10.6-10.6,10.6-16.5
		C159.3,230.2,158.6,228.5,157.4,227.4z"/>
</g>
<linearGradient id="SVGID_49_" gradientUnits="userSpaceOnUse" x1="-47.9744" y1="278.4784" x2="353.3152" y2="-198.4182" gradientTransform="matrix(1 0 0 -1 0 175.0855)">
	<stop  offset="0" style="stop-color:#EEE2F6"/>
	<stop  offset="0.11" style="stop-color:#BCBDDB"/>
	<stop  offset="0.23" style="stop-color:#8A98C1"/>
	<stop  offset="0.35" style="stop-color:#6078AB"/>
	<stop  offset="0.48" style="stop-color:#3D5F98"/>
	<stop  offset="0.6" style="stop-color:#224B8A"/>
	<stop  offset="0.73" style="stop-color:#0F3C80"/>
	<stop  offset="0.86" style="stop-color:#04347A"/>
	<stop  offset="1" style="stop-color:#003178"/>
</linearGradient>
<path class="st50" d="M245.8,142.5v60.9c-0.3,3.8-3.4,6.3-3.4,6.3l-68.5,38.4l-7.8,4.4c-2.1,0.8-3.2-0.1-3.7-1.1
	c-0.3-0.6-0.5-1.2-0.4-1.8v-58.2c0-7.6,4-9.2,4-9.2l68.8-38.7l6.6-3.7C246,137.6,245.8,142.5,245.8,142.5z"/>
<linearGradient id="SVGID_50_" gradientUnits="userSpaceOnUse" x1="162.488" y1="10.5158" x2="318.2253" y2="-105.8029" gradientTransform="matrix(1 0 0 -1 0 175.0855)">
	<stop  offset="0" style="stop-color:#18DEC3"/>
	<stop  offset="1" style="stop-color:#05A794"/>
</linearGradient>
<path class="st51" d="M250.8,145.8v60.9c-0.3,3.8-3.4,6.3-3.4,6.3l-68.5,38.4l-7.8,4.4c-2.1,0.8-3.2-0.1-3.7-1.1
	c-0.3-0.6-0.5-1.2-0.4-1.8v-58.2c0-7.6,4-9.2,4-9.2l68.8-38.7l6.6-3.7C251.1,140.9,250.8,145.8,250.8,145.8z"/>
<linearGradient id="SVGID_51_" gradientUnits="userSpaceOnUse" x1="172.1556" y1="1.6341" x2="227.0817" y2="-86.0908" gradientTransform="matrix(1 0 0 -1 0 175.0855)">
	<stop  offset="0" style="stop-color:#1EA3D8"/>
	<stop  offset="0.69" style="stop-color:#04439E"/>
	<stop  offset="1" style="stop-color:#081B4E"/>
</linearGradient>
<path class="st52" d="M202.7,213.1c-5,2.8-9.1,9.1-9.1,14.2c0,0.2,0,0.4,0,0.6c0.3,4.5,4.3,6.1,9.1,3.4c5-2.8,9.1-9.1,9.1-14.1
	C211.8,212.1,207.7,210.3,202.7,213.1z M202,230c-1.1,0.7-2.4,1.1-3.7,1.1c-2.8,0-3.2-2.4-3.2-3.8c0-4.2,3.4-9.7,7.6-12.4
	c0.2-0.2,0.5-0.3,0.7-0.4c1.1-0.7,2.4-1.1,3.7-1.1c2.8,0,3.2,2.4,3.2,3.8C210.3,221.6,206.5,227.5,202,230z"/>
<linearGradient id="SVGID_52_" gradientUnits="userSpaceOnUse" x1="196.3023" y1="16.7564" x2="251.2284" y2="-70.9683" gradientTransform="matrix(1 0 0 -1 0 175.0855)">
	<stop  offset="0" style="stop-color:#1EA3D8"/>
	<stop  offset="0.69" style="stop-color:#04439E"/>
	<stop  offset="1" style="stop-color:#081B4E"/>
</linearGradient>
<path class="st53" d="M227.7,197.8c-0.2,0.1-0.5,0.2-0.7,0.4c-5,2.8-9.1,9.1-9.1,14.2c0,3.6,2.1,5.5,5.1,5.4c1.4-0.1,2.8-0.6,4-1.3
	c5-2.8,9.1-9.1,9.1-14.1C236.1,197.5,232.4,195.6,227.7,197.8z M226.2,215.1c-0.9,0.5-1.8,0.9-2.8,1c-0.3,0-0.6,0.1-0.8,0.1
	c-2.8,0-3.2-2.4-3.2-3.8c0-4.4,3.8-10.3,8.3-12.8c1.1-0.7,2.4-1.1,3.7-1.1c2.8,0,3.2,2.4,3.2,3.8
	C234.5,206.7,230.7,212.6,226.2,215.1z"/>
<path class="st9" d="M202.7,213.1v1.8c-4.2,2.7-7.6,8.2-7.6,12.4l-1.5,0.6c0-0.2,0-0.4,0-0.6C193.6,222.2,197.7,215.9,202.7,213.1z"
	/>
<path class="st9" d="M227.7,197.8v1.7c-4.5,2.5-8.3,8.4-8.3,12.8c0,1.4,0.4,3.8,3.2,3.8c0.3,0,0.6,0,0.8-0.1l-0.4,1.6
	c-3,0.2-5.1-1.8-5.1-5.4c0-5,4.1-11.4,9.1-14.2C227.2,198,227.4,197.9,227.7,197.8z"/>
<polygon class="st9" points="184.5,215.6 181.5,217.1 181.5,216.2 184.5,214.7 "/>
<polygon class="st9" points="193.6,210.3 190.6,211.8 190.6,210.9 193.6,209.4 "/>
<polygon class="st9" points="202.2,204.9 199.2,206.4 199.2,205.5 202.2,203.9 "/>
<polygon class="st9" points="210.7,200.6 207.7,202.1 207.7,201.2 210.7,199.6 "/>
<polygon class="st9" points="219.4,195.2 216.3,196.8 216.3,195.8 219.4,194.3 "/>
<polygon class="st9" points="228.1,189.7 225.1,191.2 225.1,190.3 228.1,188.7 "/>
<polygon class="st9" points="236.7,185.2 233.7,186.7 233.7,185.8 236.7,184.3 "/>
<polygon class="st9" points="183.6,213.7 182.4,214.3 182.4,199.5 183.6,198.8 "/>
<polygon class="st9" points="200.9,203.1 199.7,203.8 199.7,196.9 200.9,196 "/>
<polygon class="st9" points="209.6,199 208.4,199.6 208.4,176 209.6,175.4 "/>
<polygon class="st9" points="218.3,193.8 217,194.4 217,183.6 218.3,182.8 "/>
<polygon class="st9" points="235.6,183.8 234.4,184.5 234.4,175.2 235.6,174.7 "/>
<polygon class="st9" points="226.9,173.5 226.9,167.9 225.7,168.6 225.7,183.5 225.7,183.5 225.7,189.1 226.9,188.4 "/>
<polygon class="st9" points="191.1,194.9 191.1,198.8 191.1,205.2 191.1,209.1 192.3,208.5 192.3,204.6 192.3,198 192.3,194.1 "/>
<linearGradient id="SVGID_53_" gradientUnits="userSpaceOnUse" x1="185.0116" y1="81.7834" x2="252.8647" y2="-66.5251" gradientTransform="matrix(0.9998 1.780142e-02 1.780142e-02 -0.9998 -14.503 186.2012)">
	<stop  offset="0" style="stop-color:#1EA3D8"/>
	<stop  offset="0.69" style="stop-color:#04439E"/>
	<stop  offset="1" style="stop-color:#081B4E"/>
</linearGradient>
<path class="st54" d="M181.3,211v-1.6c0,0,3.8-1.8,6.9-7.7c0.3-0.7,0.7-1.3,1.1-1.9c1.9-3.1,5-4.9,8.3-5c2.6-0.1,4.3-3.2,5.4-5.9
	c0.7-1.7,1.3-3.5,1.9-5.2c0.8-2.4,1.7-4.7,2.7-7c0.3-0.8,1.1-1.4,1.9-1.6c1-0.1,2,0.4,2.5,1.2c0.9,1.2,1.6,2.5,2.1,3.8
	c0.1,0.3,0.2,0.5,0.3,0.8c0.3,0.9,0.7,1.7,1.3,2.4c0.3,0.5,0.9,0.7,1.5,0.6c1-0.3,1.9-1.8,2.4-3c0.1-0.2,2-5.3,4.2-8
	c0.9-1.2,2.4-1.8,3.9-1.4c1.3,0.4,2.4,1,3.5,1.8c0.9,0.6,1.9,0.9,3,0.8c0.7-0.1,1.4-0.4,2-0.8v1.6c-1.3,0.7-2.8,0.8-4.2,0.4
	c-0.3-0.1-0.6-0.3-0.9-0.5c-1.1-0.8-2.3-1.5-3.6-1.8c-1.1-0.3-2.3,0.1-2.9,1c-2.1,2.5-4,7.6-4,7.6c-0.6,1.5-1.7,3.3-3.1,3.7
	c-0.9,0.2-1.9-0.2-2.4-0.9c-0.7-0.8-1.2-1.8-1.5-2.8c-0.1-0.3-0.2-0.5-0.3-0.8c-0.5-1.3-1.2-2.5-2-3.6c-0.4-0.5-1-0.8-1.6-0.8
	c-0.5,0.1-1,0.5-1.2,1c-1,2.2-1.9,4.5-2.6,6.8c-0.6,1.8-1.2,3.6-2,5.3c-1.3,3.1-3.1,6.5-6.3,6.6c-3.1,0.1-5.9,1.8-7.5,4.5
	c-0.4,0.6-0.7,1.2-1,1.8C185.8,208.7,181.5,210.9,181.3,211z"/>
<linearGradient id="SVGID_54_" gradientUnits="userSpaceOnUse" x1="248.4182" y1="-58.1239" x2="13.004" y2="144.7797" gradientTransform="matrix(1 0 0 -1 0 175.0855)">
	<stop  offset="0" style="stop-color:#FFFFFF;stop-opacity:0"/>
	<stop  offset="1" style="stop-color:#5CFFCC;stop-opacity:0.5"/>
</linearGradient>
<path class="st55" d="M246.4,143l-6.6,3.7L171,185.4c0,0-4,1.7-4,9.2v58.2c0,0.6,0.1,1.3,0.4,1.8c0.5,0.9,1.5,1.9,3.7,1.1l7.8-4.4
	l68.5-38.4c0,0,3.1-2.6,3.4-6.3v-60.9C250.8,145.8,251.1,140.9,246.4,143z"/>
</svg>
