<?xml version="1.0" encoding="utf-8"?>
<!-- Generator: Adobe Illustrator 23.1.0, SVG Export Plug-In . SVG Version: 6.00 Build 0)  -->
<svg version="1.1" id="Warstwa_1" xmlns="http://www.w3.org/2000/svg" xmlns:xlink="http://www.w3.org/1999/xlink" x="0px" y="0px"
	 viewBox="0 0 274.7 237.7" style="enable-background:new 0 0 274.7 237.7;" xml:space="preserve">
<style type="text/css">
	.st0{opacity:5.000000e-02;fill:url(#SVGID_1_);enable-background:new    ;}
	.st1{fill:url(#SVGID_2_);}
	.st2{fill:url(#SVGID_3_);}
	.st3{fill:url(#SVGID_4_);}
	.st4{fill:url(#SVGID_5_);}
	.st5{fill:url(#SVGID_6_);}
	.st6{fill:url(#SVGID_7_);}
	.st7{fill:url(#SVGID_8_);}
	.st8{opacity:0.65;fill:url(#SVGID_9_);enable-background:new    ;}
	.st9{opacity:0.65;fill:url(#SVGID_10_);enable-background:new    ;}
	.st10{opacity:0.65;fill:url(#SVGID_11_);enable-background:new    ;}
	.st11{fill:url(#SVGID_12_);}
	.st12{fill:url(#SVGID_13_);}
	.st13{fill:url(#SVGID_14_);}
	.st14{fill:url(#SVGID_15_);}
	.st15{fill:#FFFFFF;}
	.st16{fill:url(#SVGID_16_);}
	.st17{fill:url(#SVGID_17_);}
	.st18{fill:url(#SVGID_18_);}
	.st19{opacity:0.65;fill:url(#SVGID_19_);enable-background:new    ;}
	.st20{fill:url(#SVGID_20_);}
	.st21{fill:url(#SVGID_21_);}
	.st22{fill:url(#SVGID_22_);}
	.st23{fill:url(#SVGID_23_);}
	.st24{fill:url(#SVGID_24_);}
	.st25{fill:url(#SVGID_25_);}
	.st26{fill:url(#SVGID_26_);}
	.st27{fill:url(#SVGID_27_);}
	.st28{opacity:0.65;fill:url(#SVGID_28_);enable-background:new    ;}
	.st29{fill:url(#SVGID_29_);}
	.st30{fill:url(#SVGID_30_);}
	.st31{opacity:0.54;fill:url(#SVGID_31_);enable-background:new    ;}
	.st32{fill:url(#SVGID_32_);}
</style>
<title>Illustration 3 - Organizations_1</title>
<g>
	<g id="stage_3">
		
			<linearGradient id="SVGID_1_" gradientUnits="userSpaceOnUse" x1="-18.3659" y1="242.4932" x2="393.3941" y2="-116.1368" gradientTransform="matrix(1 0 0 -1 0 240)">
			<stop  offset="0" style="stop-color:#1EA3D8"/>
			<stop  offset="0.69" style="stop-color:#04439E"/>
			<stop  offset="1" style="stop-color:#081B4E"/>
		</linearGradient>
		<path class="st0" d="M0.3,131c-5.4,93.4,67.8,126.3,147.3,95.6c62.9-24.2,170.2-80.4,108.6-162.1C198.3-12.4,87-26.2,26.7,54.1
			C10.8,75.2,1.9,103.1,0.3,131z"/>
	</g>
</g>
<linearGradient id="SVGID_2_" gradientUnits="userSpaceOnUse" x1="23.2827" y1="168.3911" x2="109.6705" y2="-30.5357" gradientTransform="matrix(1 0 0 -1 0 240)">
	<stop  offset="0" style="stop-color:#18DEC3"/>
	<stop  offset="1" style="stop-color:#05A794"/>
</linearGradient>
<path class="st1" d="M29.1,82.5c-1.4,0-2.5,1.1-2.5,2.5c0,1.4,1.1,2.5,2.5,2.5c1.4,0,2.5-1.1,2.5-2.5l0,0
	C31.5,83.6,30.4,82.5,29.1,82.5z"/>
<linearGradient id="SVGID_3_" gradientUnits="userSpaceOnUse" x1="102.7498" y1="202.9018" x2="189.1375" y2="3.975" gradientTransform="matrix(1 0 0 -1 0 240)">
	<stop  offset="0" style="stop-color:#18DEC3"/>
	<stop  offset="1" style="stop-color:#05A794"/>
</linearGradient>
<circle class="st2" cx="93.1" cy="14.9" r="2.6"/>
<linearGradient id="SVGID_4_" gradientUnits="userSpaceOnUse" x1="124.0478" y1="212.1555" x2="210.4355" y2="13.2287" gradientTransform="matrix(1 0 0 -1 0 240)">
	<stop  offset="0" style="stop-color:#18DEC3"/>
	<stop  offset="1" style="stop-color:#05A794"/>
</linearGradient>
<path class="st3" d="M141.6,67c-0.7,0-1.2,0.5-1.2,1.2c0,0.7,0.5,1.2,1.2,1.2c0.7,0,1.2-0.5,1.2-1.2c0,0,0,0,0,0
	C142.8,67.5,142.2,67,141.6,67z"/>
<linearGradient id="SVGID_5_" gradientUnits="userSpaceOnUse" x1="155.8378" y1="225.9581" x2="242.2256" y2="27.0313" gradientTransform="matrix(1 0 0 -1 0 240)">
	<stop  offset="0" style="stop-color:#18DEC3"/>
	<stop  offset="1" style="stop-color:#05A794"/>
</linearGradient>
<path class="st4" d="M175.5,57.2c-1.2,0-2.1,0.9-2.1,2.1s0.9,2.1,2.1,2.1c1.2,0,2.1-0.9,2.1-2.1S176.7,57.2,175.5,57.2L175.5,57.2z"
	/>
<linearGradient id="SVGID_6_" gradientUnits="userSpaceOnUse" x1="185.9903" y1="194.7938" x2="212.8714" y2="74.0241" gradientTransform="matrix(1 0 0 -1 0 240)">
	<stop  offset="0" style="stop-color:#1EA3D8"/>
	<stop  offset="1" style="stop-color:#04439E"/>
</linearGradient>
<path class="st5" d="M209.8,58.2V66c-0.1,1.5-1,2.8-2.2,3.5l-31.2,17.3l-0.2,0.1c-0.2,0.1-0.3,0.1-0.5,0.2c-0.6,0.2-1.3-0.1-1.5-0.7
	c-0.1-0.2-0.1-0.4-0.1-0.6v-7.8c0.1-1.5,1-2.8,2.3-3.5l11.9-6.6l0.1-0.1l0,0l19.2-10.6c0.5-0.4,1.1-0.4,1.7-0.2
	c0.2,0.2,0.3,0.4,0.5,0.7v0.1l0,0c0,0,0,0.1,0,0.1C209.8,58,209.8,58.1,209.8,58.2z"/>
<linearGradient id="SVGID_7_" gradientUnits="userSpaceOnUse" x1="18.6633" y1="192.7383" x2="190.5563" y2="-96.8358" gradientTransform="matrix(1 0 0 -1 0 240)">
	<stop  offset="0" style="stop-color:#1EA3D8"/>
	<stop  offset="1" style="stop-color:#04439E"/>
</linearGradient>
<path class="st6" d="M75.6,80.5v30.7c-0.2,1.2-0.8,2.4-1.7,3.2l-34.6,19.4l-3.9,2.2c-0.6,0.4-1.4,0.2-1.8-0.5c0,0,0,0,0-0.1
	c-0.2-0.3-0.2-0.6-0.2-1v-29.4c0-3.8,2-4.7,2-4.7L69.9,81l3.4-1.9C75.7,78,75.6,80.5,75.6,80.5z"/>
<linearGradient id="SVGID_8_" gradientUnits="userSpaceOnUse" x1="97.7084" y1="230.8483" x2="199.9634" y2="51.8956" gradientTransform="matrix(1 0 0 -1 0 240)">
	<stop  offset="0" style="stop-color:#1EA3D8"/>
	<stop  offset="1" style="stop-color:#04439E"/>
</linearGradient>
<path class="st7" d="M137,17.4c0,0,0.1-2.1-1.9-1.2l-2.9,1.6l-29.6,16.6c0,0-1.7,0.7-1.7,4v37c0,0.3,0.1,0.6,0.2,0.8
	c0.3,0.6,0.9,0.8,1.5,0.5c0,0,0.1,0,0.1,0l3.4-1.9l29.5-16.5c0.8-0.7,1.3-1.7,1.4-2.7V17.4z"/>
<linearGradient id="SVGID_9_" gradientUnits="userSpaceOnUse" x1="186.0027" y1="194.7212" x2="212.8838" y2="73.9599" gradientTransform="matrix(1 0 0 -1 0 240)">
	<stop  offset="0" style="stop-color:#FFFFFF;stop-opacity:0"/>
	<stop  offset="0.14" style="stop-color:#F2F8FF;stop-opacity:3.000000e-02"/>
	<stop  offset="0.35" style="stop-color:#CFE6FF;stop-opacity:0.11"/>
	<stop  offset="0.6" style="stop-color:#95C8FF;stop-opacity:0.24"/>
	<stop  offset="0.88" style="stop-color:#459FFF;stop-opacity:0.41"/>
	<stop  offset="1" style="stop-color:#1E8BFF;stop-opacity:0.5"/>
</linearGradient>
<path class="st8" d="M209.8,58.2V66c-0.1,1.5-1,2.8-2.3,3.5l-31.2,17.3c-0.1,0-0.1,0.1-0.2,0.1c-0.1,0.1-0.3,0.1-0.5,0.2
	c-0.6,0.2-1.3,0-1.5-0.7c-0.1-0.2-0.1-0.4-0.1-0.6V78c0.1-1.5,1-2.8,2.3-3.5l11.9-6.6l0.1-0.1l0,0l19.1-10.6
	c0.5-0.4,1.1-0.4,1.7-0.2c0.2,0.2,0.3,0.4,0.5,0.7v0.1l0,0c0,0,0,0.1,0,0.1C209.8,58.1,209.8,58.1,209.8,58.2z"/>
<linearGradient id="SVGID_10_" gradientUnits="userSpaceOnUse" x1="107.2999" y1="77.47" x2="-68.5642" y2="260.3768" gradientTransform="matrix(1 0 0 -1 0 240)">
	<stop  offset="0" style="stop-color:#FFFFFF;stop-opacity:0"/>
	<stop  offset="0.14" style="stop-color:#F2F8FF;stop-opacity:3.000000e-02"/>
	<stop  offset="0.35" style="stop-color:#CFE6FF;stop-opacity:0.11"/>
	<stop  offset="0.6" style="stop-color:#95C8FF;stop-opacity:0.24"/>
	<stop  offset="0.88" style="stop-color:#459FFF;stop-opacity:0.41"/>
	<stop  offset="1" style="stop-color:#1E8BFF;stop-opacity:0.5"/>
</linearGradient>
<path class="st9" d="M75.6,80.6v30.7c-0.2,1.2-0.8,2.4-1.7,3.2l-34.6,19.4l-4,2.2c-0.6,0.4-1.4,0.2-1.8-0.5c0,0,0-0.1,0-0.1
	c-0.2-0.3-0.2-0.6-0.2-0.9v-29.4c0-3.8,2-4.7,2-4.7L70,81.1l3.4-1.9C75.7,78.1,75.6,80.6,75.6,80.6z"/>
<linearGradient id="SVGID_11_" gradientUnits="userSpaceOnUse" x1="175.3603" y1="146.2784" x2="71.3488" y2="233.5486" gradientTransform="matrix(1 0 0 -1 0 240)">
	<stop  offset="0" style="stop-color:#FFFFFF;stop-opacity:0"/>
	<stop  offset="0.14" style="stop-color:#F2F8FF;stop-opacity:3.000000e-02"/>
	<stop  offset="0.35" style="stop-color:#CFE6FF;stop-opacity:0.11"/>
	<stop  offset="0.6" style="stop-color:#95C8FF;stop-opacity:0.24"/>
	<stop  offset="0.88" style="stop-color:#459FFF;stop-opacity:0.41"/>
	<stop  offset="1" style="stop-color:#1E8BFF;stop-opacity:0.5"/>
</linearGradient>
<path class="st10" d="M137.1,17.5c0,0,0.1-2.1-1.9-1.2l-2.9,1.6l-29.6,16.6c0,0-1.7,0.7-1.7,4v37c0,0.3,0.1,0.6,0.2,0.8
	c0.3,0.6,1,0.8,1.5,0.5c0,0,0,0,0.1,0l3.4-1.9l29.5-16.5c0.8-0.7,1.3-1.7,1.5-2.7V17.5z"/>
<linearGradient id="SVGID_12_" gradientUnits="userSpaceOnUse" x1="22.1651" y1="197.5757" x2="168.1953" y2="60.6502" gradientTransform="matrix(1 0 0 -1 0 240)">
	<stop  offset="0" style="stop-color:#1EA3D8"/>
	<stop  offset="0.69" style="stop-color:#04439E"/>
	<stop  offset="1" style="stop-color:#081B4E"/>
</linearGradient>
<path class="st11" d="M162.2,106.7V91.1c0-0.5,1.8,0.5,1.6,0.1c-0.9-1.5-2.9-2.1-4.4-1.2c-0.1,0-0.1,0.1-0.2,0.1l-19.1,11.4
	c0,0-1.9,0.9-1.9,2.6v7.3l-40.6,23.8c-1.2,0.7-2.2,1.7-2.9,3c-0.5,0.9-0.7,2-0.6,3.1v52.9l69-76.1L162.2,106.7z"/>
<linearGradient id="SVGID_13_" gradientUnits="userSpaceOnUse" x1="31.2709" y1="214.4198" x2="203.8258" y2="9.4684" gradientTransform="matrix(1 0 0 -1 0 240)">
	<stop  offset="0" style="stop-color:#1EA3D8"/>
	<stop  offset="0.69" style="stop-color:#04439E"/>
	<stop  offset="1" style="stop-color:#081B4E"/>
</linearGradient>
<path class="st12" d="M164.1,107.8V92.2c0-0.5-0.2-1-0.6-1.3c-0.5-0.3-1.2-0.5-2.4,0.3l-19,11.4c0,0-1.9,0.9-1.9,2.6v7.3l-40.6,23.8
	c-1.2,0.7-2.2,1.7-2.8,3c-0.5,0.9-0.7,2-0.6,3.1v52l69-75.2L164.1,107.8z"/>
<linearGradient id="SVGID_14_" gradientUnits="userSpaceOnUse" x1="71.0098" y1="188.4442" x2="156.0738" y2="54.0217" gradientTransform="matrix(1 0 0 -1 0 240)">
	<stop  offset="0" style="stop-color:#1EA3D8"/>
	<stop  offset="1" style="stop-color:#04439E"/>
</linearGradient>
<path class="st13" d="M173.2,107.2l-75.7,88.6c-0.2,0.1-0.4,0.2-0.6,0.2l0,0h-0.2l0,0c-1.2,0.2-2.2-0.6-2.4-1.8c0,0,0-0.1,0-0.1
	l8.8-48.8c0,0,0.3-2.5,3.6-4.4l61.6-35.6c0,0,2.9-1.7,4.4,0.8C172.9,106.5,173.1,106.8,173.2,107.2z"/>
<linearGradient id="SVGID_15_" gradientUnits="userSpaceOnUse" x1="67.3686" y1="171.7142" x2="245.1334" y2="-47.1868" gradientTransform="matrix(1 0 0 -1 0 240)">
	<stop  offset="0" style="stop-color:#1EA3D8"/>
	<stop  offset="0.69" style="stop-color:#04439E"/>
	<stop  offset="1" style="stop-color:#081B4E"/>
</linearGradient>
<path class="st14" d="M173.2,107.4l-8.6,45.6c0,4.3-2.3,5.1-2.3,5.1l-64.4,37.3c-0.1,0.1-0.3,0.2-0.4,0.3c-0.2,0.1-0.4,0.2-0.6,0.2
	l0,0h-0.2l0,0c-1.4,0-0.7-3.5-0.7-3.5l8.9-46.3c0.6-2.5,3.7-4.1,3.7-4.1l61.5-35.4c0.6-0.4,1.3-0.7,2-0.8c0.3,0,0.5,0,0.7,0.2
	C173.2,106.4,173.3,106.9,173.2,107.4z"/>
<polygon class="st15" points="207.1,60.7 207.1,62.3 184.9,75.1 184.9,73.5 "/>
<polygon class="st15" points="202.5,66.7 202.4,68.6 184.9,78.4 184.9,76.8 "/>
<polygon class="st15" points="134.2,23.1 134.2,24.7 112,37.4 112,35.8 "/>
<polygon class="st15" points="121.1,33.9 121.1,35.6 111.9,40.7 111.9,39.1 "/>
<polygon class="st15" points="134.2,35.9 134.2,37.5 112,50.3 112,48.7 "/>
<polygon class="st15" points="128.5,42.5 128.5,44.3 112,53.6 112,52 "/>
<polygon class="st15" points="134.2,48.7 134.2,50.3 112,63 112,61.4 "/>
<polygon class="st15" points="124.9,57.3 124.9,59.1 112,66.3 112,64.7 "/>
<ellipse transform="matrix(0.6053 -0.796 0.796 0.6053 9.2033 101.0033)" class="st15" cx="106.4" cy="41.2" rx="3.4" ry="2"/>
<ellipse transform="matrix(0.6053 -0.796 0.796 0.6053 -1.0426 106.0884)" class="st15" cx="106.5" cy="54.1" rx="3.4" ry="2"/>
<ellipse transform="matrix(0.6053 -0.796 0.796 0.6053 -11.2851 111.1633)" class="st15" cx="106.4" cy="67" rx="3.4" ry="2"/>
<ellipse transform="matrix(0.6053 -0.796 0.796 0.6053 8.1564 174.3963)" class="st15" cx="179.9" cy="79" rx="3.4" ry="2"/>
<path class="st15" d="M62.2,109.2l6.8-8.3v-0.4l-6.8-0.8v1.7l4.8,0.4l-4.8,5.7V109.2z"/>
<path class="st15" d="M58.5,101.3l-1.5,0.8L52.7,115l1.5-0.8L58.5,101.3z"/>
<path class="st15" d="M44.2,114.4l4.8-5.7V107l-6.8,8.3v0.5l6.8,0.8v-1.7L44.2,114.4z"/>
<linearGradient id="SVGID_16_" gradientUnits="userSpaceOnUse" x1="14.6023" y1="160.6265" x2="177.6792" y2="-15.3818" gradientTransform="matrix(1 0 0 -1 0 240)">
	<stop  offset="0" style="stop-color:#18DEC3"/>
	<stop  offset="1" style="stop-color:#05A794"/>
</linearGradient>
<path class="st16" d="M55.1,158.9v-19.5c5.3-0.7,9.6-9,11.2-20.7l0,0c0.5-3.5,0.7-7,0.7-10.5c0-9.3-1.6-17.5-4.1-23.2
	c-2.2-5.1-5.2-8.1-8.5-8.1c-5.4,0-9.8,8-11.7,19.5l1.6-0.8c1.8-10.1,5.7-17.2,10.1-17.2c2.8,0,5.3,2.8,7.3,7.4
	c2.4,5.5,3.9,13.6,3.9,22.4c0,3.8-0.3,7.6-0.8,11.4c-1.7,10.8-5.8,18.5-10.3,18.5c-3,0-5.7-3.2-7.7-8.4l-1.2,0.7
	c2.1,5.3,5,8.7,8.3,9.1v19.2c0,16,13,29,29.1,29c4.6,0,9.1-1.1,13.1-3.1l0,0l0.3-1.7l-1.2,0.6c-13.5,6.9-30.1,1.5-37-12
	C56.1,167.5,55.1,163.2,55.1,158.9z"/>
<linearGradient id="SVGID_17_" gradientUnits="userSpaceOnUse" x1="117.7524" y1="234.1505" x2="141.5449" y2="-56.7304" gradientTransform="matrix(1 0 0 -1 0 240)">
	<stop  offset="0" style="stop-color:#18DEC3"/>
	<stop  offset="1" style="stop-color:#05A794"/>
</linearGradient>
<path class="st17" d="M130.2,19c-2.7-6.3-6.3-10.1-10.3-10.1c-6.5,0-11.9,9.7-14,23.8l1.6-0.9c2.2-12.6,7-21.5,12.4-21.5
	c3.4,0,6.7,3.6,9.1,9.5c2.8,6.7,4.5,16.3,4.5,26.7c0,4.5-0.3,9.1-1,13.6c-2.1,13.1-7,22.6-12.6,22.6c-3.6,0-6.9-3.9-9.4-10.3
	l-1.3,0.7c2.5,6.4,6,10.4,10,10.9v49.8l1.4-0.8v-49c6.3-0.7,11.5-10.7,13.5-24.8c0.6-4.2,0.9-8.5,0.8-12.7
	C134.8,35.5,133.1,25.8,130.2,19z"/>
<linearGradient id="SVGID_18_" gradientUnits="userSpaceOnUse" x1="205.0606" y1="184.4355" x2="94.2016" y2="-66.9128" gradientTransform="matrix(1 0 0 -1 0 240)">
	<stop  offset="0" style="stop-color:#18DEC3"/>
	<stop  offset="1" style="stop-color:#05A794"/>
</linearGradient>
<path class="st18" d="M196.3,63.4c-1-3.3-2.7-5.4-4.6-5.4c-2.9,0-5.2,4.6-5.6,11l1.5-0.8c0.6-5.4,2.5-8.9,4.2-8.9
	c1.2,0,2.5,1.8,3.4,4.7c0.7,2.5,1,5,1,7.6c0,1.5-0.1,2.9-0.3,4.4l0,0c-0.7,4.8-2.4,7.9-4,7.9c-1.1,0-2.3-1.5-3.1-3.9l-1.2,0.7
	c0.9,2.5,2.2,4.1,3.7,4.5v21.4c0,18.4-9.9,35.3-26,44.2l0,0l-0.3,1.8l1.2-0.7c16.4-9.1,26.5-26.4,26.5-45.1V85.2
	c2.4-0.6,4.2-4.5,4.8-10c0.1-1.2,0.2-2.4,0.1-3.5C197.4,68.9,197.1,66.1,196.3,63.4z"/>
<linearGradient id="SVGID_19_" gradientUnits="userSpaceOnUse" x1="166.4041" y1="64.0775" x2="101.7639" y2="114.0298" gradientTransform="matrix(1 0 0 -1 0 240)">
	<stop  offset="0" style="stop-color:#FFFFFF;stop-opacity:0"/>
	<stop  offset="0.14" style="stop-color:#F2F8FF;stop-opacity:3.000000e-02"/>
	<stop  offset="0.35" style="stop-color:#CFE6FF;stop-opacity:0.11"/>
	<stop  offset="0.6" style="stop-color:#95C8FF;stop-opacity:0.24"/>
	<stop  offset="0.88" style="stop-color:#459FFF;stop-opacity:0.41"/>
	<stop  offset="1" style="stop-color:#1E8BFF;stop-opacity:0.5"/>
</linearGradient>
<path class="st19" d="M172.7,106.1c-1.6-2.4-4.4-0.8-4.4-0.8L106.6,141c-3.4,1.9-3.7,4.4-3.7,4.4l-8.8,48.8c0.1,1.2,1.1,2,2.3,1.9
	c0,0,0.1,0,0.1,0l0,0h0.2l0,0c0.2-0.1,0.4-0.1,0.6-0.2c0.1-0.1,0.3-0.2,0.4-0.3l64.4-37.3c0,0,2.3-0.8,2.3-5.1l8.6-45.6
	C173.2,106.9,173.1,106.4,172.7,106.1z"/>
<linearGradient id="SVGID_20_" gradientUnits="userSpaceOnUse" x1="48.0241" y1="208.2369" x2="242.2162" y2="-42.3986" gradientTransform="matrix(1 0 0 -1 0 240)">
	<stop  offset="0" style="stop-color:#1EA3D8"/>
	<stop  offset="0.69" style="stop-color:#04439E"/>
	<stop  offset="1" style="stop-color:#081B4E"/>
</linearGradient>
<path class="st20" d="M140.1,196.6c-0.8-0.4-1.4-1.1-1.8-1.8c-0.5-1.1-1.9-5,0.2-7.8l18-6.1c0.1-0.1,0.2-0.1,0.4-0.2
	c0.8-0.5,4.7-2.9,9.9,0.1l53.5,26.9c0,0,4.7,5.4-0.8,10L202,228c-0.3,0.2-0.6,0.3-0.9,0.4c-1.3,0.4-4.7,1.1-9.2-1.5L140.1,196.6z"/>
<linearGradient id="SVGID_21_" gradientUnits="userSpaceOnUse" x1="33.1829" y1="183.9858" x2="392.5647" y2="-167.632" gradientTransform="matrix(1 0 0 -1 0 240)">
	<stop  offset="0" style="stop-color:#1EA3D8"/>
	<stop  offset="0.69" style="stop-color:#04439E"/>
	<stop  offset="1" style="stop-color:#081B4E"/>
</linearGradient>
<path class="st21" d="M140.1,191.9c-0.8-0.4-1.4-1.1-1.8-1.8c-0.5-1.1-0.7-2.6,1.1-4.2l17.1-9.7l0.4-0.2c0.8-0.5,4.7-2.9,9.9,0.1
	l52.7,30.9c0,0,4.4,2.7,0,6L202,223.4c-0.3,0.2-0.6,0.3-0.9,0.4c-1.3,0.4-4.7,1.1-9.2-1.5L140.1,191.9z"/>
<linearGradient id="SVGID_22_" gradientUnits="userSpaceOnUse" x1="58.466" y1="215.6462" x2="252.6581" y2="-34.981" gradientTransform="matrix(0.9985 -4.689866e-03 -4.689866e-03 -0.9985 0.1249 238.8508)">
	<stop  offset="0" style="stop-color:#1EA3D8"/>
	<stop  offset="0.69" style="stop-color:#04439E"/>
	<stop  offset="1" style="stop-color:#081B4E"/>
</linearGradient>
<path class="st22" d="M203.6,213.6c0.1-1,1.6-1.6,3.4-1.4c1.7,0.2,3,1.2,2.9,2.2s-1.6,1.6-3.4,1.4
	C204.8,215.6,203.5,214.6,203.6,213.6z"/>
<linearGradient id="SVGID_23_" gradientUnits="userSpaceOnUse" x1="145.2619" y1="-58.7233" x2="179.1942" y2="43.7354" gradientTransform="matrix(1 0 0 -1 0 240)">
	<stop  offset="0" style="stop-color:#1E8BD8"/>
	<stop  offset="1" style="stop-color:#FFFFFF"/>
</linearGradient>
<polygon class="st23" points="144.8,192.2 167.3,179.2 211.8,205.5 190.6,218.8 "/>
<linearGradient id="SVGID_24_" gradientUnits="userSpaceOnUse" x1="88.9204" y1="-83.1601" x2="204.1323" y2="106.1191" gradientTransform="matrix(1 0 0 -1 0 240)">
	<stop  offset="0" style="stop-color:#1E8BD8"/>
	<stop  offset="1" style="stop-color:#FFFFFF"/>
</linearGradient>
<polygon class="st24" points="152.8,192.7 168.4,183.8 183.9,192.5 169.2,202 "/>
<linearGradient id="SVGID_25_" gradientUnits="userSpaceOnUse" x1="105.4538" y1="-103.3065" x2="227.3181" y2="96.9101" gradientTransform="matrix(1 0 0 -1 0 240)">
	<stop  offset="0" style="stop-color:#1E8BD8"/>
	<stop  offset="1" style="stop-color:#FFFFFF"/>
</linearGradient>
<polygon class="st25" points="180.4,209.5 195.7,199.3 198.5,201.1 183.4,211.2 "/>
<linearGradient id="SVGID_26_" gradientUnits="userSpaceOnUse" x1="109.9657" y1="-108.3538" x2="233.5186" y2="94.6204" gradientTransform="matrix(1 0 0 -1 0 240)">
	<stop  offset="0" style="stop-color:#1E8BD8"/>
	<stop  offset="1" style="stop-color:#FFFFFF"/>
</linearGradient>
<polygon class="st26" points="185.8,212.9 201.2,202.6 204.2,204.3 188.9,214.6 "/>
<linearGradient id="SVGID_27_" gradientUnits="userSpaceOnUse" x1="141.6538" y1="-14.7257" x2="188.7975" y2="62.7186" gradientTransform="matrix(1 0 0 -1 0 240)">
	<stop  offset="0" style="stop-color:#1E8BD8"/>
	<stop  offset="1" style="stop-color:#FFFFFF"/>
</linearGradient>
<polygon class="st27" points="170.6,203 176.6,199 177.7,199.7 171.8,203.6 "/>
<linearGradient id="SVGID_28_" gradientUnits="userSpaceOnUse" x1="272.8316" y1="0.6147" x2="125.1977" y2="60.3335" gradientTransform="matrix(1 0 0 -1 0 240)">
	<stop  offset="0" style="stop-color:#FFFFFF;stop-opacity:0"/>
	<stop  offset="0.14" style="stop-color:#F2F8FF;stop-opacity:3.000000e-02"/>
	<stop  offset="0.35" style="stop-color:#CFE6FF;stop-opacity:0.11"/>
	<stop  offset="0.6" style="stop-color:#95C8FF;stop-opacity:0.24"/>
	<stop  offset="0.88" style="stop-color:#459FFF;stop-opacity:0.41"/>
	<stop  offset="1" style="stop-color:#1E8BFF;stop-opacity:0.5"/>
</linearGradient>
<path class="st28" d="M221.4,209.3c-0.3-1-1-1.8-1.9-2.3l-52.7-30.9c-5.2-3-9.2-0.6-9.9-0.1l-0.4,0.2l-17.1,9.7
	c-0.4,0.3-0.7,0.7-0.9,1l0,0c-2.1,2.8-0.7,6.7-0.2,7.8c0.4,0.8,1,1.4,1.8,1.8l51.7,30.4c4.5,2.5,7.9,1.9,9.2,1.5
	c0.3-0.1,0.6-0.2,0.9-0.4l17.6-10.4C223.1,214.6,222.4,211.3,221.4,209.3z"/>
<linearGradient id="SVGID_29_" gradientUnits="userSpaceOnUse" x1="-29.6464" y1="253.8559" x2="227.5143" y2="53.7327" gradientTransform="matrix(1 0 0 -1 0 240)">
	<stop  offset="0" style="stop-color:#18DEC3"/>
	<stop  offset="1" style="stop-color:#05A794"/>
</linearGradient>
<path class="st29" d="M215,181.8c-0.6,0.7-1.3,1.3-2.2,1.7l0,0c-0.6,0.4-1.2,0.7-1.9,1.1l0,0c-1.1,0.3-2.2,0.3-3.3,0
	c-0.9-0.2-1.8-0.5-2.6-0.8c-0.6-1.6-1.7-2.9-3.1-3.7l-26.4-15.1c-4.4-2.5-8-6.1-10.5-10.5c0-0.1-0.1-0.1-0.1-0.2
	c-0.5-0.8-2.5-2.1-4.1-3.2c0-0.2-0.1-0.4-0.1-0.6c-0.5-3.9-0.2-10.4,8-10.2c0.5-0.4,1.1-0.7,1.7-0.8c0.3,0,0.6,0,1-0.1
	c0,0,0.1-0.1,0.4-0.2c1.2-0.7,5.2-2.5,9.1,2.4l0.1,0.2c0.3-0.2,0.6-0.3,0.9-0.5c4-1.7,19.5-6.3,24.1,22.8
	C205.9,164,221.3,173.5,215,181.8z"/>
<linearGradient id="SVGID_30_" gradientUnits="userSpaceOnUse" x1="121.9559" y1="148.866" x2="353.1434" y2="-93.5221" gradientTransform="matrix(1 0 0 -1 0 240)">
	<stop  offset="0" style="stop-color:#18DEC3"/>
	<stop  offset="1" style="stop-color:#05A794"/>
</linearGradient>
<path class="st30" d="M213.2,183.1c-0.1,0.1-0.2,0.3-0.4,0.4l0,0c-0.5,0.5-1.2,0.9-1.9,1l0,0c-1.1,0.3-2.2,0.3-3.3,0
	c-0.9-0.2-1.8-0.5-2.6-0.8c-2-0.8-3.9-1.7-5.8-2.8l-26.5-15.1c-4.4-2.5-8-6.1-10.5-10.5c0-0.1-0.1-0.1-0.1-0.2
	c-0.7-1.3-1.2-2.7-1.4-4.1c0-0.2-0.1-0.4-0.1-0.6c-0.5-3.9-0.2-10.4,8-10.2c0.9-0.6,1.9-1,3-1.1c1.8-0.2,4.2,0.4,6.6,3.4
	c0.8-0.4,1.7-0.8,2.5-1c0.3-0.1,0.7-0.2,1.1-0.3c5.9-1.5,17.6-0.8,21.4,23.8C203.3,164.9,219.6,174.8,213.2,183.1z"/>
<linearGradient id="SVGID_31_" gradientUnits="userSpaceOnUse" x1="186.1727" y1="124.836" x2="186.1727" y2="4.6263" gradientTransform="matrix(1 0 0 -1 0 240)">
	<stop  offset="0" style="stop-color:#FFFFFF;stop-opacity:0"/>
	<stop  offset="0.21" style="stop-color:#F8FBFE;stop-opacity:2.000000e-02"/>
	<stop  offset="0.4" style="stop-color:#E1EEFA;stop-opacity:7.000000e-02"/>
	<stop  offset="0.58" style="stop-color:#BBD9F3;stop-opacity:0.15"/>
	<stop  offset="0.76" style="stop-color:#85BBEA;stop-opacity:0.27"/>
	<stop  offset="0.93" style="stop-color:#4094DE;stop-opacity:0.42"/>
	<stop  offset="1" style="stop-color:#1E81D8;stop-opacity:0.5"/>
</linearGradient>
<path class="st31" d="M144.8,192.2c0,0-21.8-63.7-20.5-63.7h123.8l-36.3,77l-21.2,13.3L144.8,192.2z"/>
<linearGradient id="SVGID_32_" gradientUnits="userSpaceOnUse" x1="231.4493" y1="82.5716" x2="161.998" y2="75.4949" gradientTransform="matrix(1 0 0 -1 0 240)">
	<stop  offset="0" style="stop-color:#FFFFFF;stop-opacity:0"/>
	<stop  offset="1" style="stop-color:#5CFFCC;stop-opacity:0.5"/>
</linearGradient>
<path class="st32" d="M205.9,164c-4.6-29.2-20.1-24.5-24.1-22.8c-0.4,0.1-0.7,0.2-1.1,0.3c-3.9-4.9-7.9-3.1-9.1-2.4
	c-0.4,0-0.9,0.1-1.3,0.3c-0.6,0.2-1.2,0.5-1.7,0.8c-8.2-0.2-8.5,6.4-8,10.2c0,0.2,0.1,0.4,0.1,0.6c0.3,1.4,0.7,2.8,1.4,4.1
	c0,0.1,0.1,0.1,0.1,0.2c2.4,4.4,6.1,8,10.5,10.5l26.4,15.1c1.8,1.1,3.8,2.1,5.8,2.8c0.9,0.3,1.7,0.6,2.6,0.8c1.1,0.3,2.2,0.3,3.3,0
	l0,0c0.7-0.2,1.4-0.5,1.9-1l0,0c0.8-0.4,1.5-1,2.2-1.7C221.3,173.5,205.9,164,205.9,164z"/>
</svg>
